<?xml version="1.0" encoding="UTF-8"?><svg id="a" xmlns="http://www.w3.org/2000/svg" viewBox="0 0 53.9 17.12"><path d="m28.9,1.04c.79.71,1.44,1.14,2.03,1.37.52.2,1,.25,1.48.18h0s-.07.07-.08.09h0s-.02.02-.02.02c-.33.31-1.38,1.12-2.76.3-.01,0-.02-.01-.03-.02h0c-.4-.24-.85-.62-1.33-1.2-.93-1.12-1.75-1.49-2.22-1.63-.11-.03-.2-.05-.26-.07.6-.14,1.86-.23,3.19.95Zm5.48.2s.04,0,.05,0c-.37-.18-1.37-.26-2.72.65-.19.13-.32.21-.44.3h0c.25.19.71.39,1.15.41.09-.1.16-.17.23-.25.03-.04.07-.07.11-.12.84-.93,1.36-.96,1.63-.98Z" style="fill:#908061; fill-rule:evenodd; stroke-width:0px;"/><path d="m12.74,2.94c0,.35-.28.63-.63.63s-.63-.28-.63-.63.28-.63.63-.63.63.28.63.63Zm34.54,3.04c-.38-.41-1.05-.81-1.7-.81-1.79,0-2.06,1.71-2.06,2.29s.27,2.28,2.06,2.31c.71,0,1.34-.37,1.75-.76l.63.78c-.61.61-1.34.98-2.39.98-2.43,0-3.15-1.95-3.15-3.31s.72-3.27,3.15-3.27c1.08,0,1.8.44,2.41,1.1l-.71.69Zm-18.77-1.75l4.05,3.96v-3.88h1.09v6.44l-.07.02-4.03-3.98v3.88h-1.09v-6.43l.04-.02Zm-14.93.02c-2.44,0-3.14,1.9-3.14,3.21s.7,3.26,3.14,3.26,3.14-1.9,3.14-3.26-.7-3.21-3.14-3.21Zm0,5.49c-1.79,0-2.06-1.7-2.06-2.28s.27-2.23,2.06-2.23,2.05,1.66,2.05,2.23-.26,2.28-2.05,2.28Zm4.28-5.42l1.76,4.27,1.75-4.27h1.15l-2.86,6.42h-.09l-2.86-6.42h1.14Zm5.33,6.36h4.24v-.97h-3.16v-1.69h2.47v-.97h-2.47v-1.78h3.16v-.96h-4.24v6.36Zm14.03-6.36h-2.39v6.36h1.08v-2.31h1.44c1.01,0,2.1-.81,2.1-2.05,0-.83-.52-2-2.23-2Zm-1.31,3.07h1.39c.87,0,1.08-.73,1.08-1.07,0-.36-.21-1.06-1.11-1.06h-1.36v2.12Zm4.43,3.29h1.09v-6.36h-1.09v6.36Zm10.43-3.29l2.93-3.04v-.03h-1.32l-2.42,2.53v-2.53h-1.08v6.36h1.08v-2.78l2.61,2.78h1.32v-.03s-3.13-3.26-3.13-3.26ZM14.71,3.57c.35,0,.63-.28.63-.63s-.28-.63-.63-.63-.63.28-.63.63.28.63.63.63Zm-9.54,4.77l2.47-5.35h.08l2.63,7.68h-.36s-.84.02-1.09-.75l-1.34-4.08-2.33,4.92h-.09l-2.33-4.92-1.34,4.08c-.25.77-1.09.75-1.09.75h-.36L2.63,2.99h.08l2.47,5.35Zm-3.3,8.7v-1.18H.57v1.18H.22v-2.57h.35v1.09h1.31v-1.09h.35v2.57h-.35Zm1.24-1.25c0,.78.37,1.29,1.14,1.29.67,0,1.22-.49,1.22-1.35s-.45-1.29-1.14-1.29-1.22.49-1.22,1.35Zm1.18-1.04c-.43,0-.81.35-.81.99,0,.61.26,1.03.8,1.03.42,0,.81-.33.81-1s-.3-1.03-.81-1.03Zm2.75,2.3v-2.27h.74v-.29h-1.83v.29h.74v2.27h.35Zm1.5,0v-2.57h1.32v.29h-.97v.81h.92v.28h-.92v.89h.97v.29h-1.32Zm2.32-2.57v2.57h1.27v-.3h-.92v-2.27h-.35Zm2.43,2.6c-.21,0-.4-.03-.56-.07l.04-.33c.16.06.35.1.54.1.3,0,.56-.12.56-.44,0-.26-.24-.36-.5-.46-.31-.12-.66-.26-.66-.7s.32-.73.9-.73c.15,0,.32.02.46.05l-.04.31c-.14-.04-.29-.07-.44-.07-.35,0-.52.16-.52.4s.24.35.51.45c.32.13.67.27.67.71s-.38.79-.95.79Zm4.83-.37c.14.12.36.28.54.4l.22-.26c-.14-.1-.33-.24-.52-.38.24-.3.36-.7.35-1.13h-.34c.02.38-.09.71-.26.94h0c-.29-.24-.62-.55-.84-.78.34-.27.48-.49.48-.75,0-.3-.21-.51-.61-.51-.44,0-.68.27-.68.57,0,.21.09.38.35.69-.31.24-.53.48-.53.83,0,.42.29.75.83.75.42,0,.76-.15,1-.37Zm-1.11-1c-.27.21-.38.38-.38.58,0,.27.21.49.54.49.3,0,.54-.12.7-.26-.31-.25-.66-.59-.87-.81Zm-.21-.91c0-.17.13-.3.31-.3.21,0,.3.13.3.29,0,.19-.11.34-.33.52-.21-.24-.28-.38-.28-.51Zm5.51,2.24l-.84-1.15h-.05v1.15h-.35v-2.57c.17-.01.36-.02.64-.02.51,0,.87.18.87.67,0,.44-.35.69-.75.72.03.04.06.07.09.11.05.06.09.11.13.17l.7.92h-.44Zm-.89-2.29c.07,0,.14,0,.23,0,.37,0,.57.12.57.43,0,.27-.21.46-.58.46-.1,0-.18,0-.22,0v-.87Zm2.21,2.29v-2.57h1.32v.29h-.97v.81h.92v.28h-.92v.89h.97v.29h-1.32Zm2.21-.04c.16.05.35.07.56.07.57,0,.95-.33.95-.79s-.35-.58-.67-.71c-.26-.11-.51-.2-.51-.45s.17-.4.52-.4c.15,0,.3.03.44.07l.04-.31c-.14-.03-.32-.05-.46-.05-.58,0-.9.3-.9.73,0,.44.34.58.66.7.26.1.5.2.5.46,0,.32-.26.44-.56.44-.19,0-.38-.04-.54-.1l-.04.33Zm3.41.08c-.77,0-1.14-.51-1.14-1.29,0-.86.55-1.35,1.22-1.35s1.14.45,1.14,1.29-.55,1.35-1.22,1.35Zm-.77-1.34c0-.65.38-.99.81-.99.51,0,.81.37.81,1.03s-.4,1-.81,1c-.54,0-.8-.42-.8-1.03Zm4.12,1.3l-.84-1.15h-.05v1.15h-.35v-2.57c.17-.01.36-.02.64-.02.51,0,.87.18.87.67,0,.44-.35.69-.75.72.03.04.06.07.09.11.05.06.09.11.13.16l.7.92h-.44Zm-.89-2.29c.07,0,.14,0,.23,0,.37,0,.57.12.57.43,0,.27-.21.46-.58.46-.1,0-.18,0-.22,0v-.87Zm2.88.02v2.27h-.35v-2.27h-.74v-.29h1.83v.29h-.74Zm1.35,2.24c.16.05.35.07.56.07.57,0,.95-.33.95-.79s-.35-.58-.67-.71c-.26-.11-.51-.2-.51-.45s.17-.4.52-.4c.15,0,.3.03.44.07l.04-.31c-.14-.03-.32-.05-.46-.05-.58,0-.9.3-.9.73,0,.44.34.58.65.7.26.1.51.2.51.46,0,.32-.26.44-.56.44-.19,0-.38-.04-.54-.1l-.04.33Z" style="fill:#970032; fill-rule:evenodd; stroke-width:0px;"/></svg>