<?xml version="1.0" encoding="UTF-8"?><svg id="a" xmlns="http://www.w3.org/2000/svg" viewBox="0 0 53.89 8.79"><path d="m2.48,2.38h0s.39.39.39.39L.12,5.5c-.06-.22-.1-.44-.12-.66l2.48-2.46h0Zm0,0h0s-.4-.39-.4-.39L4.08,0c.1,0,.2,0,.3,0,.16,0,.31,0,.47.03l-2.37,2.35h0ZM27.07.05v4.48h.53V.05h-.53Zm-3.04,3.05v-1.64h-.53v1.69c0,.29-.11.57-.32.78-.26.2-.59.3-.92.28-.33.02-.66-.08-.93-.28-.21-.19-.32-.46-.31-.75v-1.73h-.54v1.65c-.01.42.15.83.45,1.12.31.27.76.37,1.33.37s1-.1,1.32-.38c.3-.3.46-.71.45-1.13h0Zm6.6,1.43V.05h.53v4.48h-.53Zm6.48-2.59c-.33-.37-.82-.57-1.31-.55-.44-.02-.87.11-1.21.38,0,0-.01.01-.02.02-.1.08-.37.31-.37.98v1.75h.53v-1.73c0-.52.13-.67.28-.78.48-.31,1.1-.3,1.58.01.18.13.28.35.27.57v1.94h.5v-1.95c0-.23.11-.44.29-.57.48-.32,1.11-.32,1.6,0,.18.13.28.35.27.57v1.93h.51v-1.71c0-.61-.12-.83-.4-1.06-.34-.26-.77-.39-1.2-.36-.5-.02-.98.18-1.32.55h0Zm16.77.86v3.8h-.53v-3.88c0-.26-.11-.5-.32-.66-.27-.2-.59-.3-.92-.28-.32-.02-.64.07-.91.25-.21.14-.33.37-.33.62v1.86h-.53v-1.74c0-.37.04-.61.45-.97.38-.29.85-.44,1.33-.41.47-.03.94.12,1.31.41.3.25.46.62.45,1.01Zm-37.3,1.05c-.35.25-.78.37-1.21.35-.55-.02-1.63-.4-1.63-1.1,0-.33.15-.65.38-.89.29-.28.7-.41,1.24-.41.43-.02.86.1,1.21.35.27.2.43.52.42.86.01.34-.15.66-.42.86h0Zm-1.2-2.46c.56-.03,1.11.13,1.57.44h0c.38.26.59.7.58,1.16,0,.46-.22.9-.6,1.17-.46.31-1.01.47-1.57.44-.65,0-1.45-.35-1.62-.57v2.58h-.53v-3.27c-.1-.94.4-1.95,2.17-1.95Zm30.94,2.43c-.35.22-.75.35-1.16.38-.55,0-.92-.11-1.22-.34-.27-.2-.42-.52-.41-.86,0-.34.15-.66.42-.86.35-.25.78-.37,1.21-.35.45-.03.89.12,1.24.41.25.25.39.59.38.95-.01.29-.19.49-.46.67h0Zm-1.18-2.42c.75,0,1.47.3,1.79.68h0c.26.28.38.67.35,1.05v1.4h-.5v-.52c-.46.38-1.03.59-1.63.6-.8,0-1.17-.13-1.56-.43-.39-.26-.61-.7-.61-1.17-.01-.46.21-.9.58-1.17.46-.31,1.01-.47,1.57-.44Zm-29.31,7.01v.37h.35v-.97h-.35v.36h-.55v-.36h-.35v.97h.35v-.37h.55Zm4.72-.36h-.4v.74h-.35v-.74h-.4v-.23h1.14v.23Zm1.31.36h.64v-.23h-.64v-.13h.67v-.23h-1.02v.97h1.02v-.23h-.68v-.15Zm2.09-.59v.74s.63,0,.63,0v.23h-.98v-.97h.35Zm8.63.66l-.51-.64v-.02h-.51v.97h.35v-.04s-.02-.62-.02-.62l.51.64v.02h.51v-.97h-.35v.04l.02.62Zm8-.07v.15h.67v.23h-1.02v-.97h1.02v.23h-.67v.13h.64v.23h-.64Zm9.04-.36h.4v-.23h-1.14v.23h.4v.69s0,.04,0,.04h.35v-.74Zm-4.56.51c.25,0,.28-.03.28-.15v-.24s0-.03,0-.04c0-.03,0-.03-.02-.06-.04-.04-.13-.04-.25-.04-.27,0-.27.03-.27.13v.24c0,.13.02.15.27.15Zm0-.75c-.44,0-.62.05-.62.37v.24c0,.35.24.38.62.38s.62-.03.62-.38v-.24c0-.34-.26-.37-.62-.37h0Zm2.02.45h.31c.19,0,.19-.02.19-.11s0-.1-.18-.1h-.32v.22Zm.74.11h.01c.08-.06.11-.15.1-.24,0-.25-.17-.3-.45-.31h-.74v.96h.35v-.29h.36c.13,0,.13.06.13.08v.21h.35v-.21c0-.08-.03-.16-.1-.21Zm-9.48-.11h.31c.19,0,.19-.02.19-.11s0-.1-.18-.1h-.32v.22Zm.74.11c.08-.05.12-.15.1-.24,0-.25-.17-.3-.45-.31h-.74v.96h.35v-.29h.36c.13,0,.13.06.13.08v.21h.35v-.21c.01-.08-.03-.16-.1-.21h0Zm-4.34.18c.16,0,.19-.08.19-.16v-.21c0-.1-.02-.14-.22-.14h-.35v.51h.38Zm-.04-.73h-.68v.96h.73c.37,0,.53-.12.53-.38v-.21c0-.33-.29-.38-.57-.38h-.02Zm-4.8.25l-.16.32h.33l-.16-.32Zm.69.64l-.46-.88v-.02h-.45v.02s-.46.88-.46.88l-.03.06h.37v-.02s.09-.14.09-.14h.53l.08.14v.02h.37l-.03-.06Zm-12.75-.16c.25,0,.28-.03.28-.15v-.24s0-.02,0-.03c0-.03,0-.03-.02-.06-.03-.04-.13-.04-.25-.04-.27,0-.27.03-.27.13v.24c0,.13.02.15.27.15Zm0-.75c-.44,0-.62.05-.62.37v.24c0,.35.25.38.62.38s.62-.03.62-.38v-.24c0-.34-.26-.37-.62-.37h0Zm8.31,0c.25,0,.51,0,.51.27h-.35s-.02-.07-.21-.07c-.25,0-.27,0-.27.09s.02.1.28.1c.34.01.57.02.57.29,0,.29-.32.31-.57.31h-.02c-.23,0-.42,0-.52-.1-.05-.04-.07-.1-.07-.17h.35c0,.05.02.08.27.08.21,0,.23-.02.23-.1s-.02-.1-.2-.1h-.16c-.25,0-.48-.02-.48-.3s.29-.29.6-.29h.03Zm17.26.27c0-.27-.27-.27-.51-.27h-.03c-.31,0-.6,0-.6.29s.23.29.48.3h.03s.13,0,.13,0c.17,0,.19.01.19.1s-.02.1-.23.1c-.25,0-.27-.03-.27-.08h-.35c0,.06.02.12.07.17.1.1.3.1.52.1h.02c.25,0,.57-.02.57-.31,0-.26-.23-.27-.57-.29-.26,0-.28-.01-.28-.1s.03-.09.27-.09c.2,0,.21.02.21.07h.36Zm8.17-.27c.25,0,.51,0,.51.27h-.34s0-.07-.21-.07c-.25,0-.27,0-.27.09s.02.1.28.1c.34.01.57.02.57.29,0,.29-.32.31-.57.31h-.02c-.22,0-.42,0-.52-.1-.05-.04-.07-.1-.07-.17h.35c0,.05.02.08.27.08.21,0,.23-.02.23-.1s-.02-.1-.2-.1h-.16c-.25,0-.48-.02-.48-.3s.29-.29.6-.29h.03Zm-44.1-.35l-.34-.34-1.47,1.46c.69-.22,1.31-.6,1.82-1.12h0Zm-3.58,1.3l2.45-2.43.39.39-2.06,2.05c-.12.02-.24.02-.37.02-.14,0-.28,0-.42-.02Zm2.85-2.04l.39.39,1.38-1.36c.1-.32.16-.65.19-.98l-1.96,1.95Zm-1.17-1.18l-2.93,2.91c.19.08.39.14.59.19l2.73-2.7-.39-.39Zm-3.92,2.33l3.14-3.11.39.38-3.06,3.04c-.16-.09-.32-.2-.47-.31Zm2.36-3.9L.9,7.08c.11.15.24.29.37.42l3.17-3.14-.39-.39ZM.32,6.08l2.95-2.91.39.39L.58,6.61c-.1-.17-.19-.34-.26-.52Zm-.14-2.97l1.52-1.52.38.39L0,4.07c.02-.32.08-.64.18-.95Zm8.56.88l-2.35,2.33-.39-.39,2.63-2.61c.05.22.09.44.11.67Zm-3.13,1.54l2.83-2.8c-.08-.18-.16-.36-.26-.53l-2.96,2.93.39.4Zm2.26-3.79l-3.04,3.01-.39-.39,3.06-3.04c.13.13.25.27.37.42Zm-3.82,2.22L7.08.95c-.15-.12-.3-.22-.46-.32l-2.97,2.94.39.39ZM6.1.36l-2.84,2.81-.39-.39L5.52.15c.2.05.39.12.58.2ZM1.32,1.22c.51-.49,1.13-.85,1.8-1.04l-1.42,1.41-.38-.37Z" style="fill:#464648; fill-rule:evenodd; stroke-width:0px;"/></svg>