<?xml version="1.0" encoding="UTF-8"?><svg id="a" xmlns="http://www.w3.org/2000/svg" viewBox="0 0 376.49 85.19"><path d="m365.6,29.35l-.02.03c5.08,5.1,8.41,11.99,8.95,19.74,1.2,17.1-11.69,31.93-28.77,33.12-8.04.57-15.57-1.99-21.42-6.62l-.03.03c6.07,5.65,14.38,8.89,23.32,8.26,17.09-1.19,29.97-16.02,28.78-33.11-.61-8.64-4.7-16.23-10.81-21.45" style="fill:#202d5c; stroke-width:0px;"/><path d="m310.63,64.67c-1,.55-1.21,1.38-.7,2.66.46,1.16,1.19,1.67,1.98,1.34.62-.24.73-.78.48-2.17l-.11-.55c-.25-1.38-.3-1.97-.13-2.57.16-.67.54-1.09,1.13-1.32,1.4-.57,2.73.31,3.52,2.28.85,2.13.39,3.73-1.27,4.43l-.42-1.04c1.16-.49,1.46-1.58.83-3.13-.5-1.27-1.31-1.83-2.15-1.49-.69.27-.84.9-.59,2.34l.1.61.08.53c.18,1.06.21,1.44.1,1.9-.14.56-.49.98-1.08,1.21-1.32.53-2.59-.24-3.31-2.02-.76-1.93-.35-3.36,1.13-4.02l.42,1.03Z" style="fill:#202d5c; stroke-width:0px;"/><polygon points="309.75 53.46 314.47 49.49 314.49 50.95 310.5 54.25 311.79 55.68 314.59 55.62 314.62 56.77 306.63 56.95 306.6 55.8 309.74 55.73 310.18 55.73 310.58 55.73 310.31 55.44 310.04 55.16 306.5 51.33 306.47 49.81 309.75 53.46" style="fill:#202d5c; stroke-width:0px;"/><path d="m313.29,41.05l3.08,1.08-.37,1.09-3.09-1.09-5.52,1.67.46-1.32,3.44-.96.42-.11c.17-.06.28-.07.58-.14-.27-.32-.33-.39-.61-.79l-2.11-2.86.44-1.27,3.29,4.7Z" style="fill:#202d5c; stroke-width:0px;"/><polygon points="318.71 26.34 317.02 28.42 322.06 32.55 320.85 34.03 315.8 29.9 314.12 31.96 312.98 31.02 317.56 25.41 318.71 26.34" style="fill:#202d5c; stroke-width:0px;"/><polygon points="329.51 18.76 325.47 21.13 326.33 22.61 330.03 20.44 330.73 21.62 327.02 23.78 328.01 25.49 332.12 23.07 332.88 24.35 327.1 27.72 323.07 20.82 328.76 17.48 329.51 18.76" style="fill:#202d5c; stroke-width:0px;"/><path d="m340.41,17.75c-.44-.72-.61-1.06-.86-1.63-.07.58-.14,1-.34,1.82l-.33,1.53,2.32-.38-.79-1.34Zm4.57,4.13l-2.08.14-1.04-1.73-3.23.52-.45,1.97-1.99.51,2.1-8.74,1.97-.31,4.72,7.65Z" style="fill:#202d5c; stroke-width:0px;"/><path d="m357.84,24.44l-1.68-.64.65-2.38c.06-.27.16-.65.31-1.15.14-.5.26-.89.33-1.18.11-.32.21-.65.32-1l.18-.56c-.47.81-.66,1.09-1.1,1.74-.17.29-.34.53-.48.74l-2.27,3.18-1.46-.39-.45-3.82c-.04-.2-.05-.47-.08-.85-.03-.51-.05-.89-.07-1.15,0-.21,0-.53,0-.97l-.2.97c-.23,1.05-.34,1.5-.66,2.76l-.67,2.58-1.77-.28,2-7.82,2.69.52.38,3.71c.09.87.12,1.6.08,2.62.3-.59.41-.78.75-1.32.24-.37.44-.67.63-.94l2.1-3.03,2.55.87-2.08,7.81Z" style="fill:#202d5c; stroke-width:0px;"/><path d="m357.66,50.28c2.3-1.56,4.23-2.39,5.42-2.35.7.02,1.56.24,1.56,1.11s-.86,1.65-2.53,2.25c-1.46.53-3.72.66-6.17.38.68-.61,1.25-1.08,1.72-1.39m-32.46,2.84c-1.43-.09-2.13-.67-2.13-1.77,0-.15.1-3.66,8.12-4.06.91-.05,1.94-.08,3.49.1l-.9.79-.51.45c-1.93,1.76-5.17,4.69-8.07,4.49m17.36-13.25c-.97.84-2.89,2.7-4.75,4.48l-2.11,2.02c-1.71-.3-3.4-.45-5.15-.46-3.9,0-7.47,1.08-9.1,2.76-.61.64-.93,1.32-.9,2.05.03,1.9,2.19,2.84,2.86,3.09,3.46,1.29,6.36.91,9.41-1.23,1.68-1.18,3.71-3.07,5.3-4.6,1.23.28,2.62.66,4.13,1.09l1.39.41c-1.8,1.77-3.64,3.63-5.36,5.14l-.13.12c-2.37,2.09-4.09,3.6-6.57,4.16-1.76.38-2.99.02-3.4-.23l-.1.08c1.44,1.19,2.8,1.86,5.14,1.65,2.23-.19,4.81-1.59,7.44-4.06l3.55-3.49,2.49-2.47,5.03,1.48.09.03-3.11,3.03-2.67,2.66c-2.74,2.66-4.23,4.04-5.84,5.17-2.64,1.89-4.91,2.86-6.91,3-1.03.07-2.53,0-3.77-.73l-.13.06c1.35,1.15,3,2.54,5.86,2.47,3.23-.11,6.08-1.66,10.54-5.75,2.03-1.86,4.04-3.95,5.82-5.79l3.31-3.35c2.18.49,4.12.68,6.27.65,3.13-.07,5.81-1.57,5.84-3.29.04-1.27-1.01-1.96-1.63-2.35-.52-.34-1.92-1.12-3.86-1.12-2.35,0-4.8,1.04-7.29,3.1l-1.65,1.46-.61-.16-4.6-1.3c1.35-1.27,2.52-2.36,3.55-3.29,2.53-2.24,5.31-3.16,6.94-3.27,1.19-.08,3.25.02,4.1.62l.1-.09c-2.26-1.94-4.23-2.2-5.84-2.2s-4.15.5-7.28,2.93c-1.28.99-2.93,2.65-4.67,4.41l-2.33-.72-.56-.18-2.45-.74,1.39-1.32c1.64-1.61,3.21-3.14,4.42-4.18,4.41-3.71,7.19-4.19,9.12-4.21,2.12,0,3.81.43,5,1.3l.09-.08c-2.48-2.25-4.27-2.97-7.34-2.99-2.71-.02-5.93,1.49-9.09,4.26" style="fill:#202d5c; stroke-width:0px;"/><path d="m362.37,18.41c.15.08.41.26.52.06.06-.13-.09-.25-.22-.33l-.34-.18-.17.32.21.12Zm.17,1.08l-.21-.12-.06-.78-.21-.12-.32.58-.18-.1.7-1.26.55.31c.22.13.42.3.26.57-.14.25-.37.24-.59.13l.06.78Zm.77-.39c.3-.54.1-1.22-.44-1.51-.54-.29-1.22-.12-1.52.43-.29.54-.08,1.22.45,1.51.52.29,1.21.11,1.51-.44m-2.19-1.05c.3-.68,1.06-.98,1.73-.69.67.29.98,1.06.7,1.73-.29.67-1.05.97-1.73.68-.68-.29-.98-1.05-.7-1.71" style="fill:#202d5c; stroke-width:0px;"/><polygon points="123.99 44.04 127.09 47.29 130.21 44.04 127.09 40.81 123.99 44.04" style="fill:#26285d; stroke-width:0px;"/><polygon points="110.85 3.25 107.74 0 104.62 3.25 107.74 6.48 110.85 3.25" style="fill:#26285d; stroke-width:0px;"/><polygon points="115.82 44.04 118.97 47.29 122.08 44.04 118.97 40.81 115.82 44.04" style="fill:#26285d; stroke-width:0px;"/><polygon points="119.03 3.25 115.88 0 112.76 3.25 115.88 6.48 119.03 3.25" style="fill:#26285d; stroke-width:0px;"/><path d="m185.8,29.19h-10.97v-.78c0-9.36,7.28-15.06,10.97-16.07v16.85Zm83.73-22.8v22.87c0,1.3-.13,2.4-.58,3.18-.56.94-1.56,1.73-3.45,1.73s-2.9-.79-3.47-1.73c-.46-.78-.6-1.87-.6-3.18V12.76h-5.37v16.43h-6.72V12.78h-5.33v16.41h-6.72V12.76h-5.34v16.43h-20.62c-5.95-.41-7.34-3.59-7.34-6.54,0-4.15,3.68-5.75,7.7-5.75h8.75v-4.14h-7.77c-6.32,0-11.61,2.6-11.61,9.17,0,4.28,1.92,6.22,3.59,7.26h-13.53V8.82c-11.7,1.45-20.98,10.19-20.98,24.54h15.67v5.05c0,1.94.22,5.67-2.61,6.2v2.23c1.97-.21,5.17-1.54,6.58-3.93,1.1-1.86,1.34-3.56,1.34-7.46v-2.08h65.62c.21.52.48,1.05.85,1.58,1.64,2.26,4.54,3.28,7.92,3.28s6.22-1.01,7.85-3.28c1.36-1.92,1.51-3.82,1.51-6.13V6.39h-5.33Z" style="fill:#26285d; stroke-width:0px;"/><rect x="282.34" y="6.39" width="5.3" height="26.96" style="fill:#26285d; stroke-width:0px;"/><path d="m153.12,12.66h-7.66v4.18h6.42c4.96,0,10.05.24,10.05,5.99,0,5.11-3.75,6.27-10.45,6.27h-12.88v4.17h13.84c8.34,0,12.43-2.56,12.43-10.42s-4.85-10.2-11.74-10.2" style="fill:#26285d; stroke-width:0px;"/><path d="m113.62,29.19h-10.9v-.7c0-9.31,7.18-15.17,10.9-16.18v16.88Zm13.48,0c0,1.33-.15,2.41-.61,3.21-.56.94-1.54,1.71-3.44,1.71s-2.88-.77-3.45-1.71c-.47-.81-.61-1.88-.61-3.21V8.8c-12.72,1.2-20.96,11.25-20.96,24.55h16.25c.23.52.51,1.01.86,1.52,1.62,2.26,4.51,3.28,7.88,3.28s6.24-1.02,7.86-3.28c1.39-1.9,1.56-3.79,1.56-6.13V10.95h-5.32v18.23Z" style="fill:#26285d; stroke-width:0px;"/><path d="m178.15,84.86c-5.26,0-9.21-1.1-11.64-3.43-2.16-2-3.15-4.28-3.15-8.83v-19.01h5.7v19.82c0,2.92.45,4.58,1.85,6.08,1.5,1.62,4.1,2.5,7.24,2.5s5.71-.88,7.21-2.5c1.39-1.5,1.83-3.16,1.83-6.08v-19.82h5.74v19.01c0,4.55-1.02,6.83-3.15,8.83-2.44,2.33-6.42,3.43-11.63,3.43" style="fill:#26285d; stroke-width:0px;"/><path d="m215.41,81.55c-1.14,0-3.63-.13-4.69-.99-.87-.75-.89-1.97-.89-3.8v-21.24c8.78-.78,18.5,1.81,18.5,13.37,0,9.25-6.01,12.66-12.92,12.66m-1.11-28.6c-2.81.07-9.73.37-14.77,1.83l.47,2.27c1.36-.38,2.64-.66,4.12-.9v28.05c8.08.16,11.54.13,15.77-.36,7.42-.9,14.44-6.48,14.44-15.05,0-12.07-10.79-16.03-20.03-15.85" style="fill:#26285d; stroke-width:0px;"/><rect x="242.22" y="53.59" width="5.74" height="30.62" style="fill:#26285d; stroke-width:0px;"/><path d="m136.17,70.9c2.92,0,8.38.39,12.26,3.48l-6.98-14.29-5.28,10.81Zm23.45,13.31h-6.5c-2.29-4.64-8.27-11.38-18.2-10.73l-5.22,10.73h-4.05l16-31.12h2.03l15.94,31.12Z" style="fill:#26285d; stroke-width:0px;"/><path d="m264.33,70.9c2.92,0,8.38.4,12.25,3.49l-6.97-14.3-5.28,10.8Zm23.45,13.31h-6.5c-2.29-4.64-8.27-11.37-18.2-10.73l-5.22,10.73h-4.05l15.99-31.12h2.05l15.93,31.12Z" style="fill:#26285d; stroke-width:0px;"/><path d="m121.14,54.63c-1.64-.87-5.74-2.13-9.98-2.06-7.48.19-12.47,3.24-12.52,8.76-.03,1.09.21,2.48.87,3.66,3.62,6.2,18.61,5.18,18.61,11.83,0,1.9-1.81,5.02-6.97,5.02-5.6,0-9.87-2.59-11.91-4.19l-1.48,4.49c1.74.9,6.42,2.6,13.13,2.6,3.01,0,6.43-.81,8.93-2.76,2.43-1.9,3.52-4.25,3.52-7.15,0-10.99-19.17-8.23-19.17-15.13,0-1.14.63-1.96.85-2.24,1.04-1.35,3.32-2.16,6.19-2.16,2.68,0,5.5.9,8.3,3.13l1.6-3.78Z" style="fill:#26285d; stroke-width:0px;"/><path d="m77.05,61.94l-.11.18c-6.94,12.07-19.95,20.2-34.88,20.2C19.86,82.32,1.86,64.33,1.86,42.13c0-7.28,1.94-14.1,5.33-19.99l.09-.16-.04-.15-.15.06-.1.14c-.6.87-1.16,1.78-1.7,2.7-11.04,19.27-4.23,43.91,15.2,55.05,19.43,11.14,44.14,4.56,55.17-14.7.55-.92,1.04-1.87,1.49-2.84l.09-.19-.05-.16-.14.06Z" style="fill:#b09256; stroke-width:0px;"/><path d="m32.22,11.05c-5.72,1.22-15.32,7.1-17.36,16.86,6.16-7.28,12.58-11.1,17.49-11.99-5.03,3.76-9.75,12.53-8.28,18.69,2.66-6.54,7.32-12.93,11.59-15.26-2.42,3.99-3.21,13.63-.9,17.88.54-5.52,2.29-12.69,5.03-16.23l.82,6.92h-.94l.99,7.04h-.78l.82,7.04h-.67l1.03,7.04-3.33,1.7v.24h8.68v-.24l-3.33-1.7-1.01.78,1-.78,1.02-7.04h-.67l.82-7.04h-.79l.99-7.04h-.94l.82-6.92c2.75,3.54,4.49,10.71,5.03,16.23,2.32-4.25,1.52-13.89-.89-17.88,4.27,2.33,8.93,8.72,11.6,15.26,1.46-6.15-3.26-14.93-8.29-18.69,4.91.89,11.32,4.71,17.48,11.99-2.03-9.76-11.63-15.64-17.36-16.86,6.3-.63,12.44,1.39,18,4.1-6.04-6.97-15.16-9.51-21.19-8.81,1.02-1.08,2-1.65,3.54-2.11-2.55-1.19-6.51-.57-8.06,1.16,0,0-.28-3.23-2.13-4.51-1.86,1.27-2.13,4.51-2.13,4.51-1.55-1.73-5.51-2.35-8.05-1.16,1.53.45,2.51,1.03,3.54,2.11-6.04-.69-15.16,1.84-21.2,8.81,5.58-2.7,11.71-4.72,18-4.1" style="fill:#b09256; stroke-width:0px;"/><path d="m43.78,56c-.48.31-1.07.71-1.72,1.16-.66-.45-1.25-.85-1.72-1.16-2.56-1.72-24.16-16.18-33.51-5.95,8.62-3.42,21.39,3.04,31.91,9.38-2.63,1.8-5.63,3.87-8.18,5.59-4.04-3.92-5.54-3.29-5.9-3.13-.39.16-.67.53-.69.98,0,.59.45,1.09,1.02,1.1.58.01,1.07-.46,1.08-1.05l-.02-.24c1.12.71,2.16,1.66,4.77,4.35,2.65,2.75,3.69,3.51,4.47,3.97.54.31,1.09.39,1.42.36.55-.03,1.1-.42,1.12-1.04.03-.61-.42-1.12-1.02-1.13-.58-.01-1.08.46-1.08,1.07v.1c-.72-.52-1.49-1.47-3.03-3.13,2.53-1.45,5.75-3.53,9.35-5.77,3.6,2.24,6.82,4.33,9.35,5.77-1.54,1.67-2.31,2.61-3.04,3.13v-.1c0-.61-.49-1.09-1.08-1.07-.6,0-1.05.51-1.01,1.13.03.62.57,1.02,1.12,1.04.33.03.88-.05,1.43-.36.78-.46,1.81-1.22,4.47-3.97,2.61-2.69,3.65-3.64,4.77-4.35l-.02.24c.02.59.5,1.07,1.07,1.05.58-.02,1.04-.51,1.03-1.1-.02-.45-.3-.82-.69-.98-.36-.16-1.87-.78-5.9,3.13-2.54-1.72-5.55-3.79-8.18-5.59,10.52-6.34,23.29-12.8,31.91-9.38-9.34-10.23-30.95,4.23-33.5,5.95" style="fill:#b09256; stroke-width:0px;"/><path d="m19.67,69.48c-.33-.15-.68-.34-.85-.36-.12-.01-.23.01-.3.1-.07.09-.1.27-.02.41.05.11.17.31.51.6,1.41,1.23,4.26,2.32,11.75-1.87-.23-.23-.46-.47-.71-.72-.5-.52-.94-.97-1.33-1.37-3.96,2.5-7.1,4-9.03,3.21" style="fill:#b09256; stroke-width:0px;"/><path d="m64.46,69.48c-1.94.79-5.08-.71-9.03-3.21-.39.39-.83.85-1.34,1.37-.24.25-.48.49-.7.72,7.48,4.19,10.33,3.09,11.74,1.87.34-.29.46-.49.51-.6.08-.15.06-.33-.02-.41-.07-.08-.18-.11-.3-.1-.18.03-.52.22-.86.36" style="fill:#b09256; stroke-width:0px;"/></svg>