<?xml version="1.0" encoding="utf-8"?>
<!-- Generator: Adobe Illustrator 19.0.0, SVG Export Plug-In . SVG Version: 6.00 Build 0)  -->
<svg version="1.1" id="layer" xmlns="http://www.w3.org/2000/svg" xmlns:xlink="http://www.w3.org/1999/xlink" x="0px" y="0px"
	 viewBox="-153 -46 652 652" style="enable-background:new -153 -46 652 652;" xml:space="preserve">
<style type="text/css">
	.st0{fill:#D8B464;}
</style>
<path class="st0" d="M326,354.8h-76.6l-56.3-117.4c-30.7,16.7-48.3,55.4-79.5,81c-15.9,13-34.5,24.6-57.6,32.5
	c-10.5,3.5-28.3,8.1-35,8.8c-2.8,0.3-4.8,0.2-5.2-0.9c-0.3-0.8,0.5-1.4,3.4-2.8c3.4-1.6,17.5-7.5,26.3-13.6
	c11-7.7,17.3-16,17.8-22.4c-3-10.7-24.6-34.3-2.5-77.8c7.9-15.6,14.8-26.8,19.7-38.1c5.6-13,9.6-31.2,11-44.8
	c0.1-0.8,0.2-0.8,0.7-0.3c10.7,10.9,52.3,53.7,46.3,96.3c13.8-5.3,37.8-21.5,48.9-30.1c11.7-9.1,19.3-18.6,31.7-18.8
	c11.1-0.2,12,5.1,20.9,6.3c2.2,0.3,5.4-0.1,7.1-1c0.7-0.3,0.5-1.1-0.5-1.3c-12-2.8-14.9-12.6-30.5-12.6c-14,0-25.1,12.8-33.1,18.1
	l-39.3-82C127,99.7,132,74.8,168.1,25.8L326,354.8z"/>
<path class="st0" d="M474.6,523.6l-26.8-31.9c14.1-3.2,22.7-11.3,22.7-25.4c0-15.9-13.5-23.9-30.6-23.9h-53.5v81.2h14.2v-30.7h31.8
	l24.5,30.7H474.6z M400.6,455h39.7c9.8,0,15.6,4.6,15.6,12.3c0,7.9-6.1,13-15.6,13h-39.7V455z"/>
<path class="st0" d="M-96.4,442.4l-41.9,81.2h16.1l8.9-18.1h47.7l8.9,18.1h16.4l-41.9-81.2H-96.4z M-107.1,492.9l17.6-35.7
	l17.6,35.7H-107.1z"/>
<path class="st0" d="M34.8,453.1c13.4,0,24.4,5,30,13.9l11.5-7.7c-8-11.2-22.2-19-41.4-19c-31.1,0-49,20.3-49,42.8
	c0,22.4,17.9,42.7,49,42.7c19.3,0,33.4-7.8,41.4-19L64.8,499c-5.6,8.8-16.6,13.9-30,13.9c-20.9,0-34.4-11.7-34.4-29.9
	S13.9,453.1,34.8,453.1"/>
<path class="st0" d="M163.7,453.1c13.3,0,24.4,5,30,13.9l11.5-7.7c-8-11.2-22.2-19-41.4-19c-31.1,0-49,20.3-49,42.8
	c0,22.4,17.9,42.7,49,42.7c19.2,0,33.4-7.8,41.4-19l-11.5-7.7c-5.6,8.8-16.6,13.9-30,13.9c-20.9,0-34.4-11.7-34.4-29.9
	S142.8,453.1,163.7,453.1"/>
<path class="st0" d="M292.6,440.3c-31.1,0-49,20.3-49,42.8c0,22.4,17.9,42.7,49,42.7c31.1,0,49-20.3,49-42.7
	C341.6,460.6,323.8,440.3,292.6,440.3 M292.6,513.1c-20.9,0-34.4-11.8-34.4-30.1c0-18.3,13.5-30.1,34.4-30.1
	c20.9,0,34.4,11.8,34.4,30.1C327.1,501.3,313.6,513.1,292.6,513.1"/>
</svg>
