<?xml version="1.0" encoding="UTF-8"?><svg id="a" xmlns="http://www.w3.org/2000/svg" viewBox="0 0 373.67 447"><path d="m363.45,56.4c-5.07-2.71-11.22-2.41-16,.78-25.7,17.17-65.9,3.01-104.78-10.67-18.12-6.38-35.24-12.41-51.34-15.48-28-5.34-50.12,1.49-65.85,10.43v-24.88c0-8.61-6.98-15.58-15.58-15.58s-15.58,6.98-15.58,15.58v397.25H17.65c-8.61,0-15.58,6.98-15.58,15.58s6.98,15.58,15.58,15.58h189.68c8.61,0,15.58-6.98,15.58-15.58s-6.98-15.58-15.58-15.58h-81.86v-178.43c27.53-23.29,68.66-20.92,128.7,7.28,25.57,12.01,49.76,15.31,68.62,15.31,22.11,0,36.91-4.54,38.02-4.89,6.48-2.05,10.88-8.06,10.88-14.86V70.14c0-5.75-3.17-11.03-8.24-13.74Zm-22.93,169.24c-14.69,2.13-42.57,3.18-73.1-11.16-32.6-15.31-60.27-23.72-84.57-25.7-21.48-1.75-40.67,1.49-57.37,9.62v-118c7.43-7.72,28.04-24.85,60.01-18.75,13.81,2.64,29.85,8.28,46.84,14.26,27.73,9.76,57.79,20.35,85.92,20.35,7.6,0,15.05-.77,22.28-2.54v131.92Z" style="fill:#050033; stroke-width:0px;"/></svg>