<?xml version="1.0" encoding="utf-8"?>
<!-- Generator: Adobe Illustrator 27.8.1, SVG Export Plug-In . SVG Version: 6.00 Build 0)  -->
<svg version="1.1" id="Layer_1" xmlns:serif="http://www.serif.com/"
	 xmlns="http://www.w3.org/2000/svg" xmlns:xlink="http://www.w3.org/1999/xlink" x="0px" y="0px" viewBox="0 0 800 800"
	 style="enable-background:new 0 0 800 800;" xml:space="preserve">
<style type="text/css">
	.st0{fill:#3D4892;}
</style>
<path class="st0" d="M686.9,353.3l-42.1-50c-16.7-19.8-44.2-31.6-73.5-31.6h-64.2L418,123.8l-0.1-0.1c-6.8-10.9-19.8-17.7-34.2-17.7
	h-69.4c-8.1,0-15.5,3.2-20.3,8.9c-4.1,4.8-5.8,10.8-4.9,16.8l21.4,140h-75.4l-37.8-46.6c-7.6-9.4-20.3-15.1-33.8-15.1H117
	c-15.4,0-28,11-28,24.6v154.2c0,15.5,14.6,28.2,32.5,28.2h188.9l-21.3,133.7c-1,6,0.8,12,4.9,16.8c4.8,5.7,12.2,8.9,20.3,8.9h69.4
	c14.4,0,27.5-6.8,34.1-17.7L503.2,417H639l1,0c7.9-0.7,15-1.8,21.6-3.4c15.6-3.6,27.6-13.6,32.1-26.9
	C697.5,375.2,695.1,363,686.9,353.3z M314.4,128h69.4c6.5,0,12.7,2.9,15.4,7.2l82.2,136.4l-148.6-0.1L311.1,129
	C311.5,128.6,312.6,128,314.4,128z M672.8,379.7c-2,5.8-8.1,10.6-16.2,12.4l-0.1,0c-5.5,1.3-11.4,2.3-18,2.9H490.8L399,547.3
	c-2.6,4.2-8.7,7.1-15.3,7.1h-69.4c-1.8,0-2.9-0.6-3.3-1L336.2,395H121.5c-5.9,0-10.5-3.3-10.5-6.2V234.6c0-0.4,2-2.6,6-2.6h46.7
	c6.8,0,13.2,2.7,16.7,6.9l44.4,54.8h275.8l19.9,0l0,0h50.9c22.9,0,44.1,8.9,56.7,23.8l42.1,50C673.3,371.3,674.2,375.5,672.8,379.7z
	"/>
</svg>
