<?xml version="1.0" encoding="utf-8"?>
<!-- Generator: Adobe Illustrator 27.8.1, SVG Export Plug-In . SVG Version: 6.00 Build 0)  -->
<svg version="1.1" id="Layer_1" xmlns="http://www.w3.org/2000/svg" xmlns:xlink="http://www.w3.org/1999/xlink" x="0px" y="0px"
	 viewBox="0 0 800 800" style="enable-background:new 0 0 800 800;" xml:space="preserve">
<style type="text/css">
	.st0{fill:#068484;}
</style>
<path class="st0" d="M733.3,375h-68.2c-0.4,0-0.8,0-1.2,0H136.1c-0.4,0-0.8,0-1.2,0H125V146.2c0-30.1,24.4-54.5,54.5-54.5
	c22.3,0,42.3,13.6,50.6,34.3l4.8,11.9c-19.8,14.4-36,34.6-46,59.1c-14,34.5-13.3,71.6-0.6,103.5l0,0l0,0c2.5,6.3,7.4,11.3,13.7,13.9
	c6.2,2.6,13.3,2.6,19.5-0.1l198.7-85.5c12.4-5.3,18.3-19.6,13.4-32.1c-12.6-32-37.2-59.3-71.1-73.7c-27-11.6-55.7-13.1-82.2-6.4
	l-3.7-9.2c-15.9-39.7-54.3-65.7-97-65.7C121.8,41.7,75,88.5,75,146.2V375h-8.3c-13.8,0-25,11.2-25,25s11.2,25,25,25H75v8.3
	c0,0.1,0,0.1,0,0.2c0,0.8,0,1.6,0,2.6c0,13.7,0,20.6,0.5,28.8c3.7,58.9,29.8,116.2,73.3,161.4c9.5,9.8,19.5,18.9,30.1,27
	c-0.5,0.7-0.9,1.5-1.3,2.2l-33.3,66.7c-6.2,12.3-1.2,27.4,11.2,33.5c3.6,1.8,7.4,2.6,11.2,2.6c9.2,0,18-5.1,22.4-13.8l32.2-64.5
	c27.2,13.7,56.3,22.5,86,25.5c8.1,0.8,13,1,21.8,1.3c26.5,1,50.3,1.5,70.9,1.5c20.5,0,44.4-0.5,71-1.5c8.8-0.3,13.6-0.5,21.7-1.3
	c29.8-3,58.9-11.7,86-25.5l32.2,64.5c4.4,8.8,13.2,13.8,22.4,13.8c3.8,0,7.6-0.9,11.2-2.6c12.3-6.2,17.4-21.2,11.2-33.5l-33.3-66.7
	c-0.4-0.8-0.8-1.5-1.3-2.2c10.6-8.2,20.7-17.2,30.1-27c43.5-45.2,69.5-102.5,73.3-161.4c0.5-8.2,0.5-15.1,0.5-28.8
	c0-3,0-4.7-0.1-6.5c-0.1-1.5-0.3-3-0.5-4.5h8.9c13.8,0,25-11.2,25-25C758.3,386.2,747.1,375,733.3,375z M342.7,168.9
	c13,5.5,23.9,14.2,32.2,24.9l-146,62.9c-1.1-13.5,0.9-27.4,6.3-40.9c8.5-20.9,23.7-36.4,41.7-45.1
	C297.2,160.9,320.8,159.6,342.7,168.9z M667.2,425c4.2,0.3,7.5,3.6,7.8,7.7c0,0.4,0,1.8,0,3.3c0,12.6,0,19-0.4,25.6
	c-6.2,97.2-90,184.3-186.9,194.1c-6.6,0.7-10.3,0.8-18.7,1.1c-25.9,1-49.1,1.5-69,1.5s-43.1-0.5-69.1-1.5c-8.3-0.3-12-0.5-18.6-1.1
	c-96.9-9.8-180.8-96.9-186.9-194.1C125,455,125,448.7,125,436c0-1.5,0-2.9,0-3.3c0.3-4.2,3.6-7.5,7.7-7.8c0.4,0,1.8,0,3.3,0h527.8
	C665.4,425,666.8,425,667.2,425z"/>
</svg>
