<?xml version="1.0" encoding="utf-8"?>
<!-- Generator: Adobe Illustrator 27.8.1, SVG Export Plug-In . SVG Version: 6.00 Build 0)  -->
<svg version="1.1" id="Layer_1" xmlns="http://www.w3.org/2000/svg" xmlns:xlink="http://www.w3.org/1999/xlink" x="0px" y="0px"
	 viewBox="0 0 800 800" style="enable-background:new 0 0 800 800;" xml:space="preserve">
<style type="text/css">
	.st0{fill:#C9A96A;}
</style>
<g id="Group_49" transform="translate(-788.946 -1785.428)">
	<g id="Line_51">
		<path class="st0" d="M1558.2,2511H819.7c-17,0-30.8-13.8-30.8-30.8s13.8-30.8,30.8-30.8h738.5c17,0,30.8,13.8,30.8,30.8
			S1575.2,2511,1558.2,2511z"/>
	</g>
	<path class="st0" d="M1557.5,2191.2c-20.1-47.6-49-90.4-85.7-127.1c-36.7-36.7-79.5-65.6-127.1-85.7c-39.9-16.9-81.8-27-124.9-30.3
		v-57.6c0-17-13.8-30.8-30.8-30.8c-17,0-30.8,13.8-30.8,30.8v57.6c-43.1,3.3-85,13.4-124.9,30.3c-47.6,20.1-90.4,49-127.1,85.7
		c-36.7,36.7-65.6,79.5-85.7,127.1c-20.9,49.3-31.4,101.7-31.4,155.7c0,17,13.8,30.8,30.8,30.8h738.5c17,0,30.8-13.8,30.8-30.8
		C1588.9,2292.9,1578.4,2240.5,1557.5,2191.2z M851.9,2316.2c15.6-172.3,160.8-307.7,337.1-307.7s321.5,135.4,337.1,307.7H851.9z"/>
</g>
</svg>
