<?xml version="1.0" encoding="utf-8"?>
<!-- Generator: Adobe Illustrator 27.8.1, SVG Export Plug-In . SVG Version: 6.00 Build 0)  -->
<svg version="1.1" id="Layer_1" xmlns="http://www.w3.org/2000/svg" xmlns:xlink="http://www.w3.org/1999/xlink" x="0px" y="0px"
	 viewBox="0 0 800 800" style="enable-background:new 0 0 800 800;" xml:space="preserve">
<style type="text/css">
	.st0{fill:#C9A96A;}
</style>
<g>
	<path class="st0" d="M754.4,286.9c-4.6-34-14.7-57.3-32.7-75.3c-18.1-18.1-41.3-28.2-75.3-32.7c-28.9-3.9-64.2-3.9-113.1-3.9h-93.3
		L519,82.9c9-10.5,7.8-26.3-2.7-35.3c-10.5-9-26.3-7.8-35.3,2.7l-81,94.5l-81-94.5c-9-10.5-24.8-11.7-35.3-2.7
		c-10.5,9-11.7,24.8-2.7,35.3l78.9,92.1h-93.3c-48.9,0-84.2,0-113.1,3.9c-34,4.6-57.3,14.7-75.3,32.7
		c-18.1,18.1-28.2,41.3-32.7,75.3c-3.9,28.9-3.9,64.2-3.9,113.1v133.3c0,48.9,0,84.2,3.9,113.1c4.6,34,14.7,57.3,32.7,75.3
		c18.1,18.1,41.3,28.2,75.3,32.7c28.9,3.9,64.2,3.9,113.1,3.9h266.7c48.9,0,84.2,0,113.1-3.9c34-4.6,57.3-14.7,75.3-32.7
		s28.2-41.3,32.7-75.3c3.9-28.9,3.9-64.2,3.9-113.1V400C758.3,351.1,758.3,315.8,754.4,286.9z M113.6,686.4c-22-22-22-65.8-22-153
		V400c0-87.3,0-131.1,22-153s65.8-22,153-22h241.7v483.3H266.7C179.4,708.3,135.6,708.3,113.6,686.4z M708.3,533.3
		c0,87.3,0,131.1-22,153c-19.8,19.8-57.2,21.7-128,21.9V225c70.8,0.2,108.3,2.2,128,21.9c22,22,22,65.8,22,153V533.3z"/>
	<circle class="st0" cx="633.3" cy="533.3" r="33.3"/>
	<circle class="st0" cx="633.3" cy="400" r="33.3"/>
</g>
</svg>
