<?xml version="1.0" encoding="utf-8"?>
<!-- Generator: Adobe Illustrator 27.8.1, SVG Export Plug-In . SVG Version: 6.00 Build 0)  -->
<svg version="1.1" id="Layer_1" xmlns="http://www.w3.org/2000/svg" xmlns:xlink="http://www.w3.org/1999/xlink" x="0px" y="0px"
	 viewBox="0 0 800 800" style="enable-background:new 0 0 800 800;" xml:space="preserve">
<style type="text/css">
	.st0{fill:#068484;}
</style>
<g id="System__x2F__Wifi_x5F_High">
	<g id="Vector">
		<path class="st0" d="M400,666.7c-36.8,0-66.7-29.9-66.7-66.7s29.9-66.7,66.7-66.7s66.7,29.9,66.7,66.7S436.8,666.7,400,666.7z
			 M400,600L400,600L400,600z M278.1,519.7c-8.1,0-16.3-3-22.7-9c-13.5-12.6-14.2-33.6-1.6-47.1c18.7-20.1,41-35.9,66.2-46.9
			s51.9-16.6,79.4-16.7c0.2,0,0.5,0,0.7,0c27.2,0,53.7,5.4,78.8,16.2c25.3,10.8,47.7,26.4,66.5,46.4c12.6,13.4,12.1,34.5-1.3,47.1
			c-13.4,12.6-34.5,12.1-47.1-1.3c-12.6-13.3-27.5-23.7-44.4-30.9c-16.7-7.2-34.4-10.8-52.5-10.8c-0.2,0-0.3,0-0.5,0
			c-18.3,0.1-36.2,3.8-52.9,11.1c-16.8,7.3-31.6,17.8-44.1,31.2C295.9,516.1,287,519.7,278.1,519.7z M205,418.1
			c-8.1,0-16.3-3-22.7-9c-13.5-12.6-14.2-33.6-1.6-47.1c28.1-30.1,61.5-53.8,99.3-70.3s77.8-24.9,119.1-25.1
			c41.2-0.2,81.3,8,119.2,24.3c37.9,16.2,71.5,39.7,99.8,69.6c12.6,13.4,12.1,34.5-1.3,47.1c-13.4,12.7-34.5,12.1-47.1-1.3
			c-22-23.3-48.1-41.5-77.6-54.1c-29.2-12.5-60.1-18.9-91.9-18.9c-0.3,0-0.6,0-0.8,0c-32.1,0.1-63.2,6.7-92.6,19.5
			s-55.4,31.2-77.2,54.7C222.8,414.6,213.9,418.1,205,418.1z M107.4,327.2c-8.1,0-16.3-3-22.7-9c-13.5-12.6-14.2-33.6-1.6-47.1
			c40.6-43.5,88.9-77.7,143.4-101.6c54.6-23.8,112.4-36,171.9-36.3c0.5,0,1,0,1.6,0c59,0,116.4,11.8,170.7,35
			c54.7,23.5,103.2,57.3,144.2,100.6c12.6,13.4,12.1,34.5-1.3,47.1c-13.4,12.6-34.5,12.1-47.1-1.3c-34.6-36.6-75.7-65.3-122-85.1
			c-46.3-19.9-95.3-29.8-145.8-29.7c-50.4,0.2-99.3,10.5-145.5,30.7s-87,49.1-121.4,85.9C125.3,323.7,116.4,327.2,107.4,327.2z"/>
	</g>
</g>
</svg>
