<?xml version="1.0" encoding="utf-8"?>
<!-- Generator: Adobe Illustrator 27.8.1, SVG Export Plug-In . SVG Version: 6.00 Build 0)  -->
<svg version="1.1" id="Layer_1" xmlns="http://www.w3.org/2000/svg" xmlns:xlink="http://www.w3.org/1999/xlink" x="0px" y="0px"
	 viewBox="0 0 800 800" style="enable-background:new 0 0 800 800;" xml:space="preserve">
<style type="text/css">
	.st0{fill:#068484;}
</style>
<path class="st0" d="M751.4,431.6c-5.8-14.1-14.9-26.3-26.4-35.7c0-62.7-0.1-108.4-5.1-145.5c-5.8-43.5-18.6-73-41.3-95.7
	s-52.2-35.4-95.7-41.3c-38-5.1-84.8-5.1-149.6-5.1h-66.7c-64.8,0-111.7,0-149.6,5.1c-43.5,5.8-73,18.6-95.7,41.3
	S85.9,206.9,80,250.4c-5,37.2-5.1,82.8-5.1,145.5c-11.5,9.4-20.5,21.6-26.4,35.7c-7,16.8-7,35.2-7,68.4s0,51.6,7,68.4
	c9.4,22.6,27,40.2,49.6,49.6c12.1,5,24.9,6.4,43.4,6.8v41.8c0,13.8,11.2,25,25,25s25-11.2,25-25V625h416.7v41.7
	c0,13.8,11.2,25,25,25s25-11.2,25-25v-41.8c18.5-0.4,31.3-1.8,43.4-6.8c22.6-9.4,40.2-27,49.6-49.6c7-16.8,7-35.2,7-68.4
	C758.3,466.8,758.3,448.4,751.4,431.6z M366.7,158.3h66.7c118.7,0,178.2,0,209.9,31.7c29.5,29.5,31.6,83.1,31.7,185.9
	c-9.3-0.8-20-1-33.3-1v-25c0-67.5,0-104.6-26.8-131.5s-64-26.8-131.5-26.8H316.7c-67.5,0-104.6,0-131.5,26.8
	c-26.8,26.8-26.8,64-26.8,131.5v25c-13.3,0-24.1,0.2-33.3,1c0.1-102.8,2.2-156.4,31.7-185.9C188.5,158.3,248,158.3,366.7,158.3z
	 M208.3,375v-25c0-58.2,0.5-84.4,12.2-96.1c11.7-11.7,37.9-12.2,96.1-12.2H375V375H208.3z M425,241.7h58.3
	c58.2,0,84.4,0.5,96.1,12.2c11.7,11.7,12.2,37.9,12.2,96.1v25H425V241.7z M705.2,549.3c-4.3,10.3-12.3,18.3-22.5,22.5
	c-7.7,3.2-22.4,3.2-49.3,3.2H166.7c-26.8,0-41.6,0-49.3-3.2c-10.3-4.3-18.3-12.3-22.5-22.5c-3.2-7.7-3.2-22.4-3.2-49.3
	c0-26.8,0-41.6,3.2-49.3c4.3-10.3,12.3-18.3,22.5-22.6c7.7-3.2,22.4-3.2,49.3-3.2h466.7c26.8,0,41.6,0,49.3,3.2
	c10.3,4.3,18.3,12.3,22.5,22.5c3.2,7.7,3.2,22.4,3.2,49.3C708.3,526.8,708.3,541.6,705.2,549.3z"/>
</svg>
