<?xml version="1.0" encoding="utf-8"?>
<!-- Generator: Adobe Illustrator 27.8.1, SVG Export Plug-In . SVG Version: 6.00 Build 0)  -->
<svg version="1.1" id="a" xmlns="http://www.w3.org/2000/svg" xmlns:xlink="http://www.w3.org/1999/xlink" x="0px" y="0px"
	 viewBox="0 0 822.7 414.6" style="enable-background:new 0 0 822.7 414.6;" xml:space="preserve">
<style type="text/css">
	.st0{fill:#050033;}
</style>
<path class="st0" d="M821,288.9l-8.6-32.6C794.6,189,733.4,142,663.8,142h-48.4l-85.8-95.3C502.9,17,463.3,0,420.9,0H269.8
	C218.2,0,171,25.4,146.6,66.2L101.4,142H0v105.8c0,18.1,4.9,36,14.2,51.6c17.8,29.9,50.3,48.5,85,49c9,37.9,43.2,66.2,83.8,66.2
	s74.8-28.3,83.8-66.2H554c9,37.9,43.2,66.2,83.8,66.2s74.8-28.3,83.8-66.2h53.6c14.8,0,28.5-6.7,37.5-18.5S824.9,303.3,821,288.9
	L821,288.9z M499.9,73.4l61.7,68.6H373.9V40h47C451.5,40,481,52.5,499.9,73.4L499.9,73.4z M180.9,86.8C198.2,57.9,232.2,40,269.8,40
	h64v102H147.9L180.9,86.8L180.9,86.8z M183,374.7c-25.5,0-46.2-20.7-46.2-46.2s20.7-46.2,46.2-46.2s46.2,20.7,46.2,46.2
	S208.5,374.7,183,374.7z M637.8,374.7c-25.5,0-46.2-20.7-46.2-46.2s20.7-46.2,46.2-46.2S684,303,684,328.5S663.3,374.7,637.8,374.7z
	 M781.1,305.6c-0.8,1.1-2.7,2.9-5.8,2.9h-53.6c-9-37.9-43.2-66.2-83.8-66.2S563,270.6,554,308.5H266.8c-9-37.9-43.2-66.2-83.8-66.2
	s-74.8,28.3-83.8,66.2c-20.7-0.5-40-11.7-50.6-29.5c-5.6-9.4-8.6-20.1-8.6-31.1V182h623.8c51.5,0,96.8,34.8,110,84.6l8.6,32.6
	C783.2,302.2,781.9,304.5,781.1,305.6L781.1,305.6z"/>
</svg>
