<?xml version="1.0" encoding="UTF-8"?><svg id="a" xmlns="http://www.w3.org/2000/svg" viewBox="0 0 822.66 414.65"><path d="m821.05,288.94l-8.64-32.58c-17.85-67.33-78.97-114.36-148.63-114.36h-48.43l-85.76-95.34C502.93,17.01,463.3,0,420.88,0h-151.06c-51.58,0-98.79,25.38-123.2,66.25l-45.26,75.75H0v105.83c0,18.14,4.91,35.97,14.21,51.55,17.81,29.85,50.26,48.54,84.96,49.05,9.04,37.92,43.18,66.22,83.83,66.22s74.78-28.28,83.83-66.19h287.16c9.05,37.91,43.18,66.19,83.83,66.19s74.78-28.28,83.83-66.19h53.63c14.82,0,28.51-6.74,37.55-18.49,9.04-11.75,12.04-26.7,8.25-41.03ZM499.86,73.41l61.7,68.59h-187.7V40h47.02c30.64,0,60.17,12.49,78.99,33.41Zm-318.91,13.36c17.23-28.84,51.28-46.76,88.86-46.76h64.04v102h-185.91l33-55.24Zm2.04,287.88c-25.47,0-46.19-20.72-46.19-46.19s20.72-46.19,46.19-46.19,46.19,20.72,46.19,46.19-20.72,46.19-46.19,46.19Zm454.81,0c-25.47,0-46.19-20.72-46.19-46.19s20.72-46.19,46.19-46.19,46.19,20.72,46.19,46.19-20.72,46.19-46.19,46.19Zm143.3-69.07c-.83,1.07-2.69,2.88-5.84,2.88h-53.63c-9.05-37.91-43.19-66.19-83.83-66.19s-74.78,28.28-83.83,66.19h-287.16c-9.05-37.91-43.18-66.19-83.83-66.19s-74.77,28.27-83.82,66.17c-20.69-.5-39.99-11.72-50.62-29.54-5.6-9.39-8.56-20.12-8.56-31.06v-65.83h623.79c51.54,0,96.76,34.79,109.96,84.61l8.64,32.58c.81,3.05-.46,5.31-1.28,6.39Z" style="fill:#3c4993; stroke-width:0px;"/></svg>