<?xml version="1.0" encoding="utf-8"?>
<!-- Generator: Adobe Illustrator 27.8.1, SVG Export Plug-In . SVG Version: 6.00 Build 0)  -->
<svg version="1.1" id="Layer_1" xmlns="http://www.w3.org/2000/svg" xmlns:xlink="http://www.w3.org/1999/xlink" x="0px" y="0px"
	 viewBox="0 0 640 512" style="enable-background:new 0 0 640 512;" xml:space="preserve">
<style type="text/css">
	.st0{fill:#068484;}
</style>
<path class="st0" d="M171.3,96H224v96H111.3l30.4-75.9C146.5,104,158.2,96,171.3,96z M272,192V96h81.2c9.7,0,18.9,4.4,25,12l67.2,84
	H272z M528.2,193l-100-125c-18.2-22.8-45.8-36-75-36H171.3C132,32,96.7,55.9,82.2,92.3L40.6,196.4C16.8,205.8,0,228.9,0,256v112
	c0,17.7,14.3,32,32,32h33.3c7.6,45.4,47.1,80,94.7,80s87.1-34.6,94.7-80h130.6c7.6,45.4,47.1,80,94.7,80s87.1-34.6,94.7-80H608
	c17.7,0,32-14.3,32-32v-48C640,254.8,591.2,201,528.2,193z M434.7,368c8.5-25.1,35.7-38.6,60.8-30.1s38.6,35.7,30.1,60.8
	c-0.1,0.4-0.3,0.8-0.4,1.2c-8.5,25.1-35.7,38.6-60.8,30.1c-25.1-8.5-38.6-35.7-30.1-60.8C434.4,368.8,434.5,368.4,434.7,368z
	 M160,336c26.5,0,48,21.5,48,48s-21.5,48-48,48s-48-21.5-48-48S133.5,336,160,336z"/>
</svg>
