<?xml version="1.0" encoding="utf-8"?>
<!-- Generator: Adobe Illustrator 27.8.1, SVG Export Plug-In . SVG Version: 6.00 Build 0)  -->
<svg version="1.1" id="Layer_1" xmlns="http://www.w3.org/2000/svg" xmlns:xlink="http://www.w3.org/1999/xlink" x="0px" y="0px"
	 viewBox="0 0 800 800" style="enable-background:new 0 0 800 800;" xml:space="preserve">
<style type="text/css">
	.st0{fill:#068484;}
</style>
<g>
	<path class="st0" d="M400.7,708.6c-17,0-34.1-5.7-48-17.1l-25-20.5c-6.3-5.2-14.4-8-22.7-8l-0.2,0h-44.5
		c-17.1,0.1-33.8-5.8-47.2-16.4c-13.4-10.6-22.9-25.7-26.7-42.3l-8.1-34.4c-1.9-9-7.1-16.9-14.6-22.1l-0.1-0.1L136.7,529
		c-28.7-19.6-40.5-55.9-28.5-88.4l12.5-34.2c3-8.1,3-16.9,0-24.8l-11.2-30c-5.9-16.1-6.2-33.9-0.8-50.1
		c5.4-16.2,16.2-30.3,30.6-39.6l29.7-19.1c7.4-4.7,12.7-12,15.1-20.5l8.8-31.5c9.7-35.1,43.2-58.3,79.6-55.1l27.9,2.4
		c9.4,0.7,18.5-2.2,25.6-8l0.1-0.1l26.5-21.4c27.9-22.8,68.3-22.8,96.2,0l0.2,0.2l23.1,19.4c7.2,5.9,16.3,8.7,25.6,8l0.2,0l29.4-2.1
		c16.9-1.2,33.9,3.5,47.9,13.1c13.9,9.6,24.3,23.7,29.4,39.8l12.5,37.5c2.4,7.4,7.4,14,14,18.4l31.6,21.2
		c14.4,9.6,25.1,24.1,30.2,40.6c5.1,16.5,4.4,34.4-2,50.5l-0.1,0.2l-12.5,30.3c-3.5,8.6-3.5,18.1,0,26.8l12.5,29.7
		c13.2,32.7,2.5,69.7-26,90.2l-28.2,20.6c-6.5,4.6-11.3,11.4-13.5,19.2L613,607.6c-9.3,32.7-39.4,55.1-73,55.1
		c-2.1,0-4.2-0.1-6.3-0.3l-30.4-2.5c-9.2-0.8-18.2,2.1-25.5,8l-0.1,0.1l-29.2,23.6C434.7,703,417.7,708.6,400.7,708.6z M305.3,623.1
		c17.4,0,34.3,6,47.8,17l25,20.5c13.1,10.7,32.1,10.7,45.3,0l29.2-23.6c15.3-12.6,34.5-18.6,54.1-16.9l30.4,2.5
		c17.1,1.4,32.9-9.5,37.5-25.9l10.1-35.5c4.6-16.4,14.8-30.9,28.7-40.8l28.1-20.6c13.5-9.6,18.5-27.1,12.3-42.6l-12.6-29.8
		c-7.3-18.4-7.3-38.5,0-56.8l0.1-0.1l12.5-30.3c6.1-15.6,0.5-33.7-13.4-43l-31.6-21.2c-14-9.4-24.6-23.4-29.8-39.3l-12.6-37.8
		c-4.9-15.9-19.8-26.2-36.3-25l-29.3,2.1c-19.7,1.6-38.9-4.4-54.2-17l-0.2-0.1l-23.1-19.4c-13.2-10.8-32.3-10.7-45.4,0.1l-0.1,0.1
		l-26.5,21.4c-15.2,12.4-34.4,18.5-54.1,17l-0.2,0l-28-2.4c-17.2-1.5-33,9.5-37.6,26l-8.8,31.5c-5,17.9-16.4,33.3-31.9,43.3
		L161,295.4c-14,9.1-19.8,26.5-14,42.3l11.2,29.9c6.3,16.9,6.3,35.5,0,52.5l-12.5,34.2c-5.6,15.3-0.1,32.5,13.5,41.7l0.2,0.2
		l26.9,18.8c16,11,27,27.6,31,46.6l8,33.9c3.7,16.1,18.3,27.7,34.7,27.7c0,0,0.1,0,0.1,0h44.5C305,623.1,305.2,623.1,305.3,623.1z"
		/>
</g>
<g>
	<path class="st0" d="M330.5,368.1c-37,0-67.1-30.1-67.1-67.1s30.1-67.1,67.1-67.1s67.1,30.1,67.1,67.1S367.5,368.1,330.5,368.1z
		 M330.5,273.9c-14.9,0-27.1,12.2-27.1,27.1c0,14.9,12.2,27.1,27.1,27.1s27.1-12.2,27.1-27.1C357.6,286.1,345.4,273.9,330.5,273.9z"
		/>
</g>
<g>
	<path class="st0" d="M474.2,566.1c-37,0-67.1-30.1-67.1-67.1s30.1-67.1,67.1-67.1s67.1,30.1,67.1,67.1S511.2,566.1,474.2,566.1z
		 M474.2,471.9c-14.9,0-27.1,12.2-27.1,27.1c0,14.9,12.2,27.1,27.1,27.1c14.9,0,27.1-12.2,27.1-27.1
		C501.3,484.1,489.1,471.9,474.2,471.9z"/>
</g>
<g>
	
		<rect x="221.6" y="381.6" transform="matrix(0.707 -0.7072 0.7072 0.707 -167.6229 398.6316)" class="st0" width="351.2" height="40"/>
</g>
</svg>
