<?xml version="1.0" encoding="utf-8"?>
<!-- Generator: Adobe Illustrator 27.8.1, SVG Export Plug-In . SVG Version: 6.00 Build 0)  -->
<svg version="1.1" id="Layer_1" xmlns="http://www.w3.org/2000/svg" xmlns:xlink="http://www.w3.org/1999/xlink" x="0px" y="0px"
	 viewBox="0 0 800 800" style="enable-background:new 0 0 800 800;" xml:space="preserve">
<style type="text/css">
	.st0{fill:none;stroke:#C9A96A;stroke-width:40;stroke-miterlimit:50;}
</style>
<path class="st0" d="M585.5,192.9l12.5,37.5c3.8,11.8,11.6,22,21.9,28.9l31.6,21.2c21.9,14.7,30.5,42.7,20.8,67.1L659.8,378
	c-5.4,13.4-5.4,28.4,0,41.9l12.5,29.6c9.7,24,1.8,51.5-19.2,66.5l-28,20.5c-10.3,7.3-17.8,18-21.2,30.1l-10.1,35.5
	c-7.3,25.7-31.8,42.6-58.4,40.4l-30.4-2.5c-14.4-1.2-28.6,3.3-39.8,12.5l-29.2,23.6c-20.6,16.8-50.1,16.8-70.6,0l-25-20.5
	c-10-8.2-22.6-12.6-35.5-12.5h-44.5c-26,0.1-48.6-17.9-54.4-43.2l-8-34c-2.9-14-11.1-26.4-22.9-34.5l-27-18.9
	c-21.1-14.3-29.9-41.1-21.1-65.1l12.5-34.2c4.6-12.5,4.6-26.2,0-38.6l-11.2-30c-9-24.4,0.1-51.8,21.9-66l29.6-19.1
	c11.5-7.4,19.8-18.7,23.5-31.9l8.8-31.5c7.2-25.9,31.9-42.9,58.6-40.6l28,2.4c14.4,1.1,28.7-3.3,39.9-12.5l26.6-21.5
	c20.6-16.9,50.3-16.9,70.9,0l23.2,19.5c11.2,9.2,25.5,13.7,40,12.5l29.4-2.1C554.3,152,577.9,168.2,585.5,192.9z"/>
<circle class="st0" cx="330.5" cy="301" r="47.1"/>
<circle class="st0" cx="474.2" cy="499" r="47.1"/>
<line class="st0" x1="521.4" y1="277.4" x2="273.1" y2="525.8"/>
</svg>
