<?xml version="1.0" encoding="utf-8"?>
<!-- Generator: Adobe Illustrator 26.3.0, SVG Export Plug-In . SVG Version: 6.00 Build 0)  -->
<svg version="1.1" id="Layer_1" xmlns="http://www.w3.org/2000/svg" xmlns:xlink="http://www.w3.org/1999/xlink" x="0px" y="0px"
	 viewBox="0 0 693 213" style="enable-background:new 0 0 693 213;" xml:space="preserve">
<style type="text/css">
	.st0{fill:#7D6A4C;fill-opacity:0.7;}
	.st1{fill:none;}
</style>
<g>
	<ellipse class="st0" cx="1.1" cy="1" rx="1.1" ry="1"/>
	<ellipse class="st0" cx="16.1" cy="1" rx="1.1" ry="1"/>
	<ellipse class="st0" cx="30" cy="1" rx="1.1" ry="1"/>
	<ellipse class="st0" cx="45" cy="1" rx="1.1" ry="1"/>
	<ellipse class="st0" cx="60" cy="1" rx="1.1" ry="1"/>
	<ellipse class="st0" cx="73.9" cy="1" rx="1.1" ry="1"/>
	<ellipse class="st0" cx="88.9" cy="1" rx="1.1" ry="1"/>
	<ellipse class="st0" cx="103.9" cy="1" rx="1.1" ry="1"/>
	<ellipse class="st0" cx="118.9" cy="1" rx="1.1" ry="1"/>
	<ellipse class="st0" cx="132.8" cy="1" rx="1.1" ry="1"/>
	<ellipse class="st0" cx="147.8" cy="1" rx="1.1" ry="1"/>
	<ellipse class="st0" cx="162.8" cy="1" rx="1.1" ry="1"/>
	<ellipse class="st0" cx="177.8" cy="1" rx="1.1" ry="1"/>
	<ellipse class="st0" cx="191.7" cy="1" rx="1.1" ry="1"/>
	<ellipse class="st0" cx="206.7" cy="1" rx="1.1" ry="1"/>
	<ellipse class="st0" cx="221.7" cy="1" rx="1.1" ry="1"/>
	<ellipse class="st0" cx="236.7" cy="1" rx="1.1" ry="1"/>
	<ellipse class="st0" cx="250.6" cy="1" rx="1.1" ry="1"/>
	<ellipse class="st0" cx="265.6" cy="1" rx="1.1" ry="1"/>
	<ellipse class="st0" cx="280.6" cy="1" rx="1.1" ry="1"/>
	<ellipse class="st0" cx="294.5" cy="1" rx="1.1" ry="1"/>
	<ellipse class="st0" cx="309.5" cy="1" rx="1.1" ry="1"/>
	<ellipse class="st0" cx="324.5" cy="1" rx="1.1" ry="1"/>
	<ellipse class="st0" cx="339.5" cy="1" rx="1.1" ry="1"/>
	<ellipse class="st0" cx="1.1" cy="15.4" rx="1.1" ry="1"/>
	<ellipse class="st0" cx="16.1" cy="15.4" rx="1.1" ry="1"/>
	<ellipse class="st0" cx="30" cy="15.4" rx="1.1" ry="1"/>
	<ellipse class="st0" cx="45" cy="15.4" rx="1.1" ry="1"/>
	<ellipse class="st0" cx="60" cy="15.4" rx="1.1" ry="1"/>
	<ellipse class="st0" cx="73.9" cy="15.4" rx="1.1" ry="1"/>
	<ellipse class="st0" cx="88.9" cy="15.4" rx="1.1" ry="1"/>
	<ellipse class="st0" cx="103.9" cy="15.4" rx="1.1" ry="1"/>
	<ellipse class="st0" cx="118.9" cy="15.4" rx="1.1" ry="1"/>
	<ellipse class="st0" cx="132.8" cy="15.4" rx="1.1" ry="1"/>
	<ellipse class="st0" cx="147.8" cy="15.4" rx="1.1" ry="1"/>
	<ellipse class="st0" cx="162.8" cy="15.4" rx="1.1" ry="1"/>
	<ellipse class="st0" cx="177.8" cy="15.4" rx="1.1" ry="1"/>
	<ellipse class="st0" cx="191.7" cy="15.4" rx="1.1" ry="1"/>
	<ellipse class="st0" cx="206.7" cy="15.4" rx="1.1" ry="1"/>
	<ellipse class="st0" cx="221.7" cy="15.4" rx="1.1" ry="1"/>
	<ellipse class="st0" cx="236.7" cy="15.4" rx="1.1" ry="1"/>
	<ellipse class="st0" cx="250.6" cy="15.4" rx="1.1" ry="1"/>
	<ellipse class="st0" cx="265.6" cy="15.4" rx="1.1" ry="1"/>
	<ellipse class="st0" cx="280.6" cy="15.4" rx="1.1" ry="1"/>
	<ellipse class="st0" cx="294.5" cy="15.4" rx="1.1" ry="1"/>
	<ellipse class="st0" cx="309.5" cy="15.4" rx="1.1" ry="1"/>
	<ellipse class="st0" cx="324.5" cy="15.4" rx="1.1" ry="1"/>
	<ellipse class="st0" cx="339.5" cy="15.4" rx="1.1" ry="1"/>
	<ellipse class="st0" cx="1.1" cy="28.7" rx="1.1" ry="1"/>
	<ellipse class="st0" cx="16.1" cy="28.7" rx="1.1" ry="1"/>
	<ellipse class="st0" cx="30" cy="28.7" rx="1.1" ry="1"/>
	<ellipse class="st0" cx="45" cy="28.7" rx="1.1" ry="1"/>
	<ellipse class="st0" cx="60" cy="28.7" rx="1.1" ry="1"/>
	<ellipse class="st0" cx="73.9" cy="28.7" rx="1.1" ry="1"/>
	<ellipse class="st0" cx="88.9" cy="28.7" rx="1.1" ry="1"/>
	<ellipse class="st0" cx="103.9" cy="28.7" rx="1.1" ry="1"/>
	<ellipse class="st0" cx="118.9" cy="28.7" rx="1.1" ry="1"/>
	<ellipse class="st0" cx="132.8" cy="28.7" rx="1.1" ry="1"/>
	<ellipse class="st0" cx="147.8" cy="28.7" rx="1.1" ry="1"/>
	<ellipse class="st0" cx="162.8" cy="28.7" rx="1.1" ry="1"/>
	<ellipse class="st0" cx="177.8" cy="28.7" rx="1.1" ry="1"/>
	<ellipse class="st0" cx="191.7" cy="28.7" rx="1.1" ry="1"/>
	<ellipse class="st0" cx="206.7" cy="28.7" rx="1.1" ry="1"/>
	<ellipse class="st0" cx="221.7" cy="28.7" rx="1.1" ry="1"/>
	<ellipse class="st0" cx="236.7" cy="28.7" rx="1.1" ry="1"/>
	<ellipse class="st0" cx="250.6" cy="28.7" rx="1.1" ry="1"/>
	<ellipse class="st0" cx="265.6" cy="28.7" rx="1.1" ry="1"/>
	<ellipse class="st0" cx="280.6" cy="28.7" rx="1.1" ry="1"/>
	<ellipse class="st0" cx="294.5" cy="28.7" rx="1.1" ry="1"/>
	<ellipse class="st0" cx="309.5" cy="28.7" rx="1.1" ry="1"/>
	<ellipse class="st0" cx="324.5" cy="28.7" rx="1.1" ry="1"/>
	<ellipse class="st0" cx="339.5" cy="28.7" rx="1.1" ry="1"/>
	<ellipse class="st0" cx="1.1" cy="43" rx="1.1" ry="1"/>
	<ellipse class="st0" cx="16.1" cy="43" rx="1.1" ry="1"/>
	<ellipse class="st0" cx="30" cy="43" rx="1.1" ry="1"/>
	<ellipse class="st0" cx="45" cy="43" rx="1.1" ry="1"/>
	<ellipse class="st0" cx="60" cy="43" rx="1.1" ry="1"/>
	<ellipse class="st0" cx="73.9" cy="43" rx="1.1" ry="1"/>
	<ellipse class="st0" cx="88.9" cy="43" rx="1.1" ry="1"/>
	<ellipse class="st0" cx="103.9" cy="43" rx="1.1" ry="1"/>
	<ellipse class="st0" cx="118.9" cy="43" rx="1.1" ry="1"/>
	<ellipse class="st0" cx="132.8" cy="43" rx="1.1" ry="1"/>
	<ellipse class="st0" cx="147.8" cy="43" rx="1.1" ry="1"/>
	<ellipse class="st0" cx="162.8" cy="43" rx="1.1" ry="1"/>
	<ellipse class="st0" cx="177.8" cy="43" rx="1.1" ry="1"/>
	<ellipse class="st0" cx="191.7" cy="43" rx="1.1" ry="1"/>
	<ellipse class="st0" cx="206.7" cy="43" rx="1.1" ry="1"/>
	<ellipse class="st0" cx="221.7" cy="43" rx="1.1" ry="1"/>
	<ellipse class="st0" cx="236.7" cy="43" rx="1.1" ry="1"/>
	<ellipse class="st0" cx="250.6" cy="43" rx="1.1" ry="1"/>
	<ellipse class="st0" cx="265.6" cy="43" rx="1.1" ry="1"/>
	<ellipse class="st0" cx="280.6" cy="43" rx="1.1" ry="1"/>
	<ellipse class="st0" cx="294.5" cy="43" rx="1.1" ry="1"/>
	<ellipse class="st0" cx="309.5" cy="43" rx="1.1" ry="1"/>
	<ellipse class="st0" cx="324.5" cy="43" rx="1.1" ry="1"/>
	<ellipse class="st0" cx="339.5" cy="43" rx="1.1" ry="1"/>
	<ellipse class="st0" cx="1.1" cy="57.3" rx="1.1" ry="1"/>
	<ellipse class="st0" cx="16.1" cy="57.3" rx="1.1" ry="1"/>
	<ellipse class="st0" cx="30" cy="57.3" rx="1.1" ry="1"/>
	<ellipse class="st0" cx="45" cy="57.3" rx="1.1" ry="1"/>
	<ellipse class="st0" cx="60" cy="57.3" rx="1.1" ry="1"/>
	<ellipse class="st0" cx="73.9" cy="57.3" rx="1.1" ry="1"/>
	<ellipse class="st0" cx="88.9" cy="57.3" rx="1.1" ry="1"/>
	<ellipse class="st0" cx="103.9" cy="57.3" rx="1.1" ry="1"/>
	<ellipse class="st0" cx="118.9" cy="57.3" rx="1.1" ry="1"/>
	<ellipse class="st0" cx="132.8" cy="57.3" rx="1.1" ry="1"/>
	<ellipse class="st0" cx="147.8" cy="57.3" rx="1.1" ry="1"/>
	<ellipse class="st0" cx="162.8" cy="57.3" rx="1.1" ry="1"/>
	<ellipse class="st0" cx="177.8" cy="57.3" rx="1.1" ry="1"/>
	<ellipse class="st0" cx="191.7" cy="57.3" rx="1.1" ry="1"/>
	<ellipse class="st0" cx="206.7" cy="57.3" rx="1.1" ry="1"/>
	<ellipse class="st0" cx="221.7" cy="57.3" rx="1.1" ry="1"/>
	<ellipse class="st0" cx="236.7" cy="57.3" rx="1.1" ry="1"/>
	<ellipse class="st0" cx="250.6" cy="57.3" rx="1.1" ry="1"/>
	<ellipse class="st0" cx="265.6" cy="57.3" rx="1.1" ry="1"/>
	<ellipse class="st0" cx="280.6" cy="57.3" rx="1.1" ry="1"/>
	<ellipse class="st0" cx="294.5" cy="57.3" rx="1.1" ry="1"/>
	<ellipse class="st0" cx="309.5" cy="57.3" rx="1.1" ry="1"/>
	<ellipse class="st0" cx="324.5" cy="57.3" rx="1.1" ry="1"/>
	<ellipse class="st0" cx="339.5" cy="57.3" rx="1.1" ry="1"/>
	<ellipse class="st0" cx="1.1" cy="71.7" rx="1.1" ry="1"/>
	<ellipse class="st0" cx="16.1" cy="71.7" rx="1.1" ry="1"/>
	<ellipse class="st0" cx="30" cy="71.7" rx="1.1" ry="1"/>
	<ellipse class="st0" cx="45" cy="71.7" rx="1.1" ry="1"/>
	<ellipse class="st0" cx="60" cy="71.7" rx="1.1" ry="1"/>
	<ellipse class="st0" cx="73.9" cy="71.7" rx="1.1" ry="1"/>
	<ellipse class="st0" cx="88.9" cy="71.7" rx="1.1" ry="1"/>
	<ellipse class="st0" cx="103.9" cy="71.7" rx="1.1" ry="1"/>
	<ellipse class="st0" cx="118.9" cy="71.7" rx="1.1" ry="1"/>
	<ellipse class="st0" cx="132.8" cy="71.7" rx="1.1" ry="1"/>
	<ellipse class="st0" cx="147.8" cy="71.7" rx="1.1" ry="1"/>
	<ellipse class="st0" cx="162.8" cy="71.7" rx="1.1" ry="1"/>
	<ellipse class="st0" cx="177.8" cy="71.7" rx="1.1" ry="1"/>
	<ellipse class="st0" cx="191.7" cy="71.7" rx="1.1" ry="1"/>
	<ellipse class="st0" cx="206.7" cy="71.7" rx="1.1" ry="1"/>
	<ellipse class="st0" cx="221.7" cy="71.7" rx="1.1" ry="1"/>
	<ellipse class="st0" cx="236.7" cy="71.7" rx="1.1" ry="1"/>
	<ellipse class="st0" cx="250.6" cy="71.7" rx="1.1" ry="1"/>
	<ellipse class="st0" cx="265.6" cy="71.7" rx="1.1" ry="1"/>
	<ellipse class="st0" cx="280.6" cy="71.7" rx="1.1" ry="1"/>
	<ellipse class="st0" cx="294.5" cy="71.7" rx="1.1" ry="1"/>
	<ellipse class="st0" cx="309.5" cy="71.7" rx="1.1" ry="1"/>
	<ellipse class="st0" cx="324.5" cy="71.7" rx="1.1" ry="1"/>
	<ellipse class="st0" cx="339.5" cy="71.7" rx="1.1" ry="1"/>
	<ellipse class="st0" cx="1.1" cy="85" rx="1.1" ry="1"/>
	<ellipse class="st0" cx="16.1" cy="85" rx="1.1" ry="1"/>
	<ellipse class="st0" cx="30" cy="85" rx="1.1" ry="1"/>
	<ellipse class="st0" cx="45" cy="85" rx="1.1" ry="1"/>
	<ellipse class="st0" cx="60" cy="85" rx="1.1" ry="1"/>
	<ellipse class="st0" cx="73.9" cy="85" rx="1.1" ry="1"/>
	<ellipse class="st0" cx="88.9" cy="85" rx="1.1" ry="1"/>
	<ellipse class="st0" cx="103.9" cy="85" rx="1.1" ry="1"/>
	<ellipse class="st0" cx="118.9" cy="85" rx="1.1" ry="1"/>
	<ellipse class="st0" cx="132.8" cy="85" rx="1.1" ry="1"/>
	<ellipse class="st0" cx="147.8" cy="85" rx="1.1" ry="1"/>
	<ellipse class="st0" cx="162.8" cy="85" rx="1.1" ry="1"/>
	<ellipse class="st0" cx="177.8" cy="85" rx="1.1" ry="1"/>
	<ellipse class="st0" cx="191.7" cy="85" rx="1.1" ry="1"/>
	<ellipse class="st0" cx="206.7" cy="85" rx="1.1" ry="1"/>
	<ellipse class="st0" cx="221.7" cy="85" rx="1.1" ry="1"/>
	<ellipse class="st0" cx="236.7" cy="85" rx="1.1" ry="1"/>
	<ellipse class="st0" cx="250.6" cy="85" rx="1.1" ry="1"/>
	<ellipse class="st0" cx="265.6" cy="85" rx="1.1" ry="1"/>
	<ellipse class="st0" cx="280.6" cy="85" rx="1.1" ry="1"/>
	<ellipse class="st0" cx="294.5" cy="85" rx="1.1" ry="1"/>
	<ellipse class="st0" cx="309.5" cy="85" rx="1.1" ry="1"/>
	<ellipse class="st0" cx="324.5" cy="85" rx="1.1" ry="1"/>
	<ellipse class="st0" cx="339.5" cy="85" rx="1.1" ry="1"/>
	<ellipse class="st0" cx="1.1" cy="99.3" rx="1.1" ry="1"/>
	<ellipse class="st0" cx="16.1" cy="99.3" rx="1.1" ry="1"/>
	<ellipse class="st0" cx="30" cy="99.3" rx="1.1" ry="1"/>
	<ellipse class="st0" cx="45" cy="99.3" rx="1.1" ry="1"/>
	<ellipse class="st0" cx="60" cy="99.3" rx="1.1" ry="1"/>
	<ellipse class="st0" cx="73.9" cy="99.3" rx="1.1" ry="1"/>
	<ellipse class="st0" cx="88.9" cy="99.3" rx="1.1" ry="1"/>
	<ellipse class="st0" cx="103.9" cy="99.3" rx="1.1" ry="1"/>
	<ellipse class="st0" cx="118.9" cy="99.3" rx="1.1" ry="1"/>
	<ellipse class="st0" cx="132.8" cy="99.3" rx="1.1" ry="1"/>
	<ellipse class="st0" cx="147.8" cy="99.3" rx="1.1" ry="1"/>
	<ellipse class="st0" cx="162.8" cy="99.3" rx="1.1" ry="1"/>
	<ellipse class="st0" cx="177.8" cy="99.3" rx="1.1" ry="1"/>
	<ellipse class="st0" cx="191.7" cy="99.3" rx="1.1" ry="1"/>
	<ellipse class="st0" cx="206.7" cy="99.3" rx="1.1" ry="1"/>
	<ellipse class="st0" cx="221.7" cy="99.3" rx="1.1" ry="1"/>
	<ellipse class="st0" cx="236.7" cy="99.3" rx="1.1" ry="1"/>
	<ellipse class="st0" cx="250.6" cy="99.3" rx="1.1" ry="1"/>
	<ellipse class="st0" cx="265.6" cy="99.3" rx="1.1" ry="1"/>
	<ellipse class="st0" cx="280.6" cy="99.3" rx="1.1" ry="1"/>
	<ellipse class="st0" cx="294.5" cy="99.3" rx="1.1" ry="1"/>
	<ellipse class="st0" cx="309.5" cy="99.3" rx="1.1" ry="1"/>
	<ellipse class="st0" cx="324.5" cy="99.3" rx="1.1" ry="1"/>
	<ellipse class="st0" cx="339.5" cy="99.3" rx="1.1" ry="1"/>
	<ellipse class="st0" cx="353.5" cy="1" rx="1.1" ry="1"/>
	<ellipse class="st0" cx="368.5" cy="1" rx="1.1" ry="1"/>
	<ellipse class="st0" cx="383.5" cy="1" rx="1.1" ry="1"/>
	<ellipse class="st0" cx="398.5" cy="1" rx="1.1" ry="1"/>
	<ellipse class="st0" cx="412.4" cy="1" rx="1.1" ry="1"/>
	<ellipse class="st0" cx="427.4" cy="1" rx="1.1" ry="1"/>
	<ellipse class="st0" cx="442.4" cy="1" rx="1.1" ry="1"/>
	<ellipse class="st0" cx="457.4" cy="1" rx="1.1" ry="1"/>
	<ellipse class="st0" cx="471.3" cy="1" rx="1.1" ry="1"/>
	<ellipse class="st0" cx="486.3" cy="1" rx="1.1" ry="1"/>
	<ellipse class="st0" cx="501.3" cy="1" rx="1.1" ry="1"/>
	<ellipse class="st0" cx="516.3" cy="1" rx="1.1" ry="1"/>
	<ellipse class="st0" cx="530.2" cy="1" rx="1.1" ry="1"/>
	<ellipse class="st0" cx="545.2" cy="1" rx="1.1" ry="1"/>
	<ellipse class="st0" cx="560.2" cy="1" rx="1.1" ry="1"/>
	<ellipse class="st0" cx="574.1" cy="1" rx="1.1" ry="1"/>
	<ellipse class="st0" cx="589.1" cy="1" rx="1.1" ry="1"/>
	<ellipse class="st0" cx="604.1" cy="1" rx="1.1" ry="1"/>
	<ellipse class="st0" cx="619.1" cy="1" rx="1.1" ry="1"/>
	<ellipse class="st0" cx="633" cy="1" rx="1.1" ry="1"/>
	<ellipse class="st0" cx="648" cy="1" rx="1.1" ry="1"/>
	<ellipse class="st0" cx="663" cy="1" rx="1.1" ry="1"/>
	<ellipse class="st0" cx="678" cy="1" rx="1.1" ry="1"/>
</g>
<ellipse class="st1" cx="691.9" cy="1" rx="1.1" ry="1"/>
<ellipse class="st0" cx="353.5" cy="15.4" rx="1.1" ry="1"/>
<ellipse class="st0" cx="368.5" cy="15.4" rx="1.1" ry="1"/>
<ellipse class="st0" cx="383.5" cy="15.4" rx="1.1" ry="1"/>
<ellipse class="st0" cx="398.5" cy="15.4" rx="1.1" ry="1"/>
<ellipse class="st0" cx="412.4" cy="15.4" rx="1.1" ry="1"/>
<ellipse class="st0" cx="427.4" cy="15.4" rx="1.1" ry="1"/>
<ellipse class="st0" cx="442.4" cy="15.4" rx="1.1" ry="1"/>
<ellipse class="st0" cx="457.4" cy="15.4" rx="1.1" ry="1"/>
<ellipse class="st0" cx="471.3" cy="15.4" rx="1.1" ry="1"/>
<ellipse class="st0" cx="486.3" cy="15.4" rx="1.1" ry="1"/>
<ellipse class="st0" cx="501.3" cy="15.4" rx="1.1" ry="1"/>
<ellipse class="st0" cx="516.3" cy="15.4" rx="1.1" ry="1"/>
<ellipse class="st0" cx="530.2" cy="15.4" rx="1.1" ry="1"/>
<ellipse class="st0" cx="545.2" cy="15.4" rx="1.1" ry="1"/>
<ellipse class="st0" cx="560.2" cy="15.4" rx="1.1" ry="1"/>
<ellipse class="st0" cx="574.1" cy="15.4" rx="1.1" ry="1"/>
<ellipse class="st0" cx="589.1" cy="15.4" rx="1.1" ry="1"/>
<ellipse class="st0" cx="604.1" cy="15.4" rx="1.1" ry="1"/>
<ellipse class="st0" cx="619.1" cy="15.4" rx="1.1" ry="1"/>
<ellipse class="st0" cx="633" cy="15.4" rx="1.1" ry="1"/>
<ellipse class="st0" cx="648" cy="15.4" rx="1.1" ry="1"/>
<ellipse class="st0" cx="663" cy="15.4" rx="1.1" ry="1"/>
<ellipse class="st0" cx="678" cy="15.4" rx="1.1" ry="1"/>
<ellipse class="st1" cx="691.9" cy="15.4" rx="1.1" ry="1"/>
<ellipse class="st0" cx="353.5" cy="28.7" rx="1.1" ry="1"/>
<ellipse class="st0" cx="368.5" cy="28.7" rx="1.1" ry="1"/>
<ellipse class="st0" cx="383.5" cy="28.7" rx="1.1" ry="1"/>
<ellipse class="st0" cx="398.5" cy="28.7" rx="1.1" ry="1"/>
<ellipse class="st0" cx="412.4" cy="28.7" rx="1.1" ry="1"/>
<ellipse class="st0" cx="427.4" cy="28.7" rx="1.1" ry="1"/>
<ellipse class="st0" cx="442.4" cy="28.7" rx="1.1" ry="1"/>
<ellipse class="st0" cx="457.4" cy="28.7" rx="1.1" ry="1"/>
<ellipse class="st0" cx="471.3" cy="28.7" rx="1.1" ry="1"/>
<ellipse class="st0" cx="486.3" cy="28.7" rx="1.1" ry="1"/>
<ellipse class="st0" cx="501.3" cy="28.7" rx="1.1" ry="1"/>
<ellipse class="st0" cx="516.3" cy="28.7" rx="1.1" ry="1"/>
<ellipse class="st0" cx="530.2" cy="28.7" rx="1.1" ry="1"/>
<ellipse class="st0" cx="545.2" cy="28.7" rx="1.1" ry="1"/>
<ellipse class="st0" cx="560.2" cy="28.7" rx="1.1" ry="1"/>
<ellipse class="st0" cx="574.1" cy="28.7" rx="1.1" ry="1"/>
<ellipse class="st0" cx="589.1" cy="28.7" rx="1.1" ry="1"/>
<ellipse class="st0" cx="604.1" cy="28.7" rx="1.1" ry="1"/>
<ellipse class="st0" cx="619.1" cy="28.7" rx="1.1" ry="1"/>
<ellipse class="st0" cx="633" cy="28.7" rx="1.1" ry="1"/>
<ellipse class="st0" cx="648" cy="28.7" rx="1.1" ry="1"/>
<ellipse class="st0" cx="663" cy="28.7" rx="1.1" ry="1"/>
<ellipse class="st0" cx="678" cy="28.7" rx="1.1" ry="1"/>
<ellipse class="st1" cx="691.9" cy="28.7" rx="1.1" ry="1"/>
<ellipse class="st0" cx="353.5" cy="43" rx="1.1" ry="1"/>
<ellipse class="st0" cx="368.5" cy="43" rx="1.1" ry="1"/>
<ellipse class="st0" cx="383.5" cy="43" rx="1.1" ry="1"/>
<ellipse class="st0" cx="398.5" cy="43" rx="1.1" ry="1"/>
<ellipse class="st0" cx="412.4" cy="43" rx="1.1" ry="1"/>
<ellipse class="st0" cx="427.4" cy="43" rx="1.1" ry="1"/>
<ellipse class="st0" cx="442.4" cy="43" rx="1.1" ry="1"/>
<ellipse class="st0" cx="457.4" cy="43" rx="1.1" ry="1"/>
<ellipse class="st0" cx="471.3" cy="43" rx="1.1" ry="1"/>
<ellipse class="st0" cx="486.3" cy="43" rx="1.1" ry="1"/>
<ellipse class="st0" cx="501.3" cy="43" rx="1.1" ry="1"/>
<ellipse class="st0" cx="516.3" cy="43" rx="1.1" ry="1"/>
<ellipse class="st0" cx="530.2" cy="43" rx="1.1" ry="1"/>
<ellipse class="st0" cx="545.2" cy="43" rx="1.1" ry="1"/>
<ellipse class="st0" cx="560.2" cy="43" rx="1.1" ry="1"/>
<ellipse class="st0" cx="574.1" cy="43" rx="1.1" ry="1"/>
<ellipse class="st0" cx="589.1" cy="43" rx="1.1" ry="1"/>
<ellipse class="st0" cx="604.1" cy="43" rx="1.1" ry="1"/>
<ellipse class="st0" cx="619.1" cy="43" rx="1.1" ry="1"/>
<ellipse class="st0" cx="633" cy="43" rx="1.1" ry="1"/>
<ellipse class="st0" cx="648" cy="43" rx="1.1" ry="1"/>
<ellipse class="st0" cx="663" cy="43" rx="1.1" ry="1"/>
<ellipse class="st0" cx="678" cy="43" rx="1.1" ry="1"/>
<ellipse class="st1" cx="691.9" cy="43" rx="1.1" ry="1"/>
<ellipse class="st0" cx="353.5" cy="57.3" rx="1.1" ry="1"/>
<ellipse class="st0" cx="368.5" cy="57.3" rx="1.1" ry="1"/>
<ellipse class="st0" cx="383.5" cy="57.3" rx="1.1" ry="1"/>
<ellipse class="st0" cx="398.5" cy="57.3" rx="1.1" ry="1"/>
<ellipse class="st0" cx="412.4" cy="57.3" rx="1.1" ry="1"/>
<ellipse class="st0" cx="427.4" cy="57.3" rx="1.1" ry="1"/>
<ellipse class="st0" cx="442.4" cy="57.3" rx="1.1" ry="1"/>
<ellipse class="st0" cx="457.4" cy="57.3" rx="1.1" ry="1"/>
<ellipse class="st0" cx="471.3" cy="57.3" rx="1.1" ry="1"/>
<ellipse class="st0" cx="486.3" cy="57.3" rx="1.1" ry="1"/>
<ellipse class="st0" cx="501.3" cy="57.3" rx="1.1" ry="1"/>
<ellipse class="st0" cx="516.3" cy="57.3" rx="1.1" ry="1"/>
<ellipse class="st0" cx="530.2" cy="57.3" rx="1.1" ry="1"/>
<ellipse class="st0" cx="545.2" cy="57.3" rx="1.1" ry="1"/>
<ellipse class="st0" cx="560.2" cy="57.3" rx="1.1" ry="1"/>
<ellipse class="st0" cx="574.1" cy="57.3" rx="1.1" ry="1"/>
<ellipse class="st0" cx="589.1" cy="57.3" rx="1.1" ry="1"/>
<ellipse class="st0" cx="604.1" cy="57.3" rx="1.1" ry="1"/>
<ellipse class="st0" cx="619.1" cy="57.3" rx="1.1" ry="1"/>
<ellipse class="st0" cx="633" cy="57.3" rx="1.1" ry="1"/>
<ellipse class="st0" cx="648" cy="57.3" rx="1.1" ry="1"/>
<ellipse class="st0" cx="663" cy="57.3" rx="1.1" ry="1"/>
<ellipse class="st0" cx="678" cy="57.3" rx="1.1" ry="1"/>
<ellipse class="st1" cx="691.9" cy="57.3" rx="1.1" ry="1"/>
<ellipse class="st0" cx="353.5" cy="71.7" rx="1.1" ry="1"/>
<ellipse class="st0" cx="368.5" cy="71.7" rx="1.1" ry="1"/>
<ellipse class="st0" cx="383.5" cy="71.7" rx="1.1" ry="1"/>
<ellipse class="st0" cx="398.5" cy="71.7" rx="1.1" ry="1"/>
<ellipse class="st0" cx="412.4" cy="71.7" rx="1.1" ry="1"/>
<ellipse class="st0" cx="427.4" cy="71.7" rx="1.1" ry="1"/>
<ellipse class="st0" cx="442.4" cy="71.7" rx="1.1" ry="1"/>
<ellipse class="st0" cx="457.4" cy="71.7" rx="1.1" ry="1"/>
<ellipse class="st0" cx="471.3" cy="71.7" rx="1.1" ry="1"/>
<ellipse class="st0" cx="486.3" cy="71.7" rx="1.1" ry="1"/>
<ellipse class="st0" cx="501.3" cy="71.7" rx="1.1" ry="1"/>
<ellipse class="st0" cx="516.3" cy="71.7" rx="1.1" ry="1"/>
<ellipse class="st0" cx="530.2" cy="71.7" rx="1.1" ry="1"/>
<ellipse class="st0" cx="545.2" cy="71.7" rx="1.1" ry="1"/>
<ellipse class="st0" cx="560.2" cy="71.7" rx="1.1" ry="1"/>
<ellipse class="st0" cx="574.1" cy="71.7" rx="1.1" ry="1"/>
<ellipse class="st0" cx="589.1" cy="71.7" rx="1.1" ry="1"/>
<ellipse class="st0" cx="604.1" cy="71.7" rx="1.1" ry="1"/>
<ellipse class="st0" cx="619.1" cy="71.7" rx="1.1" ry="1"/>
<ellipse class="st0" cx="633" cy="71.7" rx="1.1" ry="1"/>
<ellipse class="st0" cx="648" cy="71.7" rx="1.1" ry="1"/>
<ellipse class="st0" cx="663" cy="71.7" rx="1.1" ry="1"/>
<ellipse class="st0" cx="678" cy="71.7" rx="1.1" ry="1"/>
<ellipse class="st1" cx="691.9" cy="71.7" rx="1.1" ry="1"/>
<ellipse class="st0" cx="353.5" cy="85" rx="1.1" ry="1"/>
<ellipse class="st0" cx="368.5" cy="85" rx="1.1" ry="1"/>
<ellipse class="st0" cx="383.5" cy="85" rx="1.1" ry="1"/>
<ellipse class="st0" cx="398.5" cy="85" rx="1.1" ry="1"/>
<ellipse class="st0" cx="412.4" cy="85" rx="1.1" ry="1"/>
<ellipse class="st0" cx="427.4" cy="85" rx="1.1" ry="1"/>
<ellipse class="st0" cx="442.4" cy="85" rx="1.1" ry="1"/>
<ellipse class="st0" cx="457.4" cy="85" rx="1.1" ry="1"/>
<ellipse class="st0" cx="471.3" cy="85" rx="1.1" ry="1"/>
<ellipse class="st0" cx="486.3" cy="85" rx="1.1" ry="1"/>
<ellipse class="st0" cx="501.3" cy="85" rx="1.1" ry="1"/>
<ellipse class="st0" cx="516.3" cy="85" rx="1.1" ry="1"/>
<ellipse class="st0" cx="530.2" cy="85" rx="1.1" ry="1"/>
<ellipse class="st0" cx="545.2" cy="85" rx="1.1" ry="1"/>
<ellipse class="st0" cx="560.2" cy="85" rx="1.1" ry="1"/>
<ellipse class="st0" cx="574.1" cy="85" rx="1.1" ry="1"/>
<ellipse class="st0" cx="589.1" cy="85" rx="1.1" ry="1"/>
<ellipse class="st0" cx="604.1" cy="85" rx="1.1" ry="1"/>
<ellipse class="st0" cx="619.1" cy="85" rx="1.1" ry="1"/>
<ellipse class="st0" cx="633" cy="85" rx="1.1" ry="1"/>
<ellipse class="st0" cx="648" cy="85" rx="1.1" ry="1"/>
<ellipse class="st0" cx="663" cy="85" rx="1.1" ry="1"/>
<ellipse class="st0" cx="678" cy="85" rx="1.1" ry="1"/>
<ellipse class="st1" cx="691.9" cy="85" rx="1.1" ry="1"/>
<ellipse class="st0" cx="353.5" cy="99.3" rx="1.1" ry="1"/>
<ellipse class="st0" cx="368.5" cy="99.3" rx="1.1" ry="1"/>
<ellipse class="st0" cx="383.5" cy="99.3" rx="1.1" ry="1"/>
<ellipse class="st0" cx="398.5" cy="99.3" rx="1.1" ry="1"/>
<ellipse class="st0" cx="412.4" cy="99.3" rx="1.1" ry="1"/>
<ellipse class="st0" cx="427.4" cy="99.3" rx="1.1" ry="1"/>
<ellipse class="st0" cx="442.4" cy="99.3" rx="1.1" ry="1"/>
<ellipse class="st0" cx="457.4" cy="99.3" rx="1.1" ry="1"/>
<ellipse class="st0" cx="471.3" cy="99.3" rx="1.1" ry="1"/>
<ellipse class="st0" cx="486.3" cy="99.3" rx="1.1" ry="1"/>
<ellipse class="st0" cx="501.3" cy="99.3" rx="1.1" ry="1"/>
<ellipse class="st0" cx="516.3" cy="99.3" rx="1.1" ry="1"/>
<ellipse class="st0" cx="530.2" cy="99.3" rx="1.1" ry="1"/>
<ellipse class="st0" cx="545.2" cy="99.3" rx="1.1" ry="1"/>
<ellipse class="st0" cx="560.2" cy="99.3" rx="1.1" ry="1"/>
<ellipse class="st0" cx="574.1" cy="99.3" rx="1.1" ry="1"/>
<ellipse class="st0" cx="589.1" cy="99.3" rx="1.1" ry="1"/>
<ellipse class="st0" cx="604.1" cy="99.3" rx="1.1" ry="1"/>
<ellipse class="st0" cx="619.1" cy="99.3" rx="1.1" ry="1"/>
<ellipse class="st0" cx="633" cy="99.3" rx="1.1" ry="1"/>
<ellipse class="st0" cx="648" cy="99.3" rx="1.1" ry="1"/>
<ellipse class="st0" cx="663" cy="99.3" rx="1.1" ry="1"/>
<ellipse class="st0" cx="678" cy="99.3" rx="1.1" ry="1"/>
<ellipse class="st1" cx="691.9" cy="99.3" rx="1.1" ry="1"/>
<g>
	<ellipse class="st0" cx="1.1" cy="113.7" rx="1.1" ry="1"/>
	<ellipse class="st0" cx="16.1" cy="113.7" rx="1.1" ry="1"/>
	<ellipse class="st0" cx="30" cy="113.7" rx="1.1" ry="1"/>
	<ellipse class="st0" cx="45" cy="113.7" rx="1.1" ry="1"/>
	<ellipse class="st0" cx="60" cy="113.7" rx="1.1" ry="1"/>
	<ellipse class="st0" cx="73.9" cy="113.7" rx="1.1" ry="1"/>
	<ellipse class="st0" cx="88.9" cy="113.7" rx="1.1" ry="1"/>
	<ellipse class="st0" cx="103.9" cy="113.7" rx="1.1" ry="1"/>
	<ellipse class="st0" cx="118.9" cy="113.7" rx="1.1" ry="1"/>
	<ellipse class="st0" cx="132.8" cy="113.7" rx="1.1" ry="1"/>
	<ellipse class="st0" cx="147.8" cy="113.7" rx="1.1" ry="1"/>
	<ellipse class="st0" cx="162.8" cy="113.7" rx="1.1" ry="1"/>
	<ellipse class="st0" cx="177.8" cy="113.7" rx="1.1" ry="1"/>
	<ellipse class="st0" cx="191.7" cy="113.7" rx="1.1" ry="1"/>
	<ellipse class="st0" cx="206.7" cy="113.7" rx="1.1" ry="1"/>
	<ellipse class="st0" cx="221.7" cy="113.7" rx="1.1" ry="1"/>
	<ellipse class="st0" cx="236.7" cy="113.7" rx="1.1" ry="1"/>
	<ellipse class="st0" cx="250.6" cy="113.7" rx="1.1" ry="1"/>
	<ellipse class="st0" cx="265.6" cy="113.7" rx="1.1" ry="1"/>
	<ellipse class="st0" cx="280.6" cy="113.7" rx="1.1" ry="1"/>
	<ellipse class="st0" cx="294.5" cy="113.7" rx="1.1" ry="1"/>
	<ellipse class="st0" cx="309.5" cy="113.7" rx="1.1" ry="1"/>
	<ellipse class="st0" cx="324.5" cy="113.7" rx="1.1" ry="1"/>
	<ellipse class="st0" cx="339.5" cy="113.7" rx="1.1" ry="1"/>
	<ellipse class="st0" cx="1.1" cy="128" rx="1.1" ry="1"/>
	<ellipse class="st0" cx="16.1" cy="128" rx="1.1" ry="1"/>
	<ellipse class="st0" cx="30" cy="128" rx="1.1" ry="1"/>
	<ellipse class="st0" cx="45" cy="128" rx="1.1" ry="1"/>
	<ellipse class="st0" cx="60" cy="128" rx="1.1" ry="1"/>
	<ellipse class="st0" cx="73.9" cy="128" rx="1.1" ry="1"/>
	<ellipse class="st0" cx="88.9" cy="128" rx="1.1" ry="1"/>
	<ellipse class="st0" cx="103.9" cy="128" rx="1.1" ry="1"/>
	<ellipse class="st0" cx="118.9" cy="128" rx="1.1" ry="1"/>
	<ellipse class="st0" cx="132.8" cy="128" rx="1.1" ry="1"/>
	<ellipse class="st0" cx="147.8" cy="128" rx="1.1" ry="1"/>
	<ellipse class="st0" cx="162.8" cy="128" rx="1.1" ry="1"/>
	<ellipse class="st0" cx="177.8" cy="128" rx="1.1" ry="1"/>
	<ellipse class="st0" cx="191.7" cy="128" rx="1.1" ry="1"/>
	<ellipse class="st0" cx="206.7" cy="128" rx="1.1" ry="1"/>
	<ellipse class="st0" cx="221.7" cy="128" rx="1.1" ry="1"/>
	<ellipse class="st0" cx="236.7" cy="128" rx="1.1" ry="1"/>
	<ellipse class="st0" cx="250.6" cy="128" rx="1.1" ry="1"/>
	<ellipse class="st0" cx="265.6" cy="128" rx="1.1" ry="1"/>
	<ellipse class="st0" cx="280.6" cy="128" rx="1.1" ry="1"/>
	<ellipse class="st0" cx="294.5" cy="128" rx="1.1" ry="1"/>
	<ellipse class="st0" cx="309.5" cy="128" rx="1.1" ry="1"/>
	<ellipse class="st0" cx="324.5" cy="128" rx="1.1" ry="1"/>
	<ellipse class="st0" cx="339.5" cy="128" rx="1.1" ry="1"/>
	<ellipse class="st0" cx="1.1" cy="141.3" rx="1.1" ry="1"/>
	<ellipse class="st0" cx="16.1" cy="141.3" rx="1.1" ry="1"/>
	<ellipse class="st0" cx="30" cy="141.3" rx="1.1" ry="1"/>
	<ellipse class="st0" cx="45" cy="141.3" rx="1.1" ry="1"/>
	<ellipse class="st0" cx="60" cy="141.3" rx="1.1" ry="1"/>
	<ellipse class="st0" cx="73.9" cy="141.3" rx="1.1" ry="1"/>
	<ellipse class="st0" cx="88.9" cy="141.3" rx="1.1" ry="1"/>
	<ellipse class="st0" cx="103.9" cy="141.3" rx="1.1" ry="1"/>
	<ellipse class="st0" cx="118.9" cy="141.3" rx="1.1" ry="1"/>
	<ellipse class="st0" cx="132.8" cy="141.3" rx="1.1" ry="1"/>
	<ellipse class="st0" cx="147.8" cy="141.3" rx="1.1" ry="1"/>
	<ellipse class="st0" cx="162.8" cy="141.3" rx="1.1" ry="1"/>
	<ellipse class="st0" cx="177.8" cy="141.3" rx="1.1" ry="1"/>
	<ellipse class="st0" cx="191.7" cy="141.3" rx="1.1" ry="1"/>
	<ellipse class="st0" cx="206.7" cy="141.3" rx="1.1" ry="1"/>
	<ellipse class="st0" cx="221.7" cy="141.3" rx="1.1" ry="1"/>
	<ellipse class="st0" cx="236.7" cy="141.3" rx="1.1" ry="1"/>
	<ellipse class="st0" cx="250.6" cy="141.3" rx="1.1" ry="1"/>
	<ellipse class="st0" cx="265.6" cy="141.3" rx="1.1" ry="1"/>
	<ellipse class="st0" cx="280.6" cy="141.3" rx="1.1" ry="1"/>
	<ellipse class="st0" cx="294.5" cy="141.3" rx="1.1" ry="1"/>
	<ellipse class="st0" cx="309.5" cy="141.3" rx="1.1" ry="1"/>
	<ellipse class="st0" cx="324.5" cy="141.3" rx="1.1" ry="1"/>
	<ellipse class="st0" cx="339.5" cy="141.3" rx="1.1" ry="1"/>
	<ellipse class="st0" cx="1.1" cy="155.6" rx="1.1" ry="1"/>
	<ellipse class="st0" cx="16.1" cy="155.6" rx="1.1" ry="1"/>
	<ellipse class="st0" cx="30" cy="155.6" rx="1.1" ry="1"/>
	<ellipse class="st0" cx="45" cy="155.6" rx="1.1" ry="1"/>
	<ellipse class="st0" cx="60" cy="155.6" rx="1.1" ry="1"/>
	<ellipse class="st0" cx="73.9" cy="155.6" rx="1.1" ry="1"/>
	<ellipse class="st0" cx="88.9" cy="155.6" rx="1.1" ry="1"/>
	<ellipse class="st0" cx="103.9" cy="155.6" rx="1.1" ry="1"/>
	<ellipse class="st0" cx="118.9" cy="155.6" rx="1.1" ry="1"/>
	<ellipse class="st0" cx="132.8" cy="155.6" rx="1.1" ry="1"/>
	<ellipse class="st0" cx="147.8" cy="155.6" rx="1.1" ry="1"/>
	<ellipse class="st0" cx="162.8" cy="155.6" rx="1.1" ry="1"/>
	<ellipse class="st0" cx="177.8" cy="155.6" rx="1.1" ry="1"/>
	<ellipse class="st0" cx="191.7" cy="155.6" rx="1.1" ry="1"/>
	<ellipse class="st0" cx="206.7" cy="155.6" rx="1.1" ry="1"/>
	<ellipse class="st0" cx="221.7" cy="155.6" rx="1.1" ry="1"/>
	<ellipse class="st0" cx="236.7" cy="155.6" rx="1.1" ry="1"/>
	<ellipse class="st0" cx="250.6" cy="155.6" rx="1.1" ry="1"/>
	<ellipse class="st0" cx="265.6" cy="155.6" rx="1.1" ry="1"/>
	<ellipse class="st0" cx="280.6" cy="155.6" rx="1.1" ry="1"/>
	<ellipse class="st0" cx="294.5" cy="155.6" rx="1.1" ry="1"/>
	<ellipse class="st0" cx="309.5" cy="155.6" rx="1.1" ry="1"/>
	<ellipse class="st0" cx="324.5" cy="155.6" rx="1.1" ry="1"/>
	<ellipse class="st0" cx="339.5" cy="155.6" rx="1.1" ry="1"/>
	<ellipse class="st0" cx="1.1" cy="170" rx="1.1" ry="1"/>
	<ellipse class="st0" cx="16.1" cy="170" rx="1.1" ry="1"/>
	<ellipse class="st0" cx="30" cy="170" rx="1.1" ry="1"/>
	<ellipse class="st0" cx="45" cy="170" rx="1.1" ry="1"/>
	<ellipse class="st0" cx="60" cy="170" rx="1.1" ry="1"/>
	<ellipse class="st0" cx="73.9" cy="170" rx="1.1" ry="1"/>
	<ellipse class="st0" cx="88.9" cy="170" rx="1.1" ry="1"/>
	<ellipse class="st0" cx="103.9" cy="170" rx="1.1" ry="1"/>
	<ellipse class="st0" cx="118.9" cy="170" rx="1.1" ry="1"/>
	<ellipse class="st0" cx="132.8" cy="170" rx="1.1" ry="1"/>
	<ellipse class="st0" cx="147.8" cy="170" rx="1.1" ry="1"/>
	<ellipse class="st0" cx="162.8" cy="170" rx="1.1" ry="1"/>
	<ellipse class="st0" cx="177.8" cy="170" rx="1.1" ry="1"/>
	<ellipse class="st0" cx="191.7" cy="170" rx="1.1" ry="1"/>
	<ellipse class="st0" cx="206.7" cy="170" rx="1.1" ry="1"/>
	<ellipse class="st0" cx="221.7" cy="170" rx="1.1" ry="1"/>
	<ellipse class="st0" cx="236.7" cy="170" rx="1.1" ry="1"/>
	<ellipse class="st0" cx="250.6" cy="170" rx="1.1" ry="1"/>
	<ellipse class="st0" cx="265.6" cy="170" rx="1.1" ry="1"/>
	<ellipse class="st0" cx="280.6" cy="170" rx="1.1" ry="1"/>
	<ellipse class="st0" cx="294.5" cy="170" rx="1.1" ry="1"/>
	<ellipse class="st0" cx="309.5" cy="170" rx="1.1" ry="1"/>
	<ellipse class="st0" cx="324.5" cy="170" rx="1.1" ry="1"/>
	<ellipse class="st0" cx="339.5" cy="170" rx="1.1" ry="1"/>
	<ellipse class="st0" cx="1.1" cy="184.3" rx="1.1" ry="1"/>
	<ellipse class="st0" cx="16.1" cy="184.3" rx="1.1" ry="1"/>
	<ellipse class="st0" cx="30" cy="184.3" rx="1.1" ry="1"/>
	<ellipse class="st0" cx="45" cy="184.3" rx="1.1" ry="1"/>
	<ellipse class="st0" cx="60" cy="184.3" rx="1.1" ry="1"/>
	<ellipse class="st0" cx="73.9" cy="184.3" rx="1.1" ry="1"/>
	<ellipse class="st0" cx="88.9" cy="184.3" rx="1.1" ry="1"/>
	<ellipse class="st0" cx="103.9" cy="184.3" rx="1.1" ry="1"/>
	<ellipse class="st0" cx="118.9" cy="184.3" rx="1.1" ry="1"/>
	<ellipse class="st0" cx="132.8" cy="184.3" rx="1.1" ry="1"/>
	<ellipse class="st0" cx="147.8" cy="184.3" rx="1.1" ry="1"/>
	<ellipse class="st0" cx="162.8" cy="184.3" rx="1.1" ry="1"/>
	<ellipse class="st0" cx="177.8" cy="184.3" rx="1.1" ry="1"/>
	<ellipse class="st0" cx="191.7" cy="184.3" rx="1.1" ry="1"/>
	<ellipse class="st0" cx="206.7" cy="184.3" rx="1.1" ry="1"/>
	<ellipse class="st0" cx="221.7" cy="184.3" rx="1.1" ry="1"/>
	<ellipse class="st0" cx="236.7" cy="184.3" rx="1.1" ry="1"/>
	<ellipse class="st0" cx="250.6" cy="184.3" rx="1.1" ry="1"/>
	<ellipse class="st0" cx="265.6" cy="184.3" rx="1.1" ry="1"/>
	<ellipse class="st0" cx="280.6" cy="184.3" rx="1.1" ry="1"/>
	<ellipse class="st0" cx="294.5" cy="184.3" rx="1.1" ry="1"/>
	<ellipse class="st0" cx="309.5" cy="184.3" rx="1.1" ry="1"/>
	<ellipse class="st0" cx="324.5" cy="184.3" rx="1.1" ry="1"/>
	<ellipse class="st0" cx="339.5" cy="184.3" rx="1.1" ry="1"/>
	<ellipse class="st0" cx="1.1" cy="198.7" rx="1.1" ry="1"/>
	<ellipse class="st0" cx="16.1" cy="198.7" rx="1.1" ry="1"/>
	<ellipse class="st0" cx="30" cy="198.7" rx="1.1" ry="1"/>
	<ellipse class="st0" cx="45" cy="198.7" rx="1.1" ry="1"/>
	<ellipse class="st0" cx="60" cy="198.7" rx="1.1" ry="1"/>
	<ellipse class="st0" cx="73.9" cy="198.7" rx="1.1" ry="1"/>
	<ellipse class="st0" cx="88.9" cy="198.7" rx="1.1" ry="1"/>
	<ellipse class="st0" cx="103.9" cy="198.7" rx="1.1" ry="1"/>
	<ellipse class="st0" cx="118.9" cy="198.7" rx="1.1" ry="1"/>
	<ellipse class="st0" cx="132.8" cy="198.7" rx="1.1" ry="1"/>
	<ellipse class="st0" cx="147.8" cy="198.7" rx="1.1" ry="1"/>
	<ellipse class="st0" cx="162.8" cy="198.7" rx="1.1" ry="1"/>
	<ellipse class="st0" cx="177.8" cy="198.7" rx="1.1" ry="1"/>
	<ellipse class="st0" cx="191.7" cy="198.7" rx="1.1" ry="1"/>
	<ellipse class="st0" cx="206.7" cy="198.7" rx="1.1" ry="1"/>
	<ellipse class="st0" cx="221.7" cy="198.7" rx="1.1" ry="1"/>
	<ellipse class="st0" cx="236.7" cy="198.7" rx="1.1" ry="1"/>
	<ellipse class="st0" cx="250.6" cy="198.7" rx="1.1" ry="1"/>
	<ellipse class="st0" cx="265.6" cy="198.7" rx="1.1" ry="1"/>
	<ellipse class="st0" cx="280.6" cy="198.7" rx="1.1" ry="1"/>
	<ellipse class="st0" cx="294.5" cy="198.7" rx="1.1" ry="1"/>
	<ellipse class="st0" cx="309.5" cy="198.7" rx="1.1" ry="1"/>
	<ellipse class="st0" cx="324.5" cy="198.7" rx="1.1" ry="1"/>
	<ellipse class="st0" cx="339.5" cy="198.7" rx="1.1" ry="1"/>
	<ellipse class="st0" cx="1.1" cy="212" rx="1.1" ry="1"/>
	<ellipse class="st0" cx="16.1" cy="212" rx="1.1" ry="1"/>
	<ellipse class="st0" cx="30" cy="212" rx="1.1" ry="1"/>
	<ellipse class="st0" cx="45" cy="212" rx="1.1" ry="1"/>
	<ellipse class="st0" cx="60" cy="212" rx="1.1" ry="1"/>
	<ellipse class="st0" cx="73.9" cy="212" rx="1.1" ry="1"/>
	<ellipse class="st0" cx="88.9" cy="212" rx="1.1" ry="1"/>
	<ellipse class="st0" cx="103.9" cy="212" rx="1.1" ry="1"/>
	<ellipse class="st0" cx="118.9" cy="212" rx="1.1" ry="1"/>
	<ellipse class="st0" cx="132.8" cy="212" rx="1.1" ry="1"/>
	<ellipse class="st0" cx="147.8" cy="212" rx="1.1" ry="1"/>
	<ellipse class="st0" cx="162.8" cy="212" rx="1.1" ry="1"/>
	<ellipse class="st0" cx="177.8" cy="212" rx="1.1" ry="1"/>
	<ellipse class="st0" cx="191.7" cy="212" rx="1.1" ry="1"/>
	<ellipse class="st0" cx="206.7" cy="212" rx="1.1" ry="1"/>
	<ellipse class="st0" cx="221.7" cy="212" rx="1.1" ry="1"/>
	<ellipse class="st0" cx="236.7" cy="212" rx="1.1" ry="1"/>
	<ellipse class="st0" cx="250.6" cy="212" rx="1.1" ry="1"/>
	<ellipse class="st0" cx="265.6" cy="212" rx="1.1" ry="1"/>
	<ellipse class="st0" cx="280.6" cy="212" rx="1.1" ry="1"/>
	<ellipse class="st0" cx="294.5" cy="212" rx="1.1" ry="1"/>
	<ellipse class="st0" cx="309.5" cy="212" rx="1.1" ry="1"/>
	<ellipse class="st0" cx="324.5" cy="212" rx="1.1" ry="1"/>
	<ellipse class="st0" cx="339.5" cy="212" rx="1.1" ry="1"/>
	<ellipse class="st0" cx="353.5" cy="113.7" rx="1.1" ry="1"/>
	<ellipse class="st0" cx="368.5" cy="113.7" rx="1.1" ry="1"/>
	<ellipse class="st0" cx="383.5" cy="113.7" rx="1.1" ry="1"/>
	<ellipse class="st0" cx="398.5" cy="113.7" rx="1.1" ry="1"/>
	<ellipse class="st0" cx="412.4" cy="113.7" rx="1.1" ry="1"/>
	<ellipse class="st0" cx="427.4" cy="113.7" rx="1.1" ry="1"/>
	<ellipse class="st0" cx="442.4" cy="113.7" rx="1.1" ry="1"/>
	<ellipse class="st0" cx="457.4" cy="113.7" rx="1.1" ry="1"/>
	<ellipse class="st0" cx="471.3" cy="113.7" rx="1.1" ry="1"/>
	<ellipse class="st0" cx="486.3" cy="113.7" rx="1.1" ry="1"/>
	<ellipse class="st0" cx="501.3" cy="113.7" rx="1.1" ry="1"/>
	<ellipse class="st0" cx="516.3" cy="113.7" rx="1.1" ry="1"/>
	<ellipse class="st0" cx="530.2" cy="113.7" rx="1.1" ry="1"/>
	<ellipse class="st0" cx="545.2" cy="113.7" rx="1.1" ry="1"/>
	<ellipse class="st0" cx="560.2" cy="113.7" rx="1.1" ry="1"/>
	<ellipse class="st0" cx="574.1" cy="113.7" rx="1.1" ry="1"/>
	<ellipse class="st0" cx="589.1" cy="113.7" rx="1.1" ry="1"/>
	<ellipse class="st0" cx="604.1" cy="113.7" rx="1.1" ry="1"/>
	<ellipse class="st0" cx="619.1" cy="113.7" rx="1.1" ry="1"/>
	<ellipse class="st0" cx="633" cy="113.7" rx="1.1" ry="1"/>
	<ellipse class="st0" cx="648" cy="113.7" rx="1.1" ry="1"/>
	<ellipse class="st0" cx="663" cy="113.7" rx="1.1" ry="1"/>
	<ellipse class="st0" cx="678" cy="113.7" rx="1.1" ry="1"/>
</g>
<ellipse class="st1" cx="691.9" cy="113.7" rx="1.1" ry="1"/>
<ellipse class="st0" cx="353.5" cy="128" rx="1.1" ry="1"/>
<ellipse class="st0" cx="368.5" cy="128" rx="1.1" ry="1"/>
<ellipse class="st0" cx="383.5" cy="128" rx="1.1" ry="1"/>
<ellipse class="st0" cx="398.5" cy="128" rx="1.1" ry="1"/>
<ellipse class="st0" cx="412.4" cy="128" rx="1.1" ry="1"/>
<ellipse class="st0" cx="427.4" cy="128" rx="1.1" ry="1"/>
<ellipse class="st0" cx="442.4" cy="128" rx="1.1" ry="1"/>
<ellipse class="st0" cx="457.4" cy="128" rx="1.1" ry="1"/>
<ellipse class="st0" cx="471.3" cy="128" rx="1.1" ry="1"/>
<ellipse class="st0" cx="486.3" cy="128" rx="1.1" ry="1"/>
<ellipse class="st0" cx="501.3" cy="128" rx="1.1" ry="1"/>
<ellipse class="st0" cx="516.3" cy="128" rx="1.1" ry="1"/>
<ellipse class="st0" cx="530.2" cy="128" rx="1.1" ry="1"/>
<ellipse class="st0" cx="545.2" cy="128" rx="1.1" ry="1"/>
<ellipse class="st0" cx="560.2" cy="128" rx="1.1" ry="1"/>
<ellipse class="st0" cx="574.1" cy="128" rx="1.1" ry="1"/>
<ellipse class="st0" cx="589.1" cy="128" rx="1.1" ry="1"/>
<ellipse class="st0" cx="604.1" cy="128" rx="1.1" ry="1"/>
<ellipse class="st0" cx="619.1" cy="128" rx="1.1" ry="1"/>
<ellipse class="st0" cx="633" cy="128" rx="1.1" ry="1"/>
<ellipse class="st0" cx="648" cy="128" rx="1.1" ry="1"/>
<ellipse class="st0" cx="663" cy="128" rx="1.1" ry="1"/>
<ellipse class="st0" cx="678" cy="128" rx="1.1" ry="1"/>
<ellipse class="st1" cx="691.9" cy="128" rx="1.1" ry="1"/>
<ellipse class="st0" cx="353.5" cy="141.3" rx="1.1" ry="1"/>
<ellipse class="st0" cx="368.5" cy="141.3" rx="1.1" ry="1"/>
<ellipse class="st0" cx="383.5" cy="141.3" rx="1.1" ry="1"/>
<ellipse class="st0" cx="398.5" cy="141.3" rx="1.1" ry="1"/>
<ellipse class="st0" cx="412.4" cy="141.3" rx="1.1" ry="1"/>
<ellipse class="st0" cx="427.4" cy="141.3" rx="1.1" ry="1"/>
<ellipse class="st0" cx="442.4" cy="141.3" rx="1.1" ry="1"/>
<ellipse class="st0" cx="457.4" cy="141.3" rx="1.1" ry="1"/>
<ellipse class="st0" cx="471.3" cy="141.3" rx="1.1" ry="1"/>
<ellipse class="st0" cx="486.3" cy="141.3" rx="1.1" ry="1"/>
<ellipse class="st0" cx="501.3" cy="141.3" rx="1.1" ry="1"/>
<ellipse class="st0" cx="516.3" cy="141.3" rx="1.1" ry="1"/>
<ellipse class="st0" cx="530.2" cy="141.3" rx="1.1" ry="1"/>
<ellipse class="st0" cx="545.2" cy="141.3" rx="1.1" ry="1"/>
<ellipse class="st0" cx="560.2" cy="141.3" rx="1.1" ry="1"/>
<ellipse class="st0" cx="574.1" cy="141.3" rx="1.1" ry="1"/>
<ellipse class="st0" cx="589.1" cy="141.3" rx="1.1" ry="1"/>
<ellipse class="st0" cx="604.1" cy="141.3" rx="1.1" ry="1"/>
<ellipse class="st0" cx="619.1" cy="141.3" rx="1.1" ry="1"/>
<ellipse class="st0" cx="633" cy="141.3" rx="1.1" ry="1"/>
<ellipse class="st0" cx="648" cy="141.3" rx="1.1" ry="1"/>
<ellipse class="st0" cx="663" cy="141.3" rx="1.1" ry="1"/>
<ellipse class="st0" cx="678" cy="141.3" rx="1.1" ry="1"/>
<ellipse class="st1" cx="691.9" cy="141.3" rx="1.1" ry="1"/>
<ellipse class="st0" cx="353.5" cy="155.6" rx="1.1" ry="1"/>
<ellipse class="st0" cx="368.5" cy="155.6" rx="1.1" ry="1"/>
<ellipse class="st0" cx="383.5" cy="155.6" rx="1.1" ry="1"/>
<ellipse class="st0" cx="398.5" cy="155.6" rx="1.1" ry="1"/>
<ellipse class="st0" cx="412.4" cy="155.6" rx="1.1" ry="1"/>
<ellipse class="st0" cx="427.4" cy="155.6" rx="1.1" ry="1"/>
<ellipse class="st0" cx="442.4" cy="155.6" rx="1.1" ry="1"/>
<ellipse class="st0" cx="457.4" cy="155.6" rx="1.1" ry="1"/>
<ellipse class="st0" cx="471.3" cy="155.6" rx="1.1" ry="1"/>
<ellipse class="st0" cx="486.3" cy="155.6" rx="1.1" ry="1"/>
<ellipse class="st0" cx="501.3" cy="155.6" rx="1.1" ry="1"/>
<ellipse class="st0" cx="516.3" cy="155.6" rx="1.1" ry="1"/>
<ellipse class="st0" cx="530.2" cy="155.6" rx="1.1" ry="1"/>
<ellipse class="st0" cx="545.2" cy="155.6" rx="1.1" ry="1"/>
<ellipse class="st0" cx="560.2" cy="155.6" rx="1.1" ry="1"/>
<ellipse class="st0" cx="574.1" cy="155.6" rx="1.1" ry="1"/>
<ellipse class="st0" cx="589.1" cy="155.6" rx="1.1" ry="1"/>
<ellipse class="st0" cx="604.1" cy="155.6" rx="1.1" ry="1"/>
<ellipse class="st0" cx="619.1" cy="155.6" rx="1.1" ry="1"/>
<ellipse class="st0" cx="633" cy="155.6" rx="1.1" ry="1"/>
<ellipse class="st0" cx="648" cy="155.6" rx="1.1" ry="1"/>
<ellipse class="st0" cx="663" cy="155.6" rx="1.1" ry="1"/>
<ellipse class="st0" cx="678" cy="155.6" rx="1.1" ry="1"/>
<ellipse class="st1" cx="691.9" cy="155.6" rx="1.1" ry="1"/>
<ellipse class="st0" cx="353.5" cy="170" rx="1.1" ry="1"/>
<ellipse class="st0" cx="368.5" cy="170" rx="1.1" ry="1"/>
<ellipse class="st0" cx="383.5" cy="170" rx="1.1" ry="1"/>
<ellipse class="st0" cx="398.5" cy="170" rx="1.1" ry="1"/>
<ellipse class="st0" cx="412.4" cy="170" rx="1.1" ry="1"/>
<ellipse class="st0" cx="427.4" cy="170" rx="1.1" ry="1"/>
<ellipse class="st0" cx="442.4" cy="170" rx="1.1" ry="1"/>
<ellipse class="st0" cx="457.4" cy="170" rx="1.1" ry="1"/>
<ellipse class="st0" cx="471.3" cy="170" rx="1.1" ry="1"/>
<ellipse class="st0" cx="486.3" cy="170" rx="1.1" ry="1"/>
<ellipse class="st0" cx="501.3" cy="170" rx="1.1" ry="1"/>
<ellipse class="st0" cx="516.3" cy="170" rx="1.1" ry="1"/>
<ellipse class="st0" cx="530.2" cy="170" rx="1.1" ry="1"/>
<ellipse class="st0" cx="545.2" cy="170" rx="1.1" ry="1"/>
<ellipse class="st0" cx="560.2" cy="170" rx="1.1" ry="1"/>
<ellipse class="st0" cx="574.1" cy="170" rx="1.1" ry="1"/>
<ellipse class="st0" cx="589.1" cy="170" rx="1.1" ry="1"/>
<ellipse class="st0" cx="604.1" cy="170" rx="1.1" ry="1"/>
<ellipse class="st0" cx="619.1" cy="170" rx="1.1" ry="1"/>
<ellipse class="st0" cx="633" cy="170" rx="1.1" ry="1"/>
<ellipse class="st0" cx="648" cy="170" rx="1.1" ry="1"/>
<ellipse class="st0" cx="663" cy="170" rx="1.1" ry="1"/>
<ellipse class="st0" cx="678" cy="170" rx="1.1" ry="1"/>
<ellipse class="st1" cx="691.9" cy="170" rx="1.1" ry="1"/>
<ellipse class="st0" cx="353.5" cy="184.3" rx="1.1" ry="1"/>
<ellipse class="st0" cx="368.5" cy="184.3" rx="1.1" ry="1"/>
<ellipse class="st0" cx="383.5" cy="184.3" rx="1.1" ry="1"/>
<ellipse class="st0" cx="398.5" cy="184.3" rx="1.1" ry="1"/>
<ellipse class="st0" cx="412.4" cy="184.3" rx="1.1" ry="1"/>
<ellipse class="st0" cx="427.4" cy="184.3" rx="1.1" ry="1"/>
<ellipse class="st0" cx="442.4" cy="184.3" rx="1.1" ry="1"/>
<ellipse class="st0" cx="457.4" cy="184.3" rx="1.1" ry="1"/>
<ellipse class="st0" cx="471.3" cy="184.3" rx="1.1" ry="1"/>
<ellipse class="st0" cx="486.3" cy="184.3" rx="1.1" ry="1"/>
<ellipse class="st0" cx="501.3" cy="184.3" rx="1.1" ry="1"/>
<ellipse class="st0" cx="516.3" cy="184.3" rx="1.1" ry="1"/>
<ellipse class="st0" cx="530.2" cy="184.3" rx="1.1" ry="1"/>
<ellipse class="st0" cx="545.2" cy="184.3" rx="1.1" ry="1"/>
<ellipse class="st0" cx="560.2" cy="184.3" rx="1.1" ry="1"/>
<ellipse class="st0" cx="574.1" cy="184.3" rx="1.1" ry="1"/>
<ellipse class="st0" cx="589.1" cy="184.3" rx="1.1" ry="1"/>
<ellipse class="st0" cx="604.1" cy="184.3" rx="1.1" ry="1"/>
<ellipse class="st0" cx="619.1" cy="184.3" rx="1.1" ry="1"/>
<ellipse class="st0" cx="633" cy="184.3" rx="1.1" ry="1"/>
<ellipse class="st0" cx="648" cy="184.3" rx="1.1" ry="1"/>
<ellipse class="st0" cx="663" cy="184.3" rx="1.1" ry="1"/>
<ellipse class="st0" cx="678" cy="184.3" rx="1.1" ry="1"/>
<ellipse class="st1" cx="691.9" cy="184.3" rx="1.1" ry="1"/>
<ellipse class="st0" cx="353.5" cy="198.7" rx="1.1" ry="1"/>
<ellipse class="st0" cx="368.5" cy="198.7" rx="1.1" ry="1"/>
<ellipse class="st0" cx="383.5" cy="198.7" rx="1.1" ry="1"/>
<ellipse class="st0" cx="398.5" cy="198.7" rx="1.1" ry="1"/>
<ellipse class="st0" cx="412.4" cy="198.7" rx="1.1" ry="1"/>
<ellipse class="st0" cx="427.4" cy="198.7" rx="1.1" ry="1"/>
<ellipse class="st0" cx="442.4" cy="198.7" rx="1.1" ry="1"/>
<ellipse class="st0" cx="457.4" cy="198.7" rx="1.1" ry="1"/>
<ellipse class="st0" cx="471.3" cy="198.7" rx="1.1" ry="1"/>
<ellipse class="st0" cx="486.3" cy="198.7" rx="1.1" ry="1"/>
<ellipse class="st0" cx="501.3" cy="198.7" rx="1.1" ry="1"/>
<ellipse class="st0" cx="516.3" cy="198.7" rx="1.1" ry="1"/>
<ellipse class="st0" cx="530.2" cy="198.7" rx="1.1" ry="1"/>
<ellipse class="st0" cx="545.2" cy="198.7" rx="1.1" ry="1"/>
<ellipse class="st0" cx="560.2" cy="198.7" rx="1.1" ry="1"/>
<ellipse class="st0" cx="574.1" cy="198.7" rx="1.1" ry="1"/>
<ellipse class="st0" cx="589.1" cy="198.7" rx="1.1" ry="1"/>
<ellipse class="st0" cx="604.1" cy="198.7" rx="1.1" ry="1"/>
<ellipse class="st0" cx="619.1" cy="198.7" rx="1.1" ry="1"/>
<ellipse class="st0" cx="633" cy="198.7" rx="1.1" ry="1"/>
<ellipse class="st0" cx="648" cy="198.7" rx="1.1" ry="1"/>
<ellipse class="st0" cx="663" cy="198.7" rx="1.1" ry="1"/>
<ellipse class="st0" cx="678" cy="198.7" rx="1.1" ry="1"/>
<ellipse class="st1" cx="691.9" cy="198.7" rx="1.1" ry="1"/>
<ellipse class="st0" cx="353.5" cy="212" rx="1.1" ry="1"/>
<ellipse class="st0" cx="368.5" cy="212" rx="1.1" ry="1"/>
<ellipse class="st0" cx="383.5" cy="212" rx="1.1" ry="1"/>
<ellipse class="st0" cx="398.5" cy="212" rx="1.1" ry="1"/>
<ellipse class="st0" cx="412.4" cy="212" rx="1.1" ry="1"/>
<ellipse class="st0" cx="427.4" cy="212" rx="1.1" ry="1"/>
<ellipse class="st0" cx="442.4" cy="212" rx="1.1" ry="1"/>
<ellipse class="st0" cx="457.4" cy="212" rx="1.1" ry="1"/>
<ellipse class="st0" cx="471.3" cy="212" rx="1.1" ry="1"/>
<ellipse class="st0" cx="486.3" cy="212" rx="1.1" ry="1"/>
<ellipse class="st0" cx="501.3" cy="212" rx="1.1" ry="1"/>
<ellipse class="st0" cx="516.3" cy="212" rx="1.1" ry="1"/>
<ellipse class="st0" cx="530.2" cy="212" rx="1.1" ry="1"/>
<ellipse class="st0" cx="545.2" cy="212" rx="1.1" ry="1"/>
<ellipse class="st0" cx="560.2" cy="212" rx="1.1" ry="1"/>
<ellipse class="st0" cx="574.1" cy="212" rx="1.1" ry="1"/>
<ellipse class="st0" cx="589.1" cy="212" rx="1.1" ry="1"/>
<ellipse class="st0" cx="604.1" cy="212" rx="1.1" ry="1"/>
<ellipse class="st0" cx="619.1" cy="212" rx="1.1" ry="1"/>
<ellipse class="st0" cx="633" cy="212" rx="1.1" ry="1"/>
<ellipse class="st0" cx="648" cy="212" rx="1.1" ry="1"/>
<ellipse class="st0" cx="663" cy="212" rx="1.1" ry="1"/>
<ellipse class="st0" cx="678" cy="212" rx="1.1" ry="1"/>
<ellipse class="st1" cx="691.9" cy="212" rx="1.1" ry="1"/>
</svg>
