<?xml version="1.0" encoding="UTF-8"?><svg id="a" xmlns="http://www.w3.org/2000/svg" viewBox="0 0 200 258.75"><circle cx="100" cy="100" r="100" style="fill:#1d1d1b; stroke-width:0px;"/><path d="m96.32,118.26s-33.94,16.9-52.26,36.39c-18.32,19.48-21.98,28.91-20.95,30.2s18.37-23.62,21.86-48.4c3.48-24.77-5.81-32-20.9-33.42-15.1-1.42-22.06-2.58-19.87-14.19s24.26-36.65,34.71-40.65,15.61-1.29,15.87,0-1.42,1.55-5.42,2.19-18.84,6.58-31.1,24.52c-12.26,17.94-13.68,22.32-.26,24,12.51,1.56,29.16,4.77,30.06,23.23.9,18.45-7.35,40.26-13.03,50.45s-12.26,17.55-14.45,14.58,7.35-24.39,38.58-48.13c31.23-23.74,43.1-24.39,43.1-24.39l-.77,1.16-5.16,2.45Z" style="fill:#fff; stroke-width:0px;"/><path d="m198.95,114.55c-9.79,6.56-23.64,17.25-39.66,32.35-2.55,2.41-4.92,4.7-7.15,6.9,5.31-18.56,10.01-43.7,13.98-64.45.56-2.94,1.11-5.66,1.64-8.19,1.35-2.22,2.48-4.2,3.4-5.88,5.81-10.71,8.9-25.68,5.16-25.42-3.74.26-6.84,11.87-6.84,11.87,0,0-1.79,8.62-4.35,20.78-11.04,17.5-45.13,59.08-55.26,60.38-12,1.55-9.81-22.39-7.61-39.94,2.19-17.55,5.68-28.19,5.55-29.1-.13-.9-2.71-1.16-2.71-1.16-3.35,2.58-11.23,35.48-9.68,57.42,1.55,21.94,13.94,22.19,34.45.39,14.78-15.71,26.68-31.89,34.35-43.71-4.8,22.65-11.65,54.42-15.13,67.84-.28,1.07-.58,2.11-.89,3.13-19.96,20.45-24.73,31.02-22.01,32.29,2.45,1.16,9.94-.33,18.77-16.84,1.88-3.51,3.69-8.2,5.45-13.7,2.35-2.5,4.81-5.01,7.32-7.47,14.11-13.77,35.71-30.56,40.94-34.49.68-1.35.48-2.96.27-3.03Zm-22.63-61.59c.48,1.08-2.18,10.92-7.25,22.18,4.08-18.05,6.83-23.13,7.25-22.18Zm-47.48,134.32c-.67-1.05,6.59-11.13,16.91-22.67-6.47,15.57-16.15,23.86-16.91,22.67Z" style="fill:#fff; stroke-width:0px;"/><path d="m14.77,237.47c.08-.64.15-1.27.19-1.89s.06-1.25.06-1.89c0-.81-.02-1.62-.05-2.45-.04-.83-.09-1.67-.16-2.52h.69c.24,2.67,1,4.76,2.28,6.28,1.29,1.52,2.93,2.28,4.92,2.28,1.57,0,2.79-.49,3.69-1.48.9-.98,1.34-2.34,1.34-4.05,0-2.71-2.29-4.98-6.88-6.81-.53-.21-.94-.37-1.21-.48-1.55-.62-2.74-1.48-3.55-2.6s-1.22-2.42-1.22-3.93c0-2.12.69-3.91,2.06-5.36,1.38-1.45,3.1-2.18,5.17-2.18,1.03,0,2.12.25,3.26.76,1.14.51,1.79.76,1.95.76.24,0,.44-.1.6-.31s.31-.52.43-.95h.75c-.13.65-.23,1.3-.29,1.96-.07.65-.1,1.33-.1,2.05,0,.37,0,.82.03,1.36.02.54.04,1.18.08,1.91h-.66c-.07-2.19-.63-3.88-1.67-5.07-1.04-1.19-2.49-1.78-4.34-1.78-1.42,0-2.57.44-3.43,1.33-.87.89-1.3,2.06-1.3,3.52,0,2.05,1.94,3.8,5.83,5.26.26.09.46.17.6.23,2.62,1,4.41,2.07,5.38,3.23.97,1.16,1.45,2.69,1.45,4.6,0,2.53-.75,4.61-2.24,6.25-1.49,1.64-3.38,2.46-5.67,2.46-1.42,0-2.74-.35-3.95-1.06-1.21-.71-1.86-1.06-1.96-1.06-.25,0-.5.14-.76.43s-.49.69-.7,1.21h-.64Z" style="fill:#1d1d1b; stroke-width:0px;"/><path d="m46.42,226.73v6.85c0,1.32.2,2.16.6,2.52.4.37,1.27.56,2.6.59v.82c-.98-.08-1.89-.15-2.72-.19-.83-.04-1.64-.06-2.42-.06s-1.57.02-2.41.06c-.84.04-1.74.1-2.71.19v-.84c1.34-.02,2.2-.21,2.59-.56.38-.35.58-1.23.58-2.64v-.27c.02-.54.04-1.05.04-1.51v-4.85l-6.31-11.91c-.68-1.3-1.24-2.16-1.68-2.57-.44-.41-.97-.63-1.59-.67v-.76c1.05.09,1.94.16,2.66.2.72.04,1.36.05,1.93.05.42,0,.97-.02,1.67-.06.7-.04,1.49-.1,2.36-.19v.76c-.7.09-1.18.25-1.45.46-.27.21-.4.55-.4,1,0,.12.03.27.09.46.06.19.14.38.23.59l5.9,11.52,4.13-9.23.02-.04c.66-1.46,1-2.48,1-3.06,0-.53-.18-.93-.52-1.19s-.94-.43-1.77-.52v-.76c.69.09,1.28.16,1.79.2.5.04.99.05,1.45.05.5,0,1-.02,1.5-.06.5-.04,1.02-.1,1.56-.19v.76c-.79.07-1.48.44-2.06,1.09-.58.66-1.35,2.07-2.31,4.22l-4.32,9.73Z" style="fill:#1d1d1b; stroke-width:0px;"/><path d="m60.38,214.57v17.59c0,2.13.2,3.43.6,3.89.4.46,1.27.71,2.61.75v.71c-.63-.05-1.24-.08-1.85-.11-.6-.02-1.2-.04-1.8-.04-.49,0-1.04.01-1.65.04-.62.02-1.27.06-1.96.11l.02-.73c1.32-.01,2.18-.25,2.59-.72.41-.47.61-1.84.61-4.12v-18.35c-.49-.71-.96-1.2-1.43-1.46s-1.18-.42-2.14-.48v-.71c1.04.06,1.87.1,2.48.13.61.02,1.12.04,1.52.04.46,0,1.23-.02,2.29-.05.15,0,.27,0,.34-.02l13.48,19.38v-14.1c0-2.17-.21-3.49-.63-3.95-.42-.46-1.28-.7-2.57-.71l-.02-.73c.64.05,1.26.08,1.87.11.6.02,1.2.04,1.78.04.5,0,1.05-.01,1.66-.04.61-.02,1.26-.06,1.95-.11v.73h-.27c-1.19,0-1.97.25-2.36.76-.39.51-.58,1.74-.58,3.68v22.21l-16.54-23.74Z" style="fill:#1d1d1b; stroke-width:0px;"/><path d="m83.47,237.51l-.02-.73c1.14-.05,1.87-.26,2.2-.63.33-.37.5-1.38.5-3.01v-17.91c0-1.53-.15-2.48-.45-2.85s-.94-.6-1.91-.68v-.76c1.04.09,2.14.16,3.3.2,1.16.04,2.53.05,4.13.05,2.02,0,3.82-.02,5.41-.06,1.59-.04,3-.1,4.22-.19l.23,6.46h-.62c-.26-2-.97-3.4-2.12-4.18-1.15-.78-3.12-1.17-5.9-1.17h-2.44v10.95l2.87-.36c1.13,0,1.92-.32,2.39-.95s.74-1.82.83-3.57h.71c-.06,1.25-.1,2.26-.13,3.04-.03.78-.04,1.45-.04,1.99,0,.45.01,1.03.04,1.75.02.72.07,1.84.14,3.37h-.71c-.07-1.92-.34-3.2-.8-3.84-.46-.64-1.32-.96-2.56-.96l-1.38.36h-1.35v9.58c0,1.34.14,2.18.42,2.52.28.34,1.09.51,2.43.51,3.64,0,6.05-.43,7.24-1.3s1.99-2.57,2.4-5.12h.62l-.34,7.5c-1.66-.08-3.23-.15-4.71-.19-1.48-.04-2.93-.06-4.34-.06-2.32,0-4.28.02-5.87.06-1.59.04-3.05.1-4.39.19Z" style="fill:#1d1d1b; stroke-width:0px;"/><path d="m113.54,231.69v1.88c0,1.39.16,2.25.47,2.58.31.33,1.05.54,2.21.62l.02.73c-1.26-.1-2.22-.16-2.88-.2-.66-.04-1.24-.05-1.73-.05-.45,0-1,.02-1.64.05-.65.04-1.65.1-3.01.2v-.73c1.14-.05,1.87-.26,2.2-.63.33-.37.5-1.38.5-3.01v-17.73c0-1.6-.15-2.6-.45-3-.3-.4-.94-.64-1.91-.72v-.76c1.6.08,2.67.13,3.2.15.53.02.96.03,1.28.03.65,0,1.59-.05,2.83-.14s2.15-.14,2.74-.14c2.47,0,4.37.56,5.71,1.67,1.34,1.12,2.01,2.69,2.01,4.73,0,1.88-.64,3.37-1.92,4.46-1.28,1.09-3.15,1.74-5.62,1.96,1.64.47,2.89,1.05,3.75,1.72s1.54,1.58,2.01,2.72c.3.73,1.22,2.66,1.63,3.97.83,2.63,1.77,3.95,2.83,3.95.5,0,.89-.17,1.18-.53.29-.35.47-.86.52-1.54h.59c-.06,1.5-.43,2.66-1.1,3.45-.68.79-1.63,1.19-2.86,1.19-1.59,0-2.8-.6-3.64-1.8-.84-1.2-2.06-4.29-2.55-7.47-.34-2.24-.84-3.68-1.49-4.3-.65-.63-1.76-.94-3.31-.94-.05,0-.25,0-.6.03s-.67.03-.97.03v7.58Zm0-8.43c.11,0,.26,0,.47.02.21.01.36.02.47.02,2.42,0,4.21-.5,5.37-1.49,1.16-.99,1.74-2.52,1.74-4.6,0-1.92-.46-3.32-1.38-4.19-.92-.87-2.38-1.31-4.38-1.31-.34,0-.71.02-1.09.05-.39.04-.79.09-1.2.16v11.33Z" style="fill:#1d1d1b; stroke-width:0px;"/><path d="m153.22,236.44c-.39-.11-.77-.19-1.15-.24-.37-.05-.74-.08-1.11-.08-.5,0-1.51.31-3.03.92-1.52.61-3,.92-4.44.92-3.33,0-6.12-1.27-8.36-3.82-2.24-2.55-3.36-5.76-3.36-9.62,0-4.16,1.18-7.56,3.53-10.19,2.35-2.63,5.41-3.95,9.18-3.95,1.65,0,3.22.38,4.7,1.15,1.49.76,2.25,1.15,2.28,1.15.24,0,.44-.12.61-.37.17-.24.29-.58.36-1h.66c-.11.87-.19,1.67-.24,2.41-.05.74-.08,1.41-.08,2.02,0,.45.01.95.04,1.49.02.54.06,1.11.11,1.7h-.55c-.24-2.55-1.01-4.49-2.32-5.83-1.31-1.34-3.09-2.01-5.33-2.01-2.83,0-4.95,1.16-6.35,3.49-1.4,2.32-2.1,5.84-2.1,10.54,0,3.95.65,6.96,1.96,9.02,1.31,2.07,3.22,3.1,5.72,3.1,1.81,0,3.23-.43,4.26-1.3,1.02-.87,1.54-2.09,1.54-3.66s-.17-4.66-.5-5.02c-.33-.36-1.06-.53-2.17-.53h-.43v-.84c.89.07,1.73.13,2.52.16.79.04,1.54.05,2.25.05s1.37-.02,2.04-.05c.68-.04,1.36-.09,2.06-.16v.84c-.94,0-1.56.17-1.87.52-.31.35-.46,3.32-.46,4.71v4.5Z" style="fill:#1d1d1b; stroke-width:0px;"/><path d="m169.05,226.73v6.85c0,1.32.2,2.16.6,2.52.4.37,1.27.56,2.6.59v.82c-.98-.08-1.89-.15-2.72-.19-.83-.04-1.64-.06-2.42-.06s-1.57.02-2.41.06c-.84.04-1.74.1-2.71.19v-.84c1.34-.02,2.2-.21,2.59-.56.38-.35.58-1.23.58-2.64v-.27c.02-.54.04-1.05.04-1.51v-4.85l-6.31-11.91c-.68-1.3-1.24-2.16-1.68-2.57-.44-.41-.97-.63-1.59-.67v-.76c1.05.09,1.94.16,2.66.2.72.04,1.36.05,1.93.05.42,0,.97-.02,1.67-.06.7-.04,1.49-.1,2.36-.19v.76c-.7.09-1.18.25-1.45.46-.27.21-.4.55-.4,1,0,.12.03.27.09.46.06.19.14.38.23.59l5.9,11.52,4.13-9.23.02-.04c.66-1.46,1-2.48,1-3.06,0-.53-.18-.93-.52-1.19s-.94-.43-1.77-.52v-.76c.69.09,1.28.16,1.79.2.5.04.99.05,1.45.05.5,0,1-.02,1.5-.06.5-.04,1.02-.1,1.56-.19v.76c-.79.07-1.48.44-2.06,1.09-.58.66-1.35,2.07-2.31,4.22l-4.32,9.73Z" style="fill:#1d1d1b; stroke-width:0px;"/><path d="m3.3,258.05c-.85-.46-1.52-1.11-2.01-1.93-.49-.82-.73-1.75-.73-2.78s.25-1.96.74-2.78c.49-.82,1.16-1.46,2.02-1.93.85-.47,1.81-.7,2.87-.7.86,0,1.64.15,2.36.45.71.3,1.31.74,1.8,1.31l-1.26,1.18c-.76-.82-1.7-1.23-2.81-1.23-.72,0-1.37.16-1.93.47-.57.32-1.02.75-1.33,1.31-.32.56-.48,1.2-.48,1.91s.16,1.34.48,1.91c.32.56.76,1,1.33,1.31.57.31,1.21.47,1.93.47,1.11,0,2.04-.42,2.81-1.25l1.26,1.2c-.49.57-1.09,1.01-1.81,1.31s-1.5.45-2.36.45c-1.06,0-2.02-.23-2.87-.7Z" style="fill:#1d1d1b; stroke-width:0px;"/><path d="m26.9,256.17h-5.25l-1.04,2.43h-2.01l4.72-10.5h1.92l4.74,10.5h-2.04l-1.05-2.43Zm-.64-1.53l-1.98-4.59-1.96,4.59h3.95Z" style="fill:#1d1d1b; stroke-width:0px;"/><path d="m39.43,248.1h1.95v8.85h5.49v1.65h-7.44v-10.5Z" style="fill:#1d1d1b; stroke-width:0px;"/><path d="m56.51,248.1h1.95v8.85h5.49v1.65h-7.44v-10.5Z" style="fill:#1d1d1b; stroke-width:0px;"/><path d="m87.82,258.05c-.85-.46-1.52-1.11-2.01-1.93-.49-.82-.73-1.75-.73-2.78s.25-1.96.74-2.78c.49-.82,1.16-1.46,2.02-1.93.85-.47,1.81-.7,2.87-.7.86,0,1.64.15,2.36.45.71.3,1.31.74,1.8,1.31l-1.26,1.18c-.76-.82-1.7-1.23-2.81-1.23-.72,0-1.37.16-1.93.47-.57.32-1.02.75-1.33,1.31-.32.56-.48,1.2-.48,1.91s.16,1.34.48,1.91c.32.56.76,1,1.33,1.31.57.31,1.21.47,1.93.47,1.11,0,2.04-.42,2.81-1.25l1.26,1.2c-.49.57-1.09,1.01-1.81,1.31s-1.5.45-2.36.45c-1.06,0-2.02-.23-2.87-.7Z" style="fill:#1d1d1b; stroke-width:0px;"/><path d="m112.71,256.96v1.63h-7.88v-10.5h7.67v1.63h-5.71v2.73h5.07v1.6h-5.07v2.9h5.92Z" style="fill:#1d1d1b; stroke-width:0px;"/><path d="m132.32,248.1v10.5h-1.61l-5.79-7.11v7.11h-1.94v-10.5h1.61l5.79,7.11v-7.11h1.93Z" style="fill:#1d1d1b; stroke-width:0px;"/><path d="m145.37,249.75h-3.48v-1.65h8.91v1.65h-3.48v8.85h-1.95v-8.85Z" style="fill:#1d1d1b; stroke-width:0px;"/><path d="m168.24,256.96v1.63h-7.88v-10.5h7.67v1.63h-5.72v2.73h5.07v1.6h-5.07v2.9h5.93Z" style="fill:#1d1d1b; stroke-width:0px;"/><path d="m185.39,258.6l-2.14-3.08c-.09.01-.22.02-.41.02h-2.37v3.06h-1.95v-10.5h4.32c.91,0,1.7.15,2.38.45s1.19.73,1.55,1.29c.36.56.54,1.22.54,2s-.19,1.47-.58,2.04c-.38.57-.94,1-1.66,1.27l2.42,3.45h-2.1Zm-.7-8.31c-.44-.36-1.09-.54-1.94-.54h-2.28v4.18h2.28c.85,0,1.5-.18,1.94-.55.44-.36.66-.88.66-1.55s-.22-1.19-.66-1.54Z" style="fill:#1d1d1b; stroke-width:0px;"/></svg>