<?xml version="1.0" encoding="UTF-8"?>
<svg id="a"
    xmlns="http://www.w3.org/2000/svg"
    xmlns:xlink="http://www.w3.org/1999/xlink" viewBox="0 0 375.79 124.89">
    <defs>
        <pattern id="b" x="0" y="0" width="234.97" height="234.97" patternTransform="translate(-1057.21 -1173.64) scale(.92)" patternUnits="userSpaceOnUse" viewBox="0 0 234.97 234.97">
            <rect y="0" width="234.97" height="234.97" style="fill:none; stroke-width:0px;"/>
            <rect x="0" width="234.97" height="234.97" style="fill:#c9a96a; stroke-width:0px;"/>
        </pattern>
        <pattern id="c" patternTransform="translate(-1170 -1060.84) scale(.92)" xlink:href="#b"/>
        <linearGradient id="d" x1="26.69" y1="87.67" x2="85.44" y2="87.67" gradientUnits="userSpaceOnUse">
            <stop offset="0" stop-color="#c9a96a"/>
            <stop offset=".26" stop-color="#c2a264"/>
            <stop offset=".64" stop-color="#ae8e53"/>
            <stop offset="1" stop-color="#96763e"/>
        </linearGradient>
        <linearGradient id="e" x1="30.41" y1="50.24" x2="48.94" y2="28.16" gradientUnits="userSpaceOnUse">
            <stop offset="0" stop-color="#c9a96a"/>
            <stop offset=".4" stop-color="#b7975a"/>
            <stop offset="1" stop-color="#96763e"/>
        </linearGradient>
    </defs>
    <path d="m122.87,103.42c-1.52-2.44-1.91-4.99-1.17-7.67.74-2.68,2.96-5.87,6.66-9.57l4.59-4.59s.05-.03.08,0c.03.03.04.05.04.08-.59,1.28-.34,2.73.75,4.36,1.08,1.63,2.3,3.42,3.66,5.36,1.35,1.94,2.14,4.01,2.35,6.22.22,2.21-.84,4.55-3.16,7.02-2.6,2.55-4.91,4.84-6.93,6.85-3.06-2.93-5.35-5.62-6.87-8.06Zm8.23-29.16c-.37-.68-.87-1.32-1.51-1.93-.64-.61-1.14-1.07-1.49-1.38l-3.94,3.9c.54.46,1.24,1.15,2.1,2.07s1.22,1.79,1.07,2.6c0,.03.01.05.04.08.03,0,.05-.01.08-.04l3.56-3.52c.43-.51.47-1.1.1-1.78Zm-3.52,22.91c1.31,2.55,3.54,5.33,6.68,8.34.59-2.25.38-4.36-.61-6.35-.99-1.99-2.16-3.85-3.5-5.57s-2.2-3.28-2.58-4.69c-1.3,2.96-1.3,5.72.02,8.27Zm10.07-22.91c-.37-.68-.87-1.32-1.51-1.93-.64-.61-1.14-1.07-1.49-1.38l-3.9,3.9c.51.46,1.2,1.15,2.07,2.07.87.92,1.24,1.79,1.11,2.6-.03.03-.03.05,0,.08.03,0,.05-.01.08-.04l3.56-3.52c.43-.51.47-1.1.1-1.78Z" style="fill:url(#b); stroke-width:0px;"/>
    <path d="m149.34,90.66c.69,2.48,1.42,5.26,2.18,8.36.77,3.1,1.12,6.12,1.05,9.05-.06,2.93-.99,5.37-2.78,7.31l-4.25,4.21s-.05.03-.08,0c-.03,0-.03-.03,0-.08,1.4-2.17,2.03-4.76,1.88-7.77-.15-3.01-.64-6.04-1.45-9.09-.82-3.05-1.52-5.72-2.1-8-.59-2.28-.6-3.77-.04-4.46l4.86-4.86s.05-.03.08,0c.03,0,.04.01.04.04-.28,1.05-.08,2.81.61,5.28Z" style="fill:url(#b); stroke-width:0px;"/>
    <path d="m258.4,102.98h1.88l-6.05,5.24h-.15l-4.1,4.1c-2.45-2.45-4.35-4.68-5.7-6.7l-2.6,2.6h-94.29l5.24-5.24h90.11c-1.51-3.19-1.73-6.1-.67-8.73,1.06-2.63,3.03-5.32,5.91-8.08l4.48-4.48s.05-.03.08,0c.03.03.03.05,0,.08-.61,1.12-.61,2.29,0,3.5.61,1.21,1.49,2.51,2.64,3.88,1.25,1.51,2.36,3.14,3.33,4.92.97,1.77,1.3,3.73.99,5.88-.15.97-.52,1.98-1.11,3.02Zm-10.75-5.97c1.07,2.58,3.22,5.55,6.43,8.92.54-2.32.32-4.43-.65-6.32-.97-1.89-2.13-3.62-3.48-5.21-1.38-1.63-2.35-3.15-2.91-4.55-.66,2.2-.46,4.58.61,7.16Z" style="fill:url(#b); stroke-width:0px;"/>
    <path d="m341.73,102.94c-2.35-1.66-3.71-3.64-4.1-5.93s.75-4.81,3.41-7.54l5.24-5.24c.71-.59,2.15-.71,4.31-.36,2.16.34,4.34,1.05,6.54,2.12,2.21,1.07,3.76,2.41,4.65,4.02.89,1.61.42,3.39-1.42,5.36l-4.21,4.21s-.05.03-.08,0c-.03-.03-.03-.05,0-.08,1-1.53,1.16-2.94.5-4.23-.66-1.29-1.8-2.4-3.41-3.35-1.61-.94-3.34-1.68-5.19-2.22-1.85-.54-3.46-.79-4.84-.77-.77,2.81-.05,5.26,2.14,7.35,2.19,2.09,5.15,3.73,8.88,4.9,3.73,1.17,7.32,1.76,10.79,1.76l-5.24,5.24h-105.8l5.21-5.24h82.6Z" style="fill:url(#b); stroke-width:0px;"/>
    <path d="m51.81,0C23.19,0,0,23.19,0,51.81c0,17.9,9.08,33.67,22.88,42.98,3.43-7.35,8.79-13.82,15.14-19.37-12.49-8.9-17.35-15.15-17.35-25.21,0-4.97,1.73-11.8,5.2-17.69,5.32-8.79,13.19-13.53,21.51-13.53,10.18,0,17.81,5.09,24.86,14.57l-1.85,2.43c-6.01-2.77-11.8-3.82-17.93-3.82-12.84,0-23.13,6.48-23.13,11.22,0,5.21,3.01,9.37,10.06,14.69,4.16,3.01,9.95,6.25,12.26,6.25s4.39-1.16,6.36-2.08c10.41-4.97,20.82-9.48,31.23-13.42l.58.35-4.39,15.15c-14.57,5.67-28.33,11.68-39.32,18.27-11.68,7.05-19.43,16.54-19.43,25.56,0,6.31,2.26,11.97,6.38,16.75-1.03-3.48-1.59-6.58-1.8-9.36-.15-3.93.59-9.67,5.05-14.28,4.89,1.53,10.09,2.37,15.49,2.37,28.61,0,51.81-23.19,51.81-51.81S80.42,0,51.81,0Z" style="fill:url(#c); stroke-width:0px;"/>
    <path d="m85.44,64.31c-14.57,5.67-28.33,11.68-39.32,18.27-11.68,7.05-19.43,16.54-19.43,25.56,0,.98.06,1.94.17,2.88,1.69-.72,3.96-2.64,6.77-6.15.69-1.25,1.58-2.47,2.69-3.62,15.88-22.81,49.12-36.94,49.12-36.94Z" style="fill:url(#d); stroke-width:0px;"/>
    <path d="m53.74,32.19c-.42-.01-.84-.03-1.26-.03-12.84,0-23.13,6.48-23.13,11.22,0,3.37,1.27,6.3,4.07,9.39.78-1.75,1.74-3.85,2.91-6.36,5.81-12.46,14.1-14.09,17.41-14.22Z" style="fill:url(#e); stroke-width:0px;"/>
    <path d="m158.75,60.55c-3.82,3.34-9.04,5-15.68,5s-11.83-1.65-15.59-4.96c-3.76-3.31-5.64-8.35-5.64-15.12V8.87h12.86v36.52c0,3.23.73,5.65,2.2,7.26,1.47,1.61,3.52,2.42,6.17,2.42s4.71-.81,6.21-2.42c1.5-1.61,2.25-3.98,2.25-7.11V8.87h12.95v36.52c0,6.83-1.91,11.88-5.73,15.16Z" style="fill:#fff; stroke:#fff; stroke-miterlimit:10;"/>
    <path d="m169.23,64.44l10.04-57.32h2.38l14.36,26.52h.79l14.36-26.52h2.29l10.04,57.32h-13.3l-4.05-25.17h-.79l-8.02,16.67h-1.94l-8.02-16.67h-.7l-4.05,25.17h-13.39Z" style="fill:#fff; stroke:#fff; stroke-miterlimit:10;"/>
    <path d="m230.63,64.44V8.87h18.59c6.22,0,11.23,1.47,15.02,4.41,3.79,2.94,5.68,7.19,5.68,12.74,0,3.65-.9,6.88-2.69,9.69-1.79,2.81-4.18,4.82-7.18,6.03l11.01,22.71h-13.48l-9.16-19.37h-4.93v19.37h-12.86Zm12.86-28.42h4.58c2.64,0,4.79-.74,6.43-2.22,1.64-1.48,2.47-3.6,2.47-6.35s-.81-4.89-2.42-6.27c-1.62-1.38-3.77-2.06-6.47-2.06h-4.58v16.91Z" style="fill:#fff; stroke:#fff; stroke-miterlimit:10;"/>
    <path d="m273.18,64.44l21.93-57.32h2.55l22.02,57.32h-13.65l-1.85-5.72h-15.59l-1.85,5.72h-13.56Zm17.97-12.62h10.48l-5.02-15.96h-.53l-4.93,15.96Z" style="fill:#fff; stroke:#fff; stroke-miterlimit:10;"/>
    <path d="m324.26,64.44V8.87h12.86v22.71h14.98V8.87h12.86v55.58h-12.86v-22.79h-14.98v22.79h-12.86Z" style="fill:#fff; stroke:#fff; stroke-miterlimit:10;"/>
    <path d="m374.67,15.3c-.75.71-1.65,1.07-2.72,1.07s-1.97-.35-2.7-1.06c-.73-.71-1.09-1.6-1.09-2.68s.36-1.98,1.09-2.69c.73-.71,1.63-1.07,2.7-1.07s1.98.36,2.72,1.07c.75.71,1.12,1.61,1.12,2.69s-.37,1.96-1.12,2.67Zm-2.72.29c.87,0,1.59-.27,2.15-.81.56-.54.84-1.25.84-2.14s-.28-1.65-.84-2.19c-.56-.54-1.27-.81-2.15-.81s-1.58.27-2.13.81c-.55.54-.82,1.27-.82,2.19s.28,1.61.83,2.15,1.26.8,2.12.8Zm-1.41-1.07v-3.84h1.5c.51,0,.91.14,1.2.42.29.28.44.62.44,1.01,0,.57-.23.99-.69,1.24l.69,1.17h-1.07l-.52-.95h-.53v.95h-1.02Zm1.02-1.76h.5c.4,0,.6-.2.6-.6,0-.18-.06-.33-.18-.44-.12-.11-.26-.16-.42-.16h-.5v1.21Z" style="fill:url(#b); stroke-width:0px;"/>
</svg>