<?xml version="1.0" encoding="UTF-8"?><svg id="Layer_1" xmlns="http://www.w3.org/2000/svg" viewBox="0 0 513.41 307.64"><defs><style>.cls-1{fill:#fff;}</style></defs><path class="cls-1" d="M215.64,135.63V45.96h86.5v89.63c5.15,.53,10.22,1.15,15.21,1.85l-8.58-122.47h-99.75l-8.43,122.5c4.94-.7,9.96-1.31,15.06-1.84h-.01Z"/><path class="cls-1" d="M128.15,158.88c-26.26,9.09-49.15,20.61-64.45,32.17,40.54-18.83,113.39-36.76,195.34-36.76s154.94,17.93,195.5,36.76c-15.3-11.57-38.2-23.08-64.47-32.17-28.48-9.86-74.33-21.61-131.03-21.61s-102.42,11.75-130.89,21.61h0Z"/><path class="cls-1" d="M227.25,134.59v-25.8c-1.4-3.91-2.18-8.27-2.18-12.8,0-19.82,15.12-35.74,33.82-35.74s33.98,15.92,33.98,35.74c0,4.69-.94,9.05-2.34,13.11v25.46c3.54,.27,7.05,.57,10.52,.92V47.05h-84.32v88.46c3.47-.35,6.98-.66,10.52-.93h0Z"/><path class="cls-1" d="M21.04,228.97c0-1.87-.47-3.28-1.71-4.36-1.09-.94-2.81-1.41-5.14-1.41h-6.08v11.7h6.08c2.33,0,4.05-.47,5.14-1.56,1.24-1.1,1.71-2.5,1.71-4.37Zm.16,21.54l-6.23-9.52h-6.85v9.52H.63v-33.71H14.65c2.81,0,5.3,.47,7.48,1.56,2.02,.94,3.73,2.34,4.83,4.22,1.09,1.71,1.71,3.9,1.71,6.4s-.62,4.69-1.71,6.56c-1.25,1.71-2.81,3.12-4.99,4.05l7.32,10.93h-8.09Z"/><path class="cls-1" d="M494.87,244.43c1.87,0,3.58-.47,5.14-1.41,1.56-.93,2.8-2.18,3.73-3.74,.79-1.72,1.25-3.59,1.25-5.62s-.47-3.91-1.25-5.62c-.93-1.57-2.18-2.81-3.73-3.75-1.57-.93-3.28-1.4-5.14-1.4s-3.59,.47-5.15,1.4c-1.56,.79-2.8,2.19-3.58,3.75-.94,1.71-1.41,3.43-1.41,5.62,0,2.03,.47,3.9,1.41,5.62,.78,1.57,2.02,2.81,3.58,3.74,1.57,.94,3.28,1.41,5.15,1.41Zm0,6.55c-3.28,0-6.4-.78-9.04-2.18-2.65-1.57-4.84-3.6-6.4-6.25-1.4-2.65-2.18-5.62-2.18-8.89s.78-6.24,2.18-8.89c1.56-2.65,3.74-4.69,6.4-6.25,2.64-1.56,5.76-2.34,9.04-2.34s6.39,.79,9.03,2.34c2.65,1.57,4.84,3.6,6.4,6.25s2.33,5.62,2.33,8.89-.78,6.24-2.33,8.89c-1.56,2.65-3.74,4.69-6.4,6.25-2.64,1.4-5.61,2.18-9.03,2.18h0Z"/><g><path class="cls-1" d="M330.04,4.7c10.26-1.98,16.2-.25,19.41,1.59l-.47-1.93s-4.05-6.55-19.65-3.59c0,0-17.92,3.9-17.92,12.65l.09,1.22c4.86-6.79,17.85-9.78,18.53-9.93h.01Z"/><path class="cls-1" d="M350.24,9.57c-1.67-1.58-7.04-5.18-19.75-2.73-.15,.04-18.33,4.22-18.59,12.94l8.75,118.13c23.44,3.48,45.02,8.74,64.17,14.98L350.24,9.57Z"/></g><g><path class="cls-1" d="M187.56,4.7c.7,.16,13.71,3.15,18.56,9.95l.09-1.23c0-8.75-17.92-12.65-17.92-12.65-15.44-2.96-19.64,3.59-19.64,3.59l-.46,1.92c3.21-1.83,9.14-3.55,19.36-1.58h.01Z"/><path class="cls-1" d="M187.11,6.83c-12.61-2.43-17.98,1.11-19.69,2.71l-34.03,143.36c19.04-6.21,40.47-11.45,63.75-14.93l8.6-118.06c-.09-8.81-18.44-13.04-18.62-13.08h-.01Z"/></g><g><polygon class="cls-1" points="59.54 244.27 59.54 250.51 34.6 250.51 34.6 216.8 59.08 216.8 59.08 223.04 42.08 223.04 42.08 230.38 57.05 230.38 57.05 236.47 42.08 236.47 42.08 244.27 59.54 244.27"/><path class="cls-1" d="M76.21,250.98c-2.64,0-5.14-.31-7.48-1.09-2.34-.62-4.21-1.57-5.76-2.81l2.64-5.77c1.24,1.09,2.96,1.87,4.83,2.5,1.88,.62,3.9,.93,5.76,.93,2.19,0,3.74-.31,4.68-.93,1.1-.63,1.57-1.57,1.57-2.65,0-.79-.31-1.41-.93-2.03-.63-.47-1.41-.93-2.34-1.25-.93-.31-2.18-.62-3.74-1.09-2.49-.47-4.52-1.09-6.08-1.72-1.56-.62-2.96-1.56-4.05-2.96-1.09-1.4-1.71-3.12-1.71-5.31,0-2.02,.62-3.74,1.56-5.31,1.09-1.71,2.5-2.96,4.68-3.9,2.02-.93,4.52-1.41,7.48-1.41,2.02,0,4.05,.32,6.08,.79,1.87,.62,3.59,1.24,5.14,2.34l-2.33,5.77c-2.96-1.72-5.93-2.65-9.04-2.65-2.03,0-3.59,.47-4.52,1.09-1.1,.78-1.57,1.72-1.57,2.81s.62,2.03,1.72,2.65c1.24,.47,2.96,1.1,5.3,1.57,2.49,.62,4.52,1.24,6.08,1.87,1.56,.63,2.96,1.57,4.05,2.82,1.09,1.4,1.71,3.12,1.71,5.3,0,2.03-.62,3.75-1.56,5.31-1.09,1.57-2.65,2.81-4.68,3.75-2.02,.93-4.52,1.4-7.48,1.4v-.02Z"/><path class="cls-1" d="M110.66,244.43c1.87,0,3.59-.47,5.14-1.41,1.56-.93,2.81-2.18,3.59-3.74,.93-1.72,1.4-3.59,1.4-5.62s-.47-3.91-1.4-5.62c-.78-1.57-2.03-2.81-3.59-3.75-1.56-.93-3.28-1.4-5.14-1.4s-3.59,.47-5.14,1.4c-1.57,.79-2.81,2.19-3.74,3.75-.78,1.71-1.24,3.43-1.24,5.62,0,2.03,.47,3.9,1.24,5.62,.93,1.57,2.18,2.81,3.74,3.74,1.56,.94,3.27,1.41,5.14,1.41Zm0,6.55c-3.43,0-6.4-.78-9.04-2.18-2.81-1.57-4.83-3.6-6.39-6.25-1.57-2.65-2.34-5.62-2.34-8.89s.78-6.24,2.34-8.89,3.58-4.69,6.39-6.25c2.64-1.56,5.61-2.34,9.04-2.34s6.39,.79,9.04,2.34c2.64,1.57,4.83,3.6,6.23,6.25,1.57,2.65,2.34,5.62,2.34,8.89s-.78,6.24-2.34,8.89c-1.4,2.65-3.59,4.69-6.23,6.25-2.65,1.4-5.76,2.18-9.04,2.18Z"/><path class="cls-1" d="M154.46,228.97c0-1.87-.62-3.28-1.87-4.36-1.09-.94-2.81-1.41-5.14-1.41h-6.08v11.7h6.08c2.33,0,4.05-.47,5.14-1.56,1.24-1.1,1.87-2.5,1.87-4.37Zm.16,21.54l-6.23-9.52h-7.01v9.52h-7.48v-33.71h14.03c2.96,0,5.3,.47,7.48,1.56,2.02,.94,3.73,2.34,4.83,4.22,1.09,1.71,1.71,3.9,1.71,6.4s-.62,4.69-1.71,6.56c-1.1,1.71-2.81,3.12-4.83,4.05l7.16,10.93h-7.95Z"/><polygon class="cls-1" points="174.1 223.2 163.81 223.2 163.81 216.8 191.87 216.8 191.87 223.2 181.58 223.2 181.58 250.51 174.1 250.51 174.1 223.2"/><path class="cls-1" d="M219.61,245.21c2.33,0,4.36-.78,6.08-2.03l-7.8-7.64c-1.4,.93-2.49,1.71-3.11,2.65-.63,.78-.94,1.71-.94,2.81,0,1.24,.62,2.18,1.57,2.96,1.09,.78,2.49,1.24,4.21,1.24h-.01Zm1.09-23.72c-1.09,0-2.03,.32-2.65,.94-.62,.47-.93,1.24-.93,2.19,0,.62,.16,1.24,.62,1.87,.31,.63,.93,1.41,1.88,2.34,1.56-.78,2.64-1.56,3.27-2.34,.62-.62,.94-1.4,.94-2.19s-.17-1.56-.79-2.02c-.62-.47-1.4-.79-2.33-.79h-.01Zm13.09,29.5l-3.9-3.74c-2.96,2.5-6.55,3.74-10.76,3.74-2.33,0-4.35-.31-6.39-1.09-1.87-.78-3.28-1.88-4.36-3.28-1.09-1.41-1.56-3.12-1.56-4.84,0-2.03,.62-3.91,1.71-5.46,1.09-1.57,2.96-3.12,5.45-4.53-1.24-1.24-2.02-2.5-2.64-3.59-.47-1.09-.78-2.34-.78-3.59,0-1.57,.47-2.97,1.24-4.22,.93-1.24,2.02-2.34,3.59-2.96,1.56-.62,3.27-1.09,5.3-1.09,2.8,0,4.99,.78,6.7,2.18,1.72,1.41,2.5,3.29,2.5,5.62,0,1.72-.47,3.29-1.4,4.53-1.1,1.41-2.65,2.65-4.84,3.91l5.93,5.77c.62-1.57,1.24-3.29,1.56-5.31l5.76,1.87c-.62,3.13-1.56,5.62-2.96,7.65l3.74,3.75-3.9,4.68h0Z"/><polygon class="cls-1" points="262.32 223.2 252.03 223.2 252.03 216.8 280.24 216.8 280.24 223.2 269.8 223.2 269.8 250.51 262.32 250.51 262.32 223.2"/><polygon class="cls-1" points="313.75 216.8 313.75 250.51 306.26 250.51 306.26 236.62 291.62 236.62 291.62 250.51 284.14 250.51 284.14 216.8 291.62 216.8 291.62 230.07 306.26 230.07 306.26 216.8 313.75 216.8"/><path class="cls-1" d="M340.4,237.4l-5.14-12.95-5.14,12.95h10.28Zm2.33,5.77h-14.96l-2.96,7.34h-7.63l14.49-33.71h7.33l14.49,33.71h-7.95l-2.81-7.34h0Z"/><polygon class="cls-1" points="356.76 216.8 364.25 216.8 364.25 244.12 380.46 244.12 380.46 250.51 356.76 250.51 356.76 216.8"/><path class="cls-1" d="M403.84,237.4l-4.99-12.95-5.15,12.95h10.14Zm2.49,5.77h-15.12l-2.81,7.34h-7.63l14.34-33.71h7.48l14.35,33.71h-7.8l-2.81-7.34h0Z"/><path class="cls-1" d="M430.96,250.98c-2.5,0-4.99-.31-7.48-1.09-2.34-.62-4.21-1.57-5.61-2.81l2.49-5.77c1.41,1.09,2.96,1.87,4.99,2.5,1.88,.62,3.74,.93,5.62,.93,2.18,0,3.73-.31,4.68-.93,1.09-.63,1.56-1.57,1.56-2.65,0-.79-.31-1.41-.93-2.03-.47-.47-1.25-.93-2.19-1.25-.93-.31-2.18-.62-3.9-1.09-2.33-.47-4.36-1.09-6.08-1.72-1.56-.62-2.81-1.56-3.9-2.96-1.24-1.4-1.71-3.12-1.71-5.31,0-2.02,.47-3.74,1.4-5.31,1.09-1.71,2.65-2.96,4.68-3.9,2.03-.93,4.52-1.41,7.48-1.41,2.02,0,4.05,.32,6.08,.79,1.88,.62,3.74,1.24,5.14,2.34l-2.33,5.77c-2.96-1.72-5.93-2.65-8.88-2.65-2.19,0-3.59,.47-4.68,1.09-.93,.78-1.57,1.72-1.57,2.81s.63,2.03,1.88,2.65c1.09,.47,2.81,1.1,5.14,1.57,2.5,.62,4.52,1.24,6.08,1.87,1.57,.63,2.96,1.57,4.05,2.82,1.09,1.4,1.72,3.12,1.72,5.3,0,2.03-.48,3.75-1.56,5.31-1.09,1.57-2.49,2.81-4.68,3.75-2.02,.93-4.52,1.4-7.48,1.4v-.02Z"/><path class="cls-1" d="M460.42,250.98c-2.5,0-4.99-.31-7.48-1.09-2.33-.62-4.21-1.57-5.61-2.81l2.5-5.77c1.4,1.09,2.96,1.87,4.83,2.5,2.02,.62,3.9,.93,5.76,.93,2.18,0,3.74-.31,4.68-.93,1.09-.63,1.56-1.57,1.56-2.65,0-.79-.31-1.41-.93-2.03-.47-.47-1.24-.93-2.18-1.25-.94-.31-2.34-.62-3.9-1.09-2.5-.47-4.36-1.09-6.08-1.72-1.57-.62-2.81-1.56-4.05-2.96-1.1-1.4-1.57-3.12-1.57-5.31,0-2.02,.47-3.74,1.41-5.31,1.09-1.71,2.64-2.96,4.68-3.9,2.02-.93,4.52-1.41,7.48-1.41,2.03,0,4.05,.32,6.09,.79,1.87,.62,3.58,1.24,5.14,2.34l-2.34,5.77c-2.96-1.72-5.92-2.65-8.88-2.65-2.18,0-3.74,.47-4.68,1.09-.93,.78-1.56,1.72-1.56,2.81s.62,2.03,1.71,2.65c1.25,.47,2.96,1.1,5.3,1.57,2.5,.62,4.52,1.24,6.09,1.87,1.56,.63,2.96,1.57,4.05,2.82,1.09,1.4,1.71,3.12,1.71,5.3,0,2.03-.47,3.75-1.56,5.31-1.1,1.57-2.65,2.81-4.68,3.75-2.03,.93-4.52,1.4-7.48,1.4v-.02Z"/><path class="cls-1" d="M202.16,279.24c-1.09,0-2.03-.16-2.96-.47-.93-.32-1.71-.79-2.18-1.25l.62-1.56c.62,.47,1.24,.78,2.02,1.09s1.57,.47,2.5,.47c1.09,0,1.87-.16,2.49-.62,.47-.31,.79-.78,.79-1.41,0-.47-.17-.93-.48-1.24-.31-.16-.62-.47-1.09-.62-.47-.16-1.09-.31-1.87-.47-.93-.32-1.88-.48-2.5-.79s-1.09-.62-1.56-1.09-.62-1.25-.62-2.03,.16-1.4,.62-2.03c.31-.62,.93-1.09,1.71-1.4,.62-.31,1.72-.47,2.81-.47,.78,0,1.56,0,2.33,.31,.79,.16,1.41,.47,1.88,.78l-.62,1.57c-.47-.31-1.1-.63-1.72-.79s-1.24-.31-1.87-.31c-1.09,0-1.88,.31-2.5,.62-.47,.48-.78,.94-.78,1.57,0,.47,.16,.78,.47,1.09,.31,.32,.62,.63,1.09,.79,.48,.16,1.1,.31,1.88,.47,.93,.31,1.87,.47,2.49,.78,.48,.16,1.1,.62,1.57,1.1,.31,.47,.62,1.09,.62,2.02,0,.79-.16,1.41-.62,1.88-.31,.62-.93,1.09-1.72,1.41-.78,.47-1.71,.62-2.8,.62v-.02Z"/><path class="cls-1" d="M224.29,277.52c.93,0,1.87-.31,2.64-.78s1.41-1.1,1.88-1.88,.62-1.71,.62-2.65-.16-1.88-.62-2.65c-.47-.78-1.1-1.4-1.88-1.87-.78-.48-1.71-.63-2.64-.63s-1.88,.16-2.65,.63c-.78,.47-1.4,1.09-1.87,1.87s-.63,1.72-.63,2.65,.17,1.88,.63,2.65c.47,.78,1.09,1.41,1.87,1.88s1.71,.78,2.65,.78Zm0,1.72c-1.41,0-2.5-.31-3.59-.94-1.09-.62-2.03-1.4-2.65-2.5-.62-1.09-.93-2.18-.93-3.59,0-1.24,.31-2.5,.93-3.59,.62-.93,1.57-1.88,2.65-2.5,1.09-.47,2.18-.78,3.59-.78,1.24,0,2.49,.31,3.58,.78,1.1,.62,2.03,1.57,2.5,2.5,.62,1.09,.93,2.34,.93,3.59,0,1.41-.31,2.5-.93,3.59-.47,1.1-1.4,1.88-2.5,2.5-1.09,.63-2.18,.94-3.58,.94Z"/><path class="cls-1" d="M247.98,279.24c-1.72,0-3.12-.62-4.21-1.57-.93-1.09-1.4-2.5-1.4-4.52v-7.65h1.87v7.65c0,2.81,1.24,4.36,3.74,4.36,1.24,0,2.18-.47,2.8-1.09,.63-.79,.94-1.88,.94-3.28v-7.65h1.87v7.65c0,2.02-.47,3.43-1.4,4.52-1.1,.94-2.34,1.57-4.21,1.57h0Z"/><path class="cls-1" d="M269.64,279.24c-.93,0-2.02-.16-2.96-.47-.93-.32-1.56-.79-2.19-1.25l.79-1.56c.47,.47,1.09,.78,1.87,1.09s1.71,.47,2.49,.47c1.1,0,1.88-.16,2.5-.62,.47-.31,.78-.78,.78-1.41,0-.47-.16-.93-.47-1.24-.31-.16-.62-.47-1.09-.62-.47-.16-1.09-.31-1.88-.47-.93-.32-1.71-.48-2.33-.79s-1.24-.62-1.71-1.09c-.31-.47-.63-1.25-.63-2.03s.16-1.4,.63-2.03c.31-.62,.93-1.09,1.71-1.4s1.71-.47,2.81-.47c.78,0,1.56,0,2.33,.31,.78,.16,1.4,.47,2.03,.78l-.63,1.57c-.62-.31-1.24-.63-1.87-.79-.62-.16-1.24-.31-1.87-.31-1.1,0-1.88,.31-2.5,.62-.47,.48-.78,.94-.78,1.57,0,.47,.16,.78,.47,1.09,.31,.32,.78,.63,1.09,.79,.47,.16,1.09,.31,1.88,.47,1.09,.31,1.87,.47,2.49,.78,.62,.16,1.09,.62,1.56,1.1,.48,.47,.63,1.09,.63,2.02,0,.79-.16,1.41-.63,1.88-.31,.62-.93,1.09-1.71,1.41-.78,.47-1.71,.62-2.81,.62v-.02Z"/><path class="cls-1" d="M289.75,279.24c-1.09,0-2.03-.16-2.96-.47-.93-.32-1.71-.79-2.18-1.25l.62-1.56c.62,.47,1.24,.78,2.02,1.09s1.57,.47,2.5,.47c1.09,0,1.87-.16,2.33-.62,.63-.31,.94-.78,.94-1.41,0-.47-.16-.93-.48-1.24-.31-.16-.62-.47-1.09-.62-.47-.16-1.09-.31-1.87-.47-1.09-.32-1.88-.48-2.5-.79s-1.09-.62-1.56-1.09-.62-1.25-.62-2.03,.16-1.4,.47-2.03c.47-.62,.93-1.09,1.71-1.4s1.72-.47,2.96-.47c.78,0,1.56,0,2.33,.31,.63,.16,1.41,.47,1.88,.78l-.62,1.57c-.47-.31-1.1-.63-1.72-.79s-1.24-.31-1.87-.31c-1.09,0-2.03,.31-2.5,.62-.47,.48-.78,.94-.78,1.57,0,.47,.16,.78,.47,1.09,.31,.32,.62,.63,1.1,.79,.47,.16,1.09,.31,1.87,.47,.93,.31,1.71,.47,2.33,.78,.63,.16,1.25,.62,1.57,1.1,.47,.47,.78,1.09,.78,2.02,0,.79-.31,1.41-.62,1.88-.31,.62-.93,1.09-1.72,1.41-.78,.47-1.71,.62-2.8,.62v-.02Z"/><polygon class="cls-1" points="315.46 277.36 315.46 279.08 305.8 279.08 305.8 265.5 315.31 265.5 315.31 267.06 307.67 267.06 307.67 271.28 314.37 271.28 314.37 272.99 307.67 272.99 307.67 277.36 315.46 277.36"/><polygon class="cls-1" points="185.32 199.16 185.32 205.4 160.39 205.4 160.39 171.85 184.7 171.85 184.7 178.09 167.71 178.09 167.71 185.27 182.68 185.27 182.68 191.35 167.71 191.35 167.71 199.16 185.32 199.16"/><polygon class="cls-1" points="191.24 171.85 198.72 171.85 198.72 199 214.94 199 214.94 205.4 191.24 205.4 191.24 171.85"/><polygon class="cls-1" points="243.93 192.14 239.72 196.97 239.72 205.4 232.23 205.4 232.23 171.85 239.72 171.85 239.72 187.46 253.9 171.85 262.32 171.85 248.91 186.83 263.1 205.4 254.37 205.4 243.93 192.14"/><path class="cls-1" d="M276.34,206.03c-2.65,0-5.14-.47-7.48-1.1-2.33-.78-4.21-1.71-5.76-2.81l2.65-5.93c1.24,1.09,2.96,1.88,4.83,2.65,1.87,.62,3.9,.93,5.76,.93,2.18,0,3.74-.31,4.68-1.09,1.09-.62,1.56-1.41,1.56-2.5,0-.93-.31-1.56-.93-2.03s-1.4-.93-2.33-1.24c-.94-.31-2.19-.78-3.74-1.1-2.5-.62-4.52-1.24-6.09-1.87-1.56-.62-2.96-1.57-4.04-2.96-1.1-1.25-1.72-3.12-1.72-5.31,0-1.88,.62-3.75,1.57-5.31,1.09-1.57,2.49-2.81,4.68-3.75,2.02-.93,4.52-1.4,7.48-1.4,2.03,0,4.05,.31,6.09,.78,1.87,.47,3.58,1.25,5.14,2.19l-2.34,5.93c-2.96-1.71-5.92-2.65-9.04-2.65-2.02,0-3.59,.31-4.52,1.1-1.09,.62-1.56,1.56-1.56,2.81,0,1.09,.62,1.87,1.71,2.5,1.24,.62,2.96,1.09,5.3,1.71,2.5,.62,4.52,1.1,6.09,1.72,1.56,.62,2.96,1.56,4.05,2.96,1.09,1.24,1.71,3.12,1.71,5.31,0,1.88-.62,3.59-1.56,5.31-1.1,1.56-2.65,2.81-4.68,3.74-2.03,.94-4.52,1.41-7.48,1.41h-.03Z"/><path class="cls-1" d="M314.06,192.3l-5.14-12.8-5.14,12.8h10.28Zm2.34,5.93h-14.97l-2.96,7.17h-7.64l14.49-33.56h7.33l14.49,33.56h-7.95l-2.8-7.17h.01Z"/><path class="cls-1" d="M351,184.03c0-1.88-.62-3.44-1.87-4.37-1.09-.93-2.81-1.57-5.14-1.57h-6.09v11.71h6.09c2.33,0,4.05-.47,5.14-1.57,1.24-.93,1.87-2.34,1.87-4.21h0Zm0,21.39l-6.23-9.36h-6.86v9.36h-7.48v-33.56h14.03c2.8,0,5.3,.47,7.48,1.41,2.03,1.09,3.74,2.5,4.83,4.21,1.1,1.88,1.72,4.06,1.72,6.56s-.62,4.68-1.72,6.4c-1.09,1.88-2.8,3.28-4.99,4.22l7.33,10.76h-8.11Z"/><polygon class="cls-1" points="271.98 287.98 275.1 295.47 282.26 295.47 277.12 300.63 278.37 307.64 271.98 302.97 265.59 307.64 266.68 300.63 261.54 295.47 268.7 295.47 271.98 287.98"/><polygon class="cls-1" points="303.15 287.98 306.42 295.47 313.59 295.47 308.3 300.63 309.54 307.64 303.15 302.97 296.76 307.64 298.01 300.63 292.87 295.47 300.03 295.47 303.15 287.98"/><polygon class="cls-1" points="209.48 287.98 212.6 295.47 219.76 295.47 214.62 300.63 215.86 307.64 209.48 302.97 203.09 307.64 204.18 300.63 199.04 295.47 206.2 295.47 209.48 287.98"/><polygon class="cls-1" points="240.65 287.98 243.92 295.47 251.09 295.47 245.79 300.63 247.04 307.64 240.65 302.97 234.25 307.64 235.51 300.63 230.37 295.47 237.53 295.47 240.65 287.98"/><path class="cls-1" d="M185.79,273.15H.78c-.43,0-.78-.35-.78-.78s.35-.78,.78-.78H185.79c.43,0,.78,.35,.78,.78s-.35,.78-.78,.78Z"/><path class="cls-1" d="M512.63,273.15h-184.85c-.43,0-.78-.35-.78-.78s.35-.78,.78-.78h184.85c.43,0,.78,.35,.78,.78s-.35,.78-.78,.78Z"/></g></svg>