<?xml version="1.0" encoding="UTF-8"?><svg id="a" xmlns="http://www.w3.org/2000/svg" viewBox="0 0 248.22 53.82"><polygon points="37.27 19.29 32.36 12.81 32.52 20.93 24.84 23.6 32.62 25.96 32.79 34.09 37.43 27.42 45.22 29.78 40.3 23.29 44.95 16.62 37.27 19.29" style="fill:#7d6a4c; stroke-width:0px;"/><path d="m41.65,45.45c-11.66,4.05-24.41-2.12-28.45-13.78-4.05-11.66,2.12-24.41,13.78-28.45,3.54-1.22,7.18-1.52,10.64-.99C31.64-.36,24.72-.81,18.09,1.5,4.05,6.37-3.38,21.7,1.5,35.74c4.88,14.04,20.2,21.46,34.24,16.59,6.63-2.31,11.79-6.94,14.87-12.68-2.39,2.55-5.42,4.59-8.96,5.81Z" style="fill:#c9a96a; stroke-width:0px;"/><path d="m70.14,24.15h4.52c.88,0,1.65-.15,2.32-.44.67-.29,1.19-.71,1.56-1.26.37-.55.56-1.21.56-1.98,0-1.17-.41-2.08-1.24-2.72-.83-.64-1.89-.96-3.2-.96h-3.4v20.24h3.92c1.07,0,2.01-.17,2.84-.52.83-.35,1.48-.87,1.96-1.56.48-.69.72-1.56.72-2.6,0-.75-.14-1.41-.42-1.98-.28-.57-.67-1.05-1.16-1.44-.49-.39-1.07-.67-1.74-.84-.67-.17-1.4-.26-2.2-.26h-5.04v-2.6h5.32c1.36,0,2.64.15,3.84.44,1.2.29,2.27.75,3.22,1.36.95.61,1.69,1.4,2.22,2.36.53.96.8,2.11.8,3.44,0,1.84-.43,3.36-1.3,4.56-.87,1.2-2.05,2.09-3.56,2.66-1.51.57-3.25.86-5.22.86h-8.92V12.91h8.44c1.76,0,3.31.25,4.66.76,1.35.51,2.4,1.28,3.16,2.32.76,1.04,1.14,2.36,1.14,3.96,0,1.39-.38,2.57-1.14,3.54-.76.97-1.81,1.71-3.16,2.22-1.35.51-2.9.76-4.66.76h-4.84v-2.32Z" style="fill:#7d6a4c; stroke-width:0px;"/><path d="m95.18,12.91v28h-4.64V12.91h4.64Zm-1.72,0h14.12v4.16h-14.12v-4.16Zm0,10.96h13.32v4.08h-13.32v-4.08Zm0,12.88h14.12v4.16h-14.12v-4.16Z" style="fill:#7d6a4c; stroke-width:0px;"/><path d="m117.9,13.35v18.6c0,1.73.46,3.13,1.38,4.18.92,1.05,2.29,1.58,4.1,1.58s3.15-.53,4.08-1.58c.93-1.05,1.4-2.45,1.4-4.18V13.35h4.72v18.8c0,1.55-.25,2.93-.74,4.14-.49,1.21-1.19,2.25-2.1,3.1-.91.85-1.99,1.51-3.24,1.96-1.25.45-2.63.68-4.12.68s-2.87-.23-4.12-.68c-1.25-.45-2.34-1.11-3.26-1.96-.92-.85-1.62-1.89-2.1-3.1-.48-1.21-.72-2.59-.72-4.14V13.35h4.72Z" style="fill:#c9a96a; stroke-width:0px;"/><path d="m142.9,41.35h-4.88l3.84-29.4,11.48,19,11.52-19,3.84,29.4h-4.88l-1.96-17.04-8.52,14.44-8.52-14.44-1.92,17.04Z" style="fill:#c9a96a; stroke-width:0px;"/><path d="m178.02,13.35v28h-4.72V13.35h4.72Zm-1.92,0h5.84c2.03,0,3.79.36,5.3,1.08,1.51.72,2.67,1.73,3.5,3.02s1.24,2.82,1.24,4.58-.41,3.29-1.24,4.6c-.83,1.31-1.99,2.32-3.5,3.04-1.51.72-3.27,1.08-5.3,1.08h-5.84v-3.88h5.64c1.07,0,2.01-.19,2.82-.56.81-.37,1.45-.91,1.9-1.62.45-.71.68-1.55.68-2.54s-.23-1.87-.68-2.56c-.46-.69-1.09-1.23-1.9-1.6-.81-.37-1.75-.56-2.82-.56h-5.64v-4.08Zm8.08,14.64l9.48,13.36h-5.68l-8.92-13.36h5.12Z" style="fill:#c9a96a; stroke-width:0px;"/><path d="m203.38,31.55l-.08,1.04-3.88,8.76h-5.32l13.68-29.56,13.68,29.56h-5.32l-3.8-8.52-.12-1.16-4.44-10.4-4.4,10.28Zm-2.04-1.4h13l.92,4h-14.8l.88-4Z" style="fill:#c9a96a; stroke-width:0px;"/><path d="m229.42,13.35v28h-4.72V13.35h4.72Zm-2.84,10.8h19.96v4.36h-19.96v-4.36Zm21.64-10.8v28h-4.72V13.35h4.72Z" style="fill:#c9a96a; stroke-width:0px;"/></svg>