<?xml version="1.0" encoding="UTF-8"?><svg id="a" xmlns="http://www.w3.org/2000/svg" viewBox="0 0 795 795"><path d="m397.5,795h0c-53.65,0-105.71-10.51-154.73-31.25-47.34-20.02-89.84-48.68-126.34-85.18-36.5-36.5-65.16-79-85.18-126.34C10.51,503.21,0,451.15,0,397.5h0c0-53.65,10.51-105.71,31.25-154.73,20.02-47.34,48.68-89.84,85.18-126.34,36.5-36.5,79-65.16,126.34-85.18C291.79,10.51,343.85,0,397.5,0h0c53.65,0,105.71,10.51,154.73,31.25,47.34,20.02,89.84,48.68,126.34,85.18,36.5,36.5,65.16,79,85.18,126.34,20.73,49.02,31.25,101.08,31.25,154.73h0c0,53.65-10.51,105.71-31.25,154.73-20.02,47.34-48.68,89.85-85.18,126.34s-79,65.16-126.34,85.18c-49.02,20.73-101.08,31.25-154.73,31.25Zm190.01-372.5c-2.21,50.49-11.13,99.45-26.61,145.88-14.43,43.3-34.56,84.47-59.83,122.37-12.31,18.47-24.65,34.36-36.03,47.67,151.43-29.96,267.83-158.63,279.06-315.91h-156.6Zm-536.62,0c11.24,157.28,127.63,285.95,279.06,315.91-11.38-13.31-23.72-29.2-36.03-47.67-25.26-37.89-45.39-79.07-59.83-122.37-15.47-46.42-24.4-95.39-26.61-145.88H50.89Zm206.65,0c8.38,174.33,102.68,279.46,139.95,314.44,15-14.07,39.2-39.41,63.15-75.68,46.93-71.1,72.73-151.31,76.84-238.76h-279.93Zm329.97-50h156.6c-11.24-157.28-127.63-285.95-279.06-315.91,11.38,13.31,23.72,29.2,36.03,47.67,25.26,37.89,45.39,79.07,59.83,122.37,15.47,46.42,24.4,95.39,26.61,145.87Zm-329.98,0h279.93c-8.38-174.34-102.69-279.47-139.95-314.44-14.99,14.06-39.19,39.4-63.14,75.69-46.94,71.1-72.73,151.31-76.84,238.76Zm-206.64,0h156.6c2.21-50.49,11.13-99.45,26.61-145.87,14.43-43.3,34.56-84.47,59.83-122.37,12.31-18.47,24.65-34.36,36.03-47.67C178.52,86.55,62.13,215.22,50.89,372.5Z" style="fill:#050033; stroke-width:0px;"/></svg>