<?xml version="1.0" encoding="UTF-8"?><svg id="a" xmlns="http://www.w3.org/2000/svg" viewBox="0 0 399.27 116.84"><path d="m55.16,29.57h-17.93v30.11h17.93c17.68,0,17.87-30.11,0-30.11" style="fill:#257ece; stroke-width:0px;"/><path d="m92.82,0H2.87C1.29,0,0,1.35,0,3v88.51l20.01,10.56V29.68h-9.54V12.94h47.29c37.62,0,37.21,63.36,0,63.36h-21.03v34.63l11.24,5.91,47.69-25.34V3c0-1.64-1.28-3-2.85-3" style="fill:#257ece; stroke-width:0px;"/><path d="m118.53,27.36c0-6.49,5.27-11.76,11.74-11.76h8.05c5.09.18,9.77-.08,14.68,2.25,6.31,3.03,9.25,10.02,9.25,16.78,0,6.38-2.26,12.44-8.04,15.98-4.59,2.85-10.28,3.63-15.82,3.63h-8.21v21.87h-11.65V27.36Zm11.65,16.5h8.82c5.69,0,11.32-2.25,11.32-8.98,0-7.86-4.31-9-11.75-9h-6.91c-1.48,0-1.48,1.39-1.48,2.86v15.12Z" style="fill:#257ece; stroke-width:0px;"/><path d="m189.12,71.93c-3.19,3.38-7.77,5.2-12.19,5.2-8.98,0-15.62-6.05-15.89-14.85-.18-8.32,6.05-13.76,13.05-14.7l14.86-2.16c-.34-4.41-7.26-5.97-10.28-5.97-3.88,0-8.64,1.03-12.01,2.68h-1.22v-10.02c4.33-1.21,8.65-2.25,13.41-2.25,10.37,0,20.47,3.9,20.82,15.3v30.94h-10.55v-4.16Zm-10.19-4.49c3.46,0,6.92-1.38,9.76-3.1v-10.2c-3.7.69-7.51,1.03-11.32,1.81-3.02.6-5.27,2.24-5.27,5.7,0,4.23,3.19,5.78,6.82,5.78" style="fill:#257ece; stroke-width:0px;"/><path d="m236.49,30.81h10.2l-19.96,55.05c-3.37,8.73-9.42,10.97-19.79,10.97h-1.98v-9.49c8.29.08,11.06,0,13.22-5.97l2.08-5.72-19.71-44.84h12.01l12.87,30.41,11.07-30.41Z" style="fill:#257ece; stroke-width:0px;"/><polygon points="236.54 26.15 236.54 15.59 281.49 15.59 281.49 26.15 264.72 26.15 264.72 76.1 253.06 76.1 253.06 26.15 236.54 26.15" style="fill:#58595b; stroke-width:0px;"/><path d="m305.77,71.93c-3.2,3.38-7.78,5.2-12.18,5.2-9,0-15.65-6.05-15.9-14.85-.18-8.32,6.04-13.76,13.04-14.7l14.86-2.16c-.35-4.41-7.27-5.97-10.28-5.97-3.89,0-8.64,1.03-12.01,2.68h-1.22v-10.02c4.32-1.21,8.65-2.25,13.4-2.25,10.37,0,20.48,3.9,20.84,15.3v30.94h-10.55v-4.16Zm-10.2-4.49c3.45,0,6.91-1.38,9.76-3.1v-10.2c-3.7.69-7.52,1.03-11.32,1.81-3.02.6-5.27,2.24-5.27,5.7,0,4.23,3.2,5.78,6.83,5.78" style="fill:#58595b; stroke-width:0px;"/><path d="m334.96,77.05c-6.03,0-10.87-4.93-10.87-10.98V12.76h10.96v19.35c2.86-1.82,5.71-2.24,8.73-2.24,6.32,0,11.94,2.51,15.84,7,3.61,4.67,4.57,10.11,4.73,15.9,0,5.02-.87,10.2-3.36,14.6-4.06,6.75-10.72,9.49-18.66,9.69h-7.37Zm2.7-9.77h3.64c2.92,0,6.38-.51,8.63-2.76,2.77-2.86,3.12-8.05,3.12-11.76.08-3.02-.44-6.41-2-8.99-1.9-3.02-4.92-3.98-8.28-4.14-2.69,0-5.1.51-7.71,1.12v24.02c0,1.39,1.22,2.51,2.61,2.51" style="fill:#58595b; stroke-width:0px;"/><path d="m366.51,74.79v-9.68h1.37c3.55,1.47,8.99,2.43,12.72,2.43,3.1-.09,8.29-.62,8.29-4.84,0-2.33-3.37-3.47-5.44-4.24-3.89-1.48-7.61-2.59-10.99-4.31-4.22-2.17-6.4-6.83-6.4-11.32,0-8.64,8.05-13.05,15.56-12.97,5.52.09,9.25,1.04,13.91,2.41v9.25h-1.45c-3.11-1.21-7.61-2.08-11.07-2.08-1.73,0-6.57.35-6.57,2.95,0,1.38,2.51,2.77,4.41,3.38,3.72,1.39,8.12,2.58,11.57,4.4,5.1,2.51,6.83,7.43,6.83,12.01,0,10.37-9.59,14.87-19.11,14.87-4.83,0-9.15-.87-13.64-2.26" style="fill:#58595b; stroke-width:0px;"/></svg>