<?xml version="1.0" encoding="UTF-8"?><svg id="a" xmlns="http://www.w3.org/2000/svg" viewBox="0 0 861.45 694.86"><path d="m842.45,224.01l-76.58-50.95c-49.72-33.08-112.9-40.63-169.01-20.21l-43.21,15.73L412.45,29.96C383.78,1.83,340.88-7.48,303.13,6.26l-97.34,35.43,113.84,212.07-58.3,21.22-58.65-66.05L0,282.7l92.95,132.39.11.15c24.26,33.88,57.94,58.83,97.42,72.16,42.34,14.3,88.78,13.76,130.77-1.53l73.17-26.63,49.11,235.63,97.34-35.43c37.74-13.74,64.63-48.45,68.5-88.42l19.07-196.95,204.99-74.61c15.17-5.52,25.79-18.91,27.71-34.95,1.92-16.03-5.24-31.55-18.69-40.49ZM262.89,63.47l53.93-19.63c23.34-8.5,49.88-2.74,67.61,14.66l127.57,125.23-154.39,56.19-94.73-176.46Zm306.67,503.68c-2.39,24.73-19.02,46.19-42.37,54.69l-53.93,19.63-40.86-196.06,154.39-56.19-17.23,177.94Zm251.86-307.4c-.19,1.57-1.23,1.95-1.67,2.11l-187.04,68.08-246.54,89.73-78.61,28.61c-33.49,12.19-70.53,12.62-104.3,1.22-31.45-10.62-58.3-30.5-77.64-57.48l-62.9-89.59,128.09-46.62,58.65,66.05,89.28-32.5,246.54-89.73,25.26-9.19c44.21-16.09,94-10.14,133.17,15.92l76.58,50.95c.39.26,1.31.87,1.13,2.44Z" style="fill:#3c4993; stroke-width:0px;"/></svg>