<?xml version="1.0" encoding="UTF-8"?><svg id="a" xmlns="http://www.w3.org/2000/svg" viewBox="0 0 820.04 695.09"><path d="m811.72,389.07l-54.54-74.06c-35.41-48.08-92.19-76.79-151.91-76.79h-45.98l-85.28-178.55C456.7,23.42,419.57,0,379.4,0h-103.59l34.44,238.22h-62.05l-32.52-82.12H0l42.06,156.19.05.18c11.21,40.13,34.33,75.1,66.86,101.12,34.9,27.92,78.72,43.29,123.41,43.29h77.87l-34.44,238.21h103.59c40.17,0,77.3-23.42,94.61-59.66l85.28-178.55h218.15c16.15,0,30.7-8.95,37.99-23.36s5.86-31.44-3.71-44.44ZM322.01,40h57.39c24.84,0,47.81,14.48,58.52,36.9l77.04,161.31h-164.29l-28.66-198.22Zm115.91,578.19c-10.71,22.42-33.68,36.9-58.52,36.9h-57.39l28.66-198.21h164.29l-77.04,161.31Zm341.81-202.72c-.71,1.41-1.82,1.41-2.29,1.41H232.38c-35.64,0-70.59-12.26-98.42-34.53-25.92-20.74-44.35-48.6-53.3-80.57l-28.46-105.7h136.31l32.52,82.12h384.25c47.05,0,91.8,22.62,119.69,60.51l54.54,74.06c.28.38.94,1.27.22,2.68Z" style="fill:#3c4993; stroke-width:0px;"/></svg>