<?xml version="1.0" encoding="UTF-8"?><svg id="a" xmlns="http://www.w3.org/2000/svg" viewBox="0 0 699.33 694.86"><path d="m697.58,548.9l-25.92-88.25c-16.82-57.29-60.37-103.69-116.48-124.12l-43.21-15.73-19.07-196.95c-3.87-39.98-30.76-74.69-68.5-88.42L327.07,0l-49.11,235.63-58.3-21.22-2.47-88.3L14.5,52.34.61,213.5v.19c-3.21,41.54,6.56,82.31,28.23,117.89,23.24,38.17,59.17,67.61,101.16,82.89l73.17,26.63-113.84,212.07,97.34,35.43c37.74,13.74,80.65,4.43,109.31-23.7l141.21-138.62,204.99,74.61c15.17,5.52,31.91,2.09,43.69-8.96,11.77-11.05,16.26-27.54,11.71-43.03ZM356.8,53.39l53.93,19.63c23.34,8.5,39.97,29.96,42.37,54.69l17.23,177.94-154.39-56.19,40.86-196.06Zm-88.83,582.97c-17.73,17.4-44.27,23.16-67.61,14.66l-53.93-19.63,94.73-176.46,154.39,56.19-127.57,125.23Zm390.53-73.59c-1.15,1.08-2.19.7-2.63.54l-187.04-68.08-246.54-89.73-78.61-28.61c-33.49-12.19-62.14-35.67-80.68-66.11-17.27-28.36-25.06-60.84-22.53-93.94l9.4-109.06,128.09,46.62,2.47,88.3,89.28,32.5,246.54,89.73,25.26,9.19c44.21,16.09,78.52,52.65,91.78,97.8l25.92,88.25c.13.45.45,1.52-.71,2.59Z" style="fill:#3c4993; stroke-width:0px;"/></svg>