<?xml version="1.0" encoding="utf-8"?>
<!-- Generator: Adobe Illustrator 27.8.1, SVG Export Plug-In . SVG Version: 6.00 Build 0)  -->
<svg version="1.1" id="Layer_1" xmlns="http://www.w3.org/2000/svg" xmlns:xlink="http://www.w3.org/1999/xlink" x="0px" y="0px"
	 viewBox="0 0 640 512" style="enable-background:new 0 0 640 512;" xml:space="preserve">
<style type="text/css">
	.st0{fill:#068484;}
</style>
<path class="st0" d="M0.3,166.9L0,68c0-10.3,9.5-17.9,19.5-15.7l35.6,7.9c10.6,2.3,19.2,9.9,23,20L96,128l127.3,37.6L181.8,20.4
	C178.9,10.2,186.6,0,197.2,0h40.1c11.6,0,22.2,6.2,27.9,16.3l109,193.8l107.2,31.7c15.9,4.7,30.8,12.5,43.7,22.8l34.4,27.6
	c24,19.2,18.1,57.3-10.7,68.2c-41.2,15.6-86.2,18.1-128.8,7l-298.3-77.6c-11.1-2.9-21.2-8.7-29.3-16.9L9.5,189.4
	c-5.9-6-9.3-14-9.3-22.5H0.3z M32,448h576c17.7,0,32,14.3,32,32s-14.3,32-32,32H32c-17.7,0-32-14.3-32-32S14.3,448,32,448z M128,368
	c0-17.7,14.3-32,32-32s32,14.3,32,32s-14.3,32-32,32S128,385.7,128,368z M256,352c17.7,0,32,14.3,32,32s-14.3,32-32,32
	s-32-14.3-32-32S238.3,352,256,352z"/>
</svg>
