<?xml version="1.0" encoding="UTF-8"?><svg id="a" xmlns="http://www.w3.org/2000/svg" viewBox="0 0 714.7 788"><g style="isolation:isolate;"><path d="m394,788h-73.3c-71.28,0-122.78,0-164.53-5.61-47.78-6.42-80.22-20.42-105.18-45.38-24.96-24.96-38.95-57.4-45.38-105.18C0,590.08,0,538.58,0,467.3v-146.6c0-71.28,0-122.78,5.61-164.53,6.42-47.78,20.42-80.22,45.38-105.18C75.95,26.03,108.39,12.04,156.17,5.61,197.92,0,249.42,0,320.7,0h73.3c71.28,0,122.78,0,164.53,5.61,47.78,6.42,80.22,20.42,105.18,45.38,24.96,24.96,38.95,57.4,45.38,105.18,5.61,41.75,5.61,93.25,5.61,164.53v146.6c0,71.28,0,122.78-5.61,164.53-6.42,47.78-20.42,80.22-45.38,105.18-24.96,24.96-57.39,38.95-105.18,45.38-41.75,5.61-93.25,5.61-164.53,5.61ZM320.7,54.98c-130.46,0-195.94,0-230.83,34.89-34.89,34.89-34.89,100.37-34.89,230.83v146.6c0,130.46,0,195.95,34.89,230.83,34.89,34.89,100.37,34.89,230.83,34.89h73.3c130.46,0,195.95,0,230.83-34.89,34.89-34.89,34.89-100.37,34.89-230.83v-146.6c0-130.46,0-195.94-34.89-230.83-34.89-34.89-100.37-34.89-230.83-34.89h-73.3Z" style="fill:#050033; stroke-width:0px;"/></g><path d="m503.95,421.49H210.74c-15.18,0-27.49-12.31-27.49-27.49s12.31-27.49,27.49-27.49h293.21c15.18,0,27.49,12.31,27.49,27.49s-12.31,27.49-27.49,27.49Z" style="fill:#050033; stroke-width:0px;"/><path d="m503.95,274.88H210.74c-15.18,0-27.49-12.31-27.49-27.49s12.31-27.49,27.49-27.49h293.21c15.18,0,27.49,12.31,27.49,27.49s-12.31,27.49-27.49,27.49Z" style="fill:#050033; stroke-width:0px;"/><path d="m394,568.09h-183.26c-15.18,0-27.49-12.31-27.49-27.49s12.31-27.49,27.49-27.49h183.26c15.18,0,27.49,12.31,27.49,27.49s-12.31,27.49-27.49,27.49Z" style="fill:#050033; stroke-width:0px;"/></svg>