<?xml version="1.0" encoding="UTF-8"?><svg id="a" xmlns="http://www.w3.org/2000/svg" viewBox="0 0 787.44 769"><path d="m787.44,264.67c0-3.16-.59-6.19-1.66-8.97-.83-16.54-2.08-31.62-3.96-45.58-6.38-47.45-20.23-79.62-44.9-104.29-24.67-24.67-56.83-38.52-104.29-44.9-9.32-1.25-19.13-2.23-29.55-2.98V25c0-13.81-11.19-25-25-25s-25,11.19-25,25v30.83c-25.11-.51-53.34-.52-85.62-.52h-147.49c-32.27,0-60.5,0-85.62.52v-30.83c0-13.81-11.19-25-25-25s-25,11.19-25,25v32.95c-10.41.76-20.23,1.73-29.55,2.98-47.45,6.38-79.62,20.23-104.29,44.9-24.67,24.67-38.52,56.83-44.9,104.29-1.88,13.96-3.13,29.04-3.96,45.58-1.07,2.79-1.66,5.81-1.66,8.97,0,2.43.35,4.77,1,6.99C0,301.1,0,335.06,0,375.28v73.74c0,71.61,0,123.34,5.62,165.16,6.38,47.46,20.23,79.62,44.9,104.29,24.67,24.67,56.84,38.52,104.29,44.9,41.82,5.62,93.56,5.62,165.16,5.62h147.49c71.61,0,123.34,0,165.17-5.62,47.46-6.38,79.62-20.23,104.29-44.9,24.67-24.67,38.52-56.83,44.9-104.29,5.62-41.82,5.62-93.56,5.62-165.16v-73.74c0-40.23,0-74.18-1-103.63.64-2.22,1-4.56,1-6.99ZM319.97,105.31h147.49c131.98,0,198.22,0,234.1,35.88,20.59,20.59,29.36,51.19,33.1,98.48H52.78c3.74-47.29,12.51-77.89,33.1-98.48,35.88-35.88,102.12-35.88,234.1-35.88Zm417.46,343.72c0,131.98,0,198.22-35.88,234.1-35.87,35.88-102.12,35.88-234.1,35.88h-147.49c-131.98,0-198.22,0-234.1-35.88-35.88-35.87-35.88-102.12-35.88-234.1v-73.74c0-32.31,0-60.67.53-85.62h686.38c.53,24.95.53,53.31.53,85.62v73.74Z" style="fill:#050033; stroke-width:0px;"/></svg>