<?xml version="1.0" encoding="UTF-8"?><svg id="a" xmlns="http://www.w3.org/2000/svg" viewBox="0 0 512 472.3"><path d="m441.86,332.02c-33.25,0-61.17,23.26-68.35,54.36H102.72c-35.36,0-64.13-28.77-64.13-64.13s28.77-64.13,64.13-64.13h301.25c56.17,0,101.88-45.7,101.88-101.88s-45.7-101.88-101.88-101.88H138.49C131.31,23.26,103.39,0,70.14,0,31.46,0,0,31.46,0,70.14s31.46,70.14,70.14,70.14c33.25,0,61.17-23.26,68.35-54.36h265.48c38.77,0,70.32,31.54,70.32,70.32s-31.54,70.32-70.32,70.32H102.72c-52.76,0-95.69,42.93-95.69,95.69s42.93,95.69,95.69,95.69h270.8c7.18,31.1,35.1,54.36,68.35,54.36,38.68,0,70.14-31.46,70.14-70.14s-31.46-70.14-70.14-70.14ZM70.14,108.72c-21.27,0-38.58-17.31-38.58-38.58s17.31-38.58,38.58-38.58,38.58,17.31,38.58,38.58-17.31,38.58-38.58,38.58Zm371.72,332.02c-21.27,0-38.58-17.31-38.58-38.58s17.31-38.58,38.58-38.58,38.58,17.31,38.58,38.58-17.31,38.58-38.58,38.58Z" style="fill:#050033; stroke-width:0px;"/></svg>