<?xml version="1.0" encoding="utf-8"?>
<!-- Generator: Adobe Illustrator 27.8.1, SVG Export Plug-In . SVG Version: 6.00 Build 0)  -->
<svg version="1.1" id="Layer_1" xmlns="http://www.w3.org/2000/svg" xmlns:xlink="http://www.w3.org/1999/xlink" x="0px" y="0px"
	 viewBox="0 0 800 800" style="enable-background:new 0 0 800 800;" xml:space="preserve">
<style type="text/css">
	.st0{enable-background:new    ;}
	.st1{fill:#FFFFFF;}
</style>
<g class="st0">
	<path class="st1" d="M400,758.3c-39.2,0-54.6-6.7-80-17.8c-91.5-40-245-137.4-245-340.8v-52.5c0-122.1,0-167.8,17.1-192.2
		c17.3-24.6,60.3-39.3,175.3-78.7l19.1-6.5C341.3,51,368.8,41.6,400,41.6s58.7,9.4,113.5,28.2l19.1,6.5
		c115,39.4,158,54.1,175.3,78.7C725,179.4,725,225.1,725,347.2v52.5c0,203.4-153.5,300.8-244.9,340.8
		C454.6,751.6,439.2,758.3,400,758.3z M400,91.7c-22.9,0-47.8,8.5-97.3,25.5l-19.1,6.5c-48.1,16.5-86,29.5-112,39.9
		c-31.1,12.6-37.4,18.6-38.6,20.2c-1.1,1.6-4.7,9.6-6.5,43.5C125,255.5,125,294,125,347.2v52.5c0,174.9,134.7,259.9,215,295
		c22.8,9.9,31.3,13.7,60,13.7c28.8,0,37.3-3.7,60-13.7c80.3-35.1,215-120,215-295v-52.5c0-53.3,0-91.8-1.5-119.9
		c-1.8-33.9-5.5-41.9-6.6-43.5c-1.2-1.5-7.4-7.6-38.6-20.2c-25.9-10.5-63.9-23.5-112-39.9l-19.1-6.5
		C447.8,100.2,422.9,91.7,400,91.7z"/>
</g>
<g>
	<path class="st1" d="M400,425c-13.8,0-25-11.2-25-25V266.7c0-13.8,11.2-25,25-25s25,11.2,25,25V400C425,413.8,413.8,425,400,425z"
		/>
</g>
<g>
	<circle class="st1" cx="400" cy="500" r="33.3"/>
</g>
</svg>
