<svg xmlns="http://www.w3.org/2000/svg" viewBox="0 0 98 98"><circle cx="49" cy="49" r="49" style="fill:#ececec"/><path d="M59.46,52A20.41,20.41,0,0,0,68.09,54a16.68,16.68,0,0,0,4.77-.62l1.4-.44v-25a15.43,15.43,0,0,1-5.53,1.73,7.11,7.11,0,0,1-1.14.09h-.1c-2.81,0-6.16-1.17-9.43-2.32a47,47,0,0,0-6.44-1.94,11.83,11.83,0,0,0-8.22,1.28v-3h-4V73.39H29.84v4h43v-4H43.4V51.1C46.84,48.2,52,48.5,59.46,52ZM43.4,31.66a8.13,8.13,0,0,1,7.47-2.32,44.27,44.27,0,0,1,5.86,1.79c4.4,1.54,9.27,3.26,13.53,2.24V49.8a16.39,16.39,0,0,1-9.09-1.39c-3-1.4-11.09-5.21-17.77-2Z" transform="translate(-1 -1)" style="fill:#b1b1b1"/></svg>