<svg xmlns="http://www.w3.org/2000/svg" viewBox="0 0 98 98"><circle cx="49" cy="49" r="49" style="fill:#ececec"/><path d="M70.11,36.94,56,22.34a8.43,8.43,0,0,0-6.07-2.56,8.32,8.32,0,0,0-6,2.6L29.9,37,28.27,69.77A8.8,8.8,0,0,0,37.06,79H62.94a8.8,8.8,0,0,0,8.79-9.24ZM66.42,73.52A4.77,4.77,0,0,1,62.94,75H37.06a4.8,4.8,0,0,1-4.8-5l1.56-31.34L46.74,25.14a4.39,4.39,0,0,1,3.17-1.36,4.53,4.53,0,0,1,3.18,1.35l13.1,13.51L67.74,70A4.75,4.75,0,0,1,66.42,73.52Z" transform="translate(-1 -1)" style="fill:#b1b1b1"/><polygon points="51 46.94 47 46.94 47 54.47 39.48 54.47 39.48 58.47 47 58.47 47 66 51 66 51 58.47 58.53 58.47 58.53 54.47 51 54.47 51 46.94" style="fill:#b1b1b1"/><path d="M50,37.59a4,4,0,1,0-4-4A4,4,0,0,0,50,37.59Z" transform="translate(-1 -1)" style="fill:#b1b1b1"/></svg>