<?xml version="1.0" encoding="utf-8"?>
<!-- Generator: Adobe Illustrator 27.8.1, SVG Export Plug-In . SVG Version: 6.00 Build 0)  -->
<svg version="1.1" id="Layer_1" xmlns="http://www.w3.org/2000/svg" xmlns:xlink="http://www.w3.org/1999/xlink" x="0px" y="0px"
	 viewBox="0 0 98 98" style="enable-background:new 0 0 98 98;" xml:space="preserve">
<style type="text/css">
	.st0{fill:#ECECEC;}
	.st1{fill:none;stroke:#B1B1B1;stroke-width:4;stroke-miterlimit:10;}
</style>
<circle class="st0" cx="49" cy="49" r="49"/>
<path class="st1" d="M32.7,42.2h34.9c5,0,9.8,2.4,12.8,6.5l5.1,7c0.7,0.9,0.5,2.3-0.4,3c-0.4,0.3-0.8,0.4-1.3,0.4H37.3
	c-3.8,0-7.5-1.3-10.4-3.7l0,0c-2.7-2.2-4.7-5.2-5.6-8.5l-3.3-12.3h3.4C26.4,34.5,30.9,37.6,32.7,42.2z"/>
<path class="st1" d="M44.8,42.2l-4-18.1h7.6c3.1,0,5.9,1.8,7.2,4.6l6.5,13.5H44.8z"/>
<path class="st1" d="M44.8,59.1l-4.1,16.5h7.6c3.1,0,5.9-1.8,7.2-4.5l6.6-12L44.8,59.1z"/>
</svg>
