<svg xmlns="http://www.w3.org/2000/svg" viewBox="0 0 98 98"><circle cx="49" cy="49" r="49" style="fill:#ececec"/><path d="M71.61,37.52H68.68V30.67A8.68,8.68,0,0,0,60,22H40a8.68,8.68,0,0,0-8.68,8.67v6.85H28.39a8.68,8.68,0,0,0-8.67,8.67V77.05H80.28V46.19A8.68,8.68,0,0,0,71.61,37.52ZM23.72,73.05V46.19a4.68,4.68,0,0,1,4.67-4.67h2.93V73.05Zm24.67,0V62.58a.45.45,0,0,1,.46-.45h2.3a.45.45,0,0,1,.46.45V73.05Zm7.22,0V62.58a4.46,4.46,0,0,0-4.46-4.45h-2.3a4.46,4.46,0,0,0-4.46,4.45V73.05H35.32V30.67A4.68,4.68,0,0,1,40,26H60a4.68,4.68,0,0,1,4.68,4.67V73.05Zm20.67,0h-7.6V41.52h2.93a4.68,4.68,0,0,1,4.67,4.67Z" transform="translate(-1 -1)" style="fill:#b1b1b1"/><rect x="39.35" y="49.78" width="19.29" height="4" style="fill:#b1b1b1"/><rect x="39.35" y="43.74" width="19.29" height="4" style="fill:#b1b1b1"/><path d="M50,41.73a6.56,6.56,0,1,0-6.55-6.56A6.56,6.56,0,0,0,50,41.73Zm0-9.11a2.56,2.56,0,1,1-2.55,2.55A2.55,2.55,0,0,1,50,32.62Z" transform="translate(-1 -1)" style="fill:#b1b1b1"/></svg>