<svg xmlns="http://www.w3.org/2000/svg" viewBox="0 0 98 98"><circle cx="49" cy="49" r="49" style="fill:#ececec"/><path d="M69.51,61.17a7.71,7.71,0,0,0-7.43,5.71H33.91a6.39,6.39,0,0,1,0-12.78H65.53a11,11,0,1,0,0-22.07H37.92a7.71,7.71,0,1,0,0,4H65.53a7,7,0,1,1,0,14.07H33.91a10.39,10.39,0,0,0,0,20.78H62.08a7.7,7.7,0,1,0,7.43-9.71Zm-39-23.43A3.71,3.71,0,1,1,34.2,34,3.72,3.72,0,0,1,30.49,37.74Zm39,34.85a3.71,3.71,0,1,1,3.71-3.71A3.72,3.72,0,0,1,69.51,72.59Z" transform="translate(-1 -1)" style="fill:#b1b1b1"/></svg>