<svg xmlns="http://www.w3.org/2000/svg" viewBox="0 0 98 98"><circle cx="49" cy="49" r="49" style="fill:#ececec"/><path d="M88.9,58l-.77-2.92A14,14,0,0,0,74.59,44.64H70.34l-7.63-8.48A13.25,13.25,0,0,0,52.8,31.9H39.25A13,13,0,0,0,28,38l-4,6.69H14.83v9.7a9.24,9.24,0,0,0,9,9.22,7.93,7.93,0,0,0,15.35,0H64.59a7.93,7.93,0,0,0,15.35,0h4.65A4.45,4.45,0,0,0,88.9,58ZM59.73,38.83,65,44.64H48.79V35.9h4A9.41,9.41,0,0,1,59.73,38.83ZM31.45,40a9,9,0,0,1,7.8-4.1h5.54v8.74H28.68Zm0,25.52a3.94,3.94,0,1,1,3.94-3.94A3.95,3.95,0,0,1,31.46,65.52Zm40.8,0a3.94,3.94,0,1,1,3.94-3.94A3.95,3.95,0,0,1,72.26,65.52ZM85,59.4a.47.47,0,0,1-.37.18H79.94a7.93,7.93,0,0,0-15.35,0H39.13a7.93,7.93,0,0,0-15.34,0,5.21,5.21,0,0,1-5-5.22v-5.7H74.59a10,10,0,0,1,9.67,7.44L85,59A.48.48,0,0,1,85,59.4Z" transform="translate(-1 -1)" style="fill:#b1b1b1"/></svg>